<svg width="113" height="96" viewBox="0 0 113 96" fill="none" xmlns="http://www.w3.org/2000/svg">
<g clip-path="url(#clip0_123_79)">
<path d="M95.555 25.9995C92.1248 23.8528 88.1242 22.7971 84.0814 22.9718C79.7907 23.1035 75.5857 24.2069 71.7831 26.1989C67.8314 28.3226 64.245 31.0649 61.1598 34.3218C57.9638 37.6816 55.0733 41.3194 52.5227 45.192C47.2274 53.0089 42.754 61.5254 36.8664 69.1934C33.9429 73.0421 30.569 76.5268 26.8169 79.5732C23.0815 82.6155 18.7958 84.9111 14.1933 86.3347C18.6279 84.6179 22.6911 82.0644 26.1617 78.8135C29.6061 75.5924 32.6489 71.967 35.2239 68.0162C40.4618 60.1547 44.2972 51.4607 49.1291 43.0784C51.5363 38.8015 54.3234 34.7499 57.4565 30.9725C60.6851 27.0604 64.5257 23.6968 68.8292 21.0121C73.3214 18.2333 78.3885 16.5164 83.6446 15.9922C89.1781 15.3942 94.7626 16.493 99.6571 19.1428L95.555 25.9995Z" fill="white"/>
<path d="M100.323 12.1119L110.421 30.2247L89.6831 29.9133L100.323 12.1119Z" fill="white"/>
<path d="M92.7346 13.9858C89.607 13.2097 86.36 13.0375 83.1679 13.4785C80.0256 13.9144 76.9616 14.7968 74.0688 16.0988L71.897 17.0936L69.8251 18.2755L68.7763 18.8574L67.808 19.5661C67.1624 20.0387 66.4675 20.4606 65.7924 20.8928C64.4933 21.8437 63.186 22.8006 61.8788 23.7574C60.5716 24.7143 59.3981 25.8707 58.0822 26.8834C59.0795 25.571 60.1402 24.3112 61.2091 23.0456C62.2779 21.7799 63.5465 20.7026 64.8092 19.6172C65.4789 19.127 66.1133 18.5883 66.7852 18.0841L67.7938 17.3458L68.8497 16.6721L71.0029 15.381L73.2758 14.2874C76.3621 12.9094 79.6777 12.1171 83.0536 11.951C86.4053 11.7405 89.7513 12.4438 92.7346 13.9858Z" fill="#BD39C9"/>
<path d="M47.5259 57.0906C46.5816 59.8009 45.3769 62.4133 43.9289 64.8913C42.4998 67.3896 40.891 69.7807 39.1153 72.0458C37.3159 74.3044 35.3204 76.3996 33.152 78.3068C30.9677 80.2011 28.5175 81.765 25.8795 82.9485C28.0459 81.1352 30.114 79.2077 32.0752 77.1742C33.9753 75.1142 35.812 73.0014 37.5536 70.8095C39.2952 68.6176 40.9638 66.3429 42.6206 64.052L47.5259 57.0906Z" fill="#BD39C9"/>
</g>
<defs>
<clipPath id="clip0_123_79">
<rect width="113.34" height="35.59" fill="white" transform="translate(112.479 28.7185) rotate(143.797)"/>
</clipPath>
</defs>
</svg>
