<svg xmlns="http://www.w3.org/2000/svg" width="113" height="96" fill="none">
  <g clip-path="url(#a)">
    <path fill="#fff" d="m96 26-12-3-12 3-11 8-8 11c-6 8-10 17-16 24L27 80c-4 3-8 5-13 6 5-1 9-4 12-7 4-3 7-7 9-11l14-25 8-12 12-10c4-3 9-4 15-5 5-1 11 0 16 3l-4 7Z"/>
    <path fill="#fff" d="m100 12 10 18H90l10-18Z"/>
    <path fill="#BD39C9" d="m93 14-10-1-9 3-2 1-2 1-1 1-1 1-2 1-4 3-4 3 3-4 4-3 2-2 1-1h1l2-2 2-1 10-2c3 0 7 0 10 2ZM48 57l-4 8a59 59 0 0 1-11 13l-7 5a79 79 0 0 0 17-19l5-7Z"/>
  </g>
  <defs>
    <clipPath id="a">
      <path fill="#fff" d="M112 29 21 95 0 66 91 0z"/>
    </clipPath>
  </defs>
</svg>
