<svg xmlns="http://www.w3.org/2000/svg" width="226" height="232" fill="none">
  <path fill="#E2DAE6" d="M15 12h-1a3 3 0 0 0-1-2 3 3 0 0 0-1 0 3 3 0 0 0-1-1 3 3 0 0 0-2 1l-1 1-1 3 1 2 1 1a3 3 0 0 0 2 1h1v-1a3 3 0 0 0 2-1h1a5 5 0 0 1 0 1 4 4 0 0 1-3 2 5 5 0 0 1-2 1l-2-1-2-2-1-3 1-3a5 5 0 0 1 5-3h1l2 1a4 4 0 0 1 1 1v2Zm3 11a3 3 0 0 1-1 0v-2h1a1 1 0 0 0 1 0v-1h1l-3-9h1l2 7h1l2-7h2l-4 10-1 1a2 2 0 0 1-1 1h-1Zm13-5 3-7h1l-4 9h-1l-3-9h1l3 7Zm-3-7v9h-2v-9h2Zm6 9v-9h2v9h-2Zm9-2 3-7 1 1-4 8h-1l-3-9h1l3 7Zm-3-7-1 9h-1v-9h2Zm6 9v-9l2 1-1 8h-1Zm6 0a3 3 0 0 1-1 0 2 2 0 0 1-1-1l-1-1 1-2a4 4 0 0 1 1-1h4v-1l-1-1h-2l-1 1h-1v-2a3 3 0 0 1 2 0 5 5 0 0 1 2 0h1a2 2 0 0 1 1 1v7h-1v-1a2 2 0 0 1-1 1 3 3 0 0 1-1 0h-1Zm1-1h1a2 2 0 0 0 1-2v-1h-2a4 4 0 0 0-1 1 2 2 0 0 0-1 0v2h2Z"/>
  <path fill="#fff" d="M10 48H8l-2-2-1-2h3l1 2h3l1-1v-3a3 3 0 0 0-1-1h-2a3 3 0 0 0-1 0l-1 1-2-1 1-7h8v2H9l-1 4 1-1a4 4 0 0 1 2 0h2a4 4 0 0 1 2 2l1 3-1 2a5 5 0 0 1-2 2h-3Zm8 0 7-12h-7v-2h10l-1 2-6 12h-3Zm17 1a6 6 0 0 1-2 0 5 5 0 0 1-2-2l-1-2-1-3 1-4 1-2a5 5 0 0 1 2-1l2-1 2 1a5 5 0 0 1 3 3h-3l-1-1-1-1-2 2-1 3a4 4 0 0 1 1-1l1-1h1l3 1a4 4 0 0 1 1 2l1 2-1 3a5 5 0 0 1-2 1l-2 1Zm0-2 1-1 1-1a3 3 0 0 0 0-1 3 3 0 0 0 0-1 3 3 0 0 0-1-1 3 3 0 0 0-1-1 3 3 0 0 0-2 1 3 3 0 0 0-1 3l1 1a3 3 0 0 0 2 1Zm17 2h-2l-2-2a4 4 0 0 1-1-2h3l1 1 1 1h2l1-1v-3a3 3 0 0 0-1-1l-2-1a3 3 0 0 0-1 1h-3v-8l9 1v2h-6l-1 4 1-1a4 4 0 0 1 2-1l2 1a4 4 0 0 1 2 2v5a5 5 0 0 1-2 2h-3Zm14-14v14h-3V37l-3 2v-2l3-2h3Zm9 15-3-1-2-3-1-4 1-4 2-2 3-1 3 1 2 2v8l-2 3-3 1Zm0-3 2-1 1-4-1-3-1-1a2 2 0 0 0-1-1l-2 1-1 4v3l1 2h2Zm10 1a12 12 0 0 1 0 2 23 23 0 0 1-1 3h-2v-1a28 28 0 0 0 1-4h2Zm8-13a6 6 0 0 1 2 0 5 5 0 0 1 2 2l1 2v6l-1 3a5 5 0 0 1-2 1l-2 1-3-1a5 5 0 0 1-2-1 5 5 0 0 1 0-2h2l1 1 2 1 2-2 1-3a4 4 0 0 1-1 1h-1a4 4 0 0 1-2 1l-2-1a4 4 0 0 1-2-2v-5a5 5 0 0 1 2-1l3-1Zm0 2a3 3 0 0 0-1 1h-1a3 3 0 0 0-1 2l1 1v1l2 1a3 3 0 0 0 2-1 3 3 0 0 0 1-2 3 3 0 0 0-1-1 3 3 0 0 0-1-1 3 3 0 0 0-1-1Zm7 10v-2l7-10 1 1v2h-1l-4 7h9v2h-12Zm7 3v-4l1-11 2 1v14h-3Zm12 4V39h3v2a5 5 0 0 1 0-1h1l2-1a4 4 0 0 1 2 1l2 2v6l-2 2h-4a3 3 0 0 1-1-1h-1v5h-2Zm2-9 1 2 1 1h2l1-1 1-2-1-2-1-1-1-1-1 1-1 1-1 2Zm11 9a5 5 0 0 1-1 0v-2h2l1-1-4-11h3l2 8 3-8h3l-5 12a5 5 0 0 1-1 1 3 3 0 0 1-1 1h-2Zm19-18 1 2h-1a6 6 0 0 1-1 0 44 44 0 0 1-2 0l-2 1-1 1-1 2a4 4 0 0 1 2-1l2-1 2 1 2 2v5a4 4 0 0 1-2 2l-3 1-3-1-1-2-1-3v-1l2-6 4-2a55 55 0 0 1 3 0Zm-4 13 2-1v-1l1-1-1-2v-1l-2-1a3 3 0 0 0-1 1 2 2 0 0 0-1 0 3 3 0 0 0 0 1v4l2 1Zm9 2a2 2 0 0 1-1 0 1 1 0 0 1-1-2 1 1 0 0 1 1-1 2 2 0 0 1 1 0h1a1 1 0 0 1 0 2 2 2 0 0 1 0 1 1 1 0 0 1-1 0Z"/>
  <rect width="218.8" height="30.4" x="3.6" y="67.6" fill="#DEF1DD" rx="5.7" transform="rotate(1 4 68)"/>
  <path fill="#388A0E" d="M19 87v-8h2v8h-2Zm-3-3v-2h8v2h-8Zm14-7a4 4 0 0 1 2 1h1l1 2v5l-1 2a4 4 0 0 1-1 2h-2l-2-1a3 3 0 0 1-1-1 4 4 0 0 1-1-1h2l1 1h1l2-1 1-3h-1a3 3 0 0 1 0 1 3 3 0 0 1-2 1 3 3 0 0 1-2-1 4 4 0 0 1-1-1l-1-2a4 4 0 0 1 1-2l1-1 2-1Zm0 2a2 2 0 0 0-1 0 2 2 0 0 0-1 1 2 2 0 0 0 0 1 3 3 0 0 0 0 1l1 1a2 2 0 0 0 1 0h1a2 2 0 0 0 1 0v-2a2 2 0 0 0 0-1 2 2 0 0 0-1-1 2 2 0 0 0-1 0Zm6 10v-1l4-4a21 21 0 0 0 2-2v-1a2 2 0 0 0 0-1 2 2 0 0 0-1-1 2 2 0 0 0-1 0 2 2 0 0 0-1 0 2 2 0 0 0-1 1 2 2 0 0 0 0 1h-2l1-2a3 3 0 0 1 1-1l2-1 2 1 1 1 1 2a3 3 0 0 1-1 1l-1 1-1 2-2 2 5 1v1h-8Zm18 0h-2l-2-2v-7l2-2h4l2 2v7l-2 2h-2Zm0-1 2-1v-6l-1-1a2 2 0 0 0-1-1l-2 1-1 3 1 3 1 1 1 1Zm6-1v-1l5-8h1v2h-1l-3 6h6v1h-8Zm5 2V78h2v11h-2Zm9 1-2-1-1-1a3 3 0 0 1-1-2l2 1 1 1h2l1-1 1-1a2 2 0 0 0-1-1h-1l-1-1h-1v-1h2l1-1v-1a2 2 0 0 0 0-1 2 2 0 0 0-1 0l-1-1a3 3 0 0 0-1 1 1 1 0 0 0-1 1h-1v-2l2-1a4 4 0 0 1 1 0h2l2 2v1a2 2 0 0 1-2 3l2 1v1a3 3 0 0 1 0 2l-2 1-2 1Zm8-2v1a10 10 0 0 1 0 1 21 21 0 0 1-1 2h-1v-1a28 28 0 0 0 1-2v-1h1Zm6 2-2-1a3 3 0 0 1-1-1 3 3 0 0 1-1-1h2l1 1h2l1-1v-1a3 3 0 0 0 0-1 2 2 0 0 0-1-1 2 2 0 0 0-1 0 3 3 0 0 0-1 0h-2v-6h7v2h-5l-1 3 1-1h1a3 3 0 0 1 4 2v2l-1 2a4 4 0 0 1-1 1l-2 1Zm10 0h-2a3 3 0 0 1-1-1 3 3 0 0 1-1-2h2v1l2 1 1-1h1v-2a3 3 0 0 0 0-1 2 2 0 0 0-1-1 2 2 0 0 0-1 0 3 3 0 0 0-1 0h-3l1-5h6v1h-5v3h1l1-1a3 3 0 0 1 3 2l1 2-1 2a4 4 0 0 1-1 2h-2Zm10 3V82h2v1-1h2a3 3 0 0 1 2 0l1 2 1 2-1 2-1 2h-3a2 2 0 0 1-1-1l-1 4h-1Zm2-7v1l1 2h2l1-2a4 4 0 0 0 0-1 4 4 0 0 0 0-2 2 2 0 0 0-1-1h-2l-1 1v2Zm8 8a3 3 0 0 1 0-1 2 2 0 0 1-1 0l1-1a1 1 0 0 0 1 0v-1l1-1-3-8h1l3 6 2-6h2l-4 9a4 4 0 0 1-1 2 2 2 0 0 1-1 0l-1 1Zm15-15 1 1a2 2 0 0 1-1 0l-1 1a78 78 0 0 1-3 0l-1 1-1 2 1-1a4 4 0 0 1 2-1l2 1 1 1 1 2-1 3a4 4 0 0 1-1 1l-2 1-2-1-2-2v-3l1-4 3-2a26 26 0 0 1 2 0h1Zm-3 10a2 2 0 0 0 2-1v-3a2 2 0 0 0-1-1h-1a2 2 0 0 0-1 0 2 2 0 0 0-1 0 3 3 0 0 0 0 1l-1 1 1 2 2 1Zm7 2a1 1 0 0 1-1-1 1 1 0 0 1-1 0l1-1h1l1 1a1 1 0 0 1-1 1Zm10 0-2-1a4 4 0 0 1-1-1v-5a4 4 0 0 1 1-1l3-1 2 1 1 1 1 3-1 2a4 4 0 0 1-1 1l-3 1Zm0-1 2-1 1-1v-1a4 4 0 0 0 0-2 2 2 0 0 0-1-1h-3a2 2 0 0 0-1 1 4 4 0 0 0 0 2 4 4 0 0 0 0 1l1 1 1 1Zm5-6v-2h8v2h-3v7h-2v-7h-3Zm13 7 1-8h5l1 2v1l-2 1h1l1 1v1a2 2 0 0 1-1 2h-6Zm2-1h3l1-1-1-1v-1h-3v3Zm0-4h3a1 1 0 0 0 1-1 1 1 0 0 0-1-1h-3v2Zm14-3v8h-2l1-8h1Zm-1 4v2a7 7 0 0 1-2 0l-3-1-1-2v-3h2v4h4Zm7 5-2-1a4 4 0 0 1-2-1v-3l1-2a4 4 0 0 1 1-2h3a3 3 0 0 1 2 2l1 2v1h-7v-2l5 1a2 2 0 0 0 0-2 2 2 0 0 0-1 0l-1-1-1 1h-1a3 3 0 0 0 0 2v2l1 1h2a2 2 0 0 0 1-1h2a3 3 0 0 1-1 2h-1l-2 1Zm5 3 1-12h1v1h1l1-1h1a3 3 0 0 1 2 1l1 1v5l-1 1-2 1h-2a2 2 0 0 1 0-1 5 5 0 0 1-1-1v5h-2Zm2-8v2l1 1h3v-1l1-2a4 4 0 0 0-1-1v-1l-2-1-1 1-1 1v1Zm11 5a3 3 0 0 1-2 0 2 2 0 0 1-1-1v-3l1-1a4 4 0 0 1 1 0h3v-2h-3v1l-2-1 1-1a3 3 0 0 1 1-1 5 5 0 0 1 3 0l1 1 1 1v7h-2v-1a3 3 0 0 1-1 1h-1Zm0-1 1-1a2 2 0 0 0 1 0 2 2 0 0 0 0-1v-1a5 5 0 0 1-1 0 65 65 0 0 0-1 0 4 4 0 0 0-1 0 2 2 0 0 0 0 1h-1l1 1 1 1Z"/>
  <path fill="#E2DAE6" d="m12 156-4-5H7v5H6v-11h1v5h1l4-5 1 1-4 4 4 6h-1Zm5 0-1-1-2-1v-4a3 3 0 0 1 2-2h2l1 1 2 1v4a3 3 0 0 1-2 1l-2 1Zm0-1 2-1v-2a4 4 0 0 0 0-1 2 2 0 0 0 0-1l-2-1-1 1v1a4 4 0 0 0-1 1l1 1v1l1 1Zm5 1v-1a1 1 0 0 0 1-1v-1l1-1v-4h5v8h-2l1-6h-3v4l-1 1a2 2 0 0 1 0 1h-2Zm8 0v-1h1v-1l1-1v-5h5v8h-1v-6h-3v5l-1 1h-2Zm11-2 3-5h2v7h-2v-5l-3 5h-2v-7h2v5Zm13-5v7h-2v-7h2Zm-1 3v2h-1a6 6 0 0 1-1 0l-3-1v-4h1v3l1 1h2a10 10 0 0 0 1-1Zm6 5-2-1a3 3 0 0 1-1-1l-1-2 1-2a3 3 0 0 1 1-2h3a3 3 0 0 1 2 2v2h-6v-1h5a2 2 0 0 0 0-1 2 2 0 0 0-1-1 2 2 0 0 0-1 0 2 2 0 0 0-1 0l-1 1v3l1 1h2a2 2 0 0 0 1-1l1 1-1 1a3 3 0 0 1-1 0l-1 1Zm8 0-2-1a3 3 0 0 1-1-1l-1-2 1-2 1-2h4l1 1v2l-1-1a2 2 0 0 0-1 0l-1-1a2 2 0 0 0-1 0l-1 1v3l1 1 1 1 1-1a2 2 0 0 0 1-1h1v2a3 3 0 0 1-1 0l-2 1Zm4-7v-1h7v1h-3v7h-1v-7h-3Zm8 7v-8h3l2 1 1 1v1l-1 1 1 1v1a2 2 0 0 1 0 1l-1 1h-5Zm1-1h3l1-1v-1h-1l-2-1-1 3Zm1-4h2a1 1 0 0 0 1-1 1 1 0 0 0-1 0h-1l-1-1v2Zm9 5h-2l-1-2v-4a3 3 0 0 1 1-1l2-1 2 1 1 1 1 2-1 2a3 3 0 0 1-1 2h-2Zm0-1h1l1-1v-2a4 4 0 0 0 0-1 2 2 0 0 0-1-1h-2l-1 1a4 4 0 0 0 0 1v2l1 1h1Z"/>
  <path fill="#fff" d="m10 181-3-1-1-1a3 3 0 0 1-1-2h2l1 1 1 1a3 3 0 0 0 1 0h1l1-1v-1a2 2 0 0 0 0-1l-1-1H8l1-2h2l1-1v-1a2 2 0 0 0 0-1 2 2 0 0 0-1 0 2 2 0 0 0-1 0 3 3 0 0 0-1 0 2 2 0 0 0-1 0v1H5l1-2 2-1h4l2 2v3l-2 1 2 1 1 2a3 3 0 0 1-1 2l-2 1-2 1Zm11 0h-2l-2-2a3 3 0 0 1 0-2 3 3 0 0 1 0-1l1-1a3 3 0 0 1 1-1 3 3 0 0 1-1-1 3 3 0 0 1-1-2 3 3 0 0 1 1-2l1-1h5l1 2 1 1a3 3 0 0 1-1 2l-2 1 2 1a3 3 0 0 1 1 3 3 3 0 0 1-1 1l-1 2h-3Zm0-2h2v-1l1-1a2 2 0 0 0-1-1 3 3 0 0 0-2-1 3 3 0 0 0-1 0 2 2 0 0 0-1 1 2 2 0 0 0 0 1 2 2 0 0 0 1 2h1Zm0-6h1a2 2 0 0 0 1-1 2 2 0 0 0 0-1 2 2 0 0 0 0-1 2 2 0 0 0-2 0 2 2 0 0 0-1 0 2 2 0 0 0-1 2l1 1h1Zm12 8a5 5 0 0 1-2 0 4 4 0 0 1-2-1l-1-2v-6l2-2a4 4 0 0 1 1-1l2-1 2 1a4 4 0 0 1 3 3h-3v-1l-2-1-2 1-1 3 1-1a4 4 0 0 1 1 0 4 4 0 0 1 2 0h2a4 4 0 0 1 1 2l1 2-1 2a4 4 0 0 1-2 2h-2Zm0-2h1l1-1v-1a3 3 0 0 0 0-1 2 2 0 0 0-1-1 2 2 0 0 0-1-1 2 2 0 0 0-1 1 2 2 0 0 0-1 0 3 3 0 0 0 0 2v1l1 1h1Zm11-7h2v7l3 1v-8h3v8h3v-8h2v10l-13-1v-9Zm14 2v-2h9v2h-4v8h-2v-8h-3Zm10 8a1 1 0 0 1-1-1 1 1 0 0 1 0-1 1 1 0 0 1 1-1l1 1a1 1 0 0 1 0 1v1a1 1 0 0 1-1 0Z"/>
  <rect width="136.3" height="27.1" x="3.7" y="197.8" fill="#DEF1DD" rx="5.1" transform="rotate(1 4 198)"/>
  <path fill="#388A0E" d="M18 215v-6h1v6h-1Zm-3-2v-2l7 1v1h-7Zm12 4a4 4 0 0 1-1 0 3 3 0 0 1-1-1l-1-1v-5l1-2 1-1a3 3 0 0 1 2 0h1l1 1 1 2h-2a2 2 0 0 0 0-1l-1-1-2 1-1 3 1-1a3 3 0 0 1 2 0h1l1 1 1 2a4 4 0 0 1-1 2l-1 1h-2Zm0-1a2 2 0 0 0 1 0l1-1v-1a2 2 0 0 0 0-1 2 2 0 0 0-1-1 2 2 0 0 0-1 0 2 2 0 0 0-1 1h-1v1a2 2 0 0 0 1 2h1Zm6 1v-1l3-3a19 19 0 0 0 2-2v-1a2 2 0 0 0 0-1 2 2 0 0 0-1 0 2 2 0 0 0-1-1 2 2 0 0 0-1 1h-1v1h-1v-1a3 3 0 0 1 1-1l2-1 2 1 1 1v1a3 3 0 0 1 0 1l-1 1-1 2-2 2h4v2l-6-1Zm12-7h1v6h3v-6h2l-1 6h3v-6h2l-1 8h-9v-8Zm11 1v-1h6v2h-2l-1 6h-1v-6l-2-1Zm7 7a1 1 0 0 1-1-1l1-1h1a1 1 0 0 1 0 1 1 1 0 0 1 0 1 1 1 0 0 1-1 0Zm10 0h-2l-1-2-1-2 1-2a3 3 0 0 1 1-1l2-1 2 1 1 1 1 2-1 2a3 3 0 0 1-1 2h-2Zm0-1h1l1-1v-2a4 4 0 0 0 0-1 2 2 0 0 0-1-1h-2l-1 1a4 4 0 0 0 0 1v2l1 1h1Zm4-5v-1h7v1h-3v6h-1v-6h-3Zm12 6v-7h5l1 2v1h-2l1 1h1v1a2 2 0 0 1 0 2h-6Zm1-1h3l1-1-1-1h-3v2Zm0-3h3a1 1 0 0 0 1-1 1 1 0 0 0-1-1h-3v2Zm13-3v8h-2l1-8h1Zm-1 4v1a6 6 0 0 1-2 0h-2l-1-3v-2h1v2l1 1v1h2a10 10 0 0 0 1 0Zm6 4-2-1a3 3 0 0 1-1-1v-4a3 3 0 0 1 1-1l2-1h1a3 3 0 0 1 2 2v2h-6v-1h5a2 2 0 0 0 0-1 2 2 0 0 0-1 0 2 2 0 0 0-1-1 2 2 0 0 0-1 1h-1v4h1l1 1h1a2 2 0 0 0 1-1h1v1a3 3 0 0 1-1 1h-2Zm5 3v-11h2v1l1-1h1a3 3 0 0 1 2 1l1 1v4l-2 2a3 3 0 0 1-1 0h-1a2 2 0 0 1-1-1l-1 4h-1Zm2-7v2l1 1 2-1v-1l1-1a4 4 0 0 0-1-1 2 2 0 0 0 0-1l-1-1-2 1v2Zm9 4a3 3 0 0 1-1 0 2 2 0 0 1-1-1l-1-1 1-1v-1h1a9 9 0 0 1 1 0l1-1h1v-1h-2l-1 1-1-1v-1a3 3 0 0 1 1 0 4 4 0 0 1 2-1h1l1 1v1l1 1v5h-2v-1a2 2 0 0 1 0 1 2 2 0 0 1-1 0h-1Zm0-1h1l1-1v-2l-1 1h-1a1 1 0 0 0-1 0v2h1Z"/>
</svg>
