<svg xmlns="http://www.w3.org/2000/svg" width="226" height="232" fill="none"><path fill="#E2DAE6" d="m15.315 11.818-1.734-.03a2.652 2.652 0 0 0-1.01-1.714 2.874 2.874 0 0 0-.876-.46 3.45 3.45 0 0 0-1.026-.168 3.215 3.215 0 0 0-1.77.464c-.521.32-.937.797-1.248 1.43-.308.631-.47 1.407-.486 2.326-.016.926.119 1.71.404 2.353.289.643.69 1.132 1.203 1.467a3.222 3.222 0 0 0 1.742.52c.36.006.702-.036 1.026-.127.328-.094.625-.236.891-.424a2.662 2.662 0 0 0 1.08-1.655l1.734.037a4.645 4.645 0 0 1-.566 1.535c-.271.463-.617.86-1.038 1.194-.418.33-.893.583-1.426.76a5.222 5.222 0 0 1-1.739.247c-.986-.017-1.86-.266-2.623-.746-.762-.484-1.358-1.168-1.788-2.05-.425-.882-.628-1.93-.606-3.14.02-1.216.261-2.256.721-3.119.46-.866 1.08-1.527 1.859-1.98.779-.457 1.66-.677 2.641-.66.604.01 1.166.107 1.685.29.524.18.992.44 1.405.781a4.16 4.16 0 0 1 1.018 1.23c.266.48.442 1.025.527 1.639Zm2.813 10.936a3.467 3.467 0 0 1-.677-.073 2.13 2.13 0 0 1-.453-.13l.424-1.355c.302.086.572.126.81.12a.972.972 0 0 0 .632-.256c.188-.164.356-.433.503-.81l.216-.562-2.973-8.704 1.779.031 2.046 6.663.09.002 2.277-6.588 1.785.031-3.688 9.616c-.17.442-.385.814-.642 1.118a2.416 2.416 0 0 1-.913.684c-.35.15-.756.22-1.216.213Zm12.699-5.039 2.87-6.433 1.434.025-3.723 8.476-1.234-.022-3.353-8.599 1.417.025 2.589 6.528Zm-3.05-6.536-.149 8.538L26 19.688l.15-8.537 1.628.028Zm6.221 8.649.15-8.538 1.617.028-.15 8.538-1.617-.028Zm8.66-1.906 2.87-6.433 1.434.025-3.723 8.475-1.234-.021-3.353-8.6 1.418.025 2.588 6.529Zm-3.05-6.537-.149 8.538-1.628-.028.149-8.538 1.628.028Zm6.221 8.65.15-8.538 1.617.028-.149 8.538-1.618-.028Zm6.314.299a3.488 3.488 0 0 1-1.462-.326 2.472 2.472 0 0 1-1.024-.902c-.245-.39-.363-.864-.353-1.424.008-.482.108-.877.299-1.185.19-.308.445-.55.763-.726a3.918 3.918 0 0 1 1.063-.393c.39-.086.789-.15 1.193-.19l1.248-.123c.32-.035.552-.096.698-.182.146-.087.221-.23.225-.43v-.04c.009-.485-.122-.863-.391-1.135-.266-.271-.668-.412-1.205-.421-.56-.01-1.003.107-1.33.35-.322.238-.548.507-.675.805l-1.556-.383c.194-.516.472-.93.833-1.242a3.291 3.291 0 0 1 1.252-.679c.47-.14.962-.206 1.477-.197.341.006.702.054 1.082.142.384.084.74.235 1.07.452a2.4 2.4 0 0 1 .813.92c.208.393.307.901.296 1.524l-.099 5.67-1.623-.029.02-1.167-.066-.002a2.366 2.366 0 0 1-.495.626 2.571 2.571 0 0 1-.837.502c-.34.131-.745.193-1.216.185Zm.385-1.328c.46.008.854-.076 1.183-.252.333-.176.587-.408.763-.698.18-.294.272-.609.278-.946l.019-1.1c-.06.057-.176.111-.348.16a5.35 5.35 0 0 1-.574.118c-.216.03-.426.057-.63.083l-.513.058a4.119 4.119 0 0 0-.887.19 1.518 1.518 0 0 0-.64.406c-.16.175-.242.411-.247.708-.007.411.14.725.44.941.3.213.685.324 1.156.332Z"/><path fill="#fff" d="M10.293 48.48c-.943-.016-1.785-.207-2.524-.574-.738-.371-1.322-.872-1.75-1.502-.423-.63-.641-1.347-.656-2.149l2.547.044c.037.596.286 1.086.746 1.471.46.381 1.018.577 1.674.588.514.01.973-.1 1.379-.33.405-.228.726-.55.965-.966.238-.416.36-.892.364-1.43.015-.547-.093-1.035-.32-1.464a2.593 2.593 0 0 0-.953-1.014c-.406-.252-.875-.383-1.408-.393a3.37 3.37 0 0 0-1.285.219c-.422.157-.759.369-1.009.633l-2.363-.43.888-7.458 8.404.147-.038 2.193-6.233-.109-.484 3.834.085.002c.274-.312.658-.567 1.152-.766a4.02 4.02 0 0 1 1.619-.29c.877.016 1.656.237 2.338.664a4.402 4.402 0 0 1 1.597 1.726c.384.729.567 1.557.551 2.486-.017.958-.253 1.808-.71 2.55a4.705 4.705 0 0 1-1.863 1.73c-.785.41-1.69.607-2.713.589Zm8.104-.056 6.374-12.089.002-.099-7.152-.124.038-2.194 9.869.173-.04 2.242-6.368 12.139-2.723-.048Zm16.153.48a6.118 6.118 0 0 1-2.025-.396 4.774 4.774 0 0 1-1.762-1.198c-.519-.552-.926-1.279-1.222-2.18-.295-.906-.429-2.024-.401-3.354.022-1.24.173-2.344.454-3.311.281-.967.675-1.781 1.182-2.442a5.027 5.027 0 0 1 1.817-1.511c.709-.342 1.497-.505 2.365-.49.91.016 1.713.21 2.41.58.701.37 1.263.871 1.686 1.502.423.625.68 1.328.77 2.108l-2.582-.046c-.122-.558-.386-1.006-.79-1.344-.4-.342-.911-.518-1.534-.529-1.004-.017-1.785.405-2.343 1.268-.553.864-.845 2.057-.876 3.58l.099.002a3.63 3.63 0 0 1 .917-1.053c.373-.29.792-.512 1.257-.664.47-.157.964-.231 1.483-.222.849.015 1.607.23 2.274.648a4.41 4.41 0 0 1 1.584 1.705c.384.714.565 1.529.545 2.444-.012.953-.244 1.805-.696 2.556a4.724 4.724 0 0 1-1.864 1.751c-.79.42-1.706.62-2.748.596Zm.022-2.122c.514.009.976-.108 1.386-.351.41-.243.737-.575.98-.995a2.84 2.84 0 0 0 .372-1.423 2.815 2.815 0 0 0-.315-1.414 2.588 2.588 0 0 0-.924-1.014 2.578 2.578 0 0 0-1.366-.392c-.382-.006-.74.06-1.072.201-.333.14-.624.338-.873.593-.25.25-.449.545-.596.882-.143.332-.22.69-.231 1.071-.004.505.105.972.33 1.4.223.429.535.774.937 1.036a2.54 2.54 0 0 0 1.372.406Zm17.568 2.43c-.943-.017-1.784-.209-2.523-.576-.74-.37-1.322-.872-1.75-1.502a3.895 3.895 0 0 1-.656-2.148l2.547.044c.036.595.285 1.085.745 1.47.46.382 1.019.578 1.674.589.514.009.974-.101 1.379-.33s.727-.55.965-.967c.238-.415.36-.892.365-1.43.014-.547-.093-1.035-.322-1.463a2.593 2.593 0 0 0-.951-1.015c-.407-.252-.876-.383-1.409-.392a3.374 3.374 0 0 0-1.285.218c-.422.158-.758.369-1.008.633l-2.364-.43.888-7.457 8.404.146-.038 2.193-6.233-.108-.484 3.834.085.001c.274-.311.658-.566 1.153-.765a4.019 4.019 0 0 1 1.618-.29c.877.015 1.657.236 2.338.663a4.403 4.403 0 0 1 1.597 1.726c.384.729.568 1.558.551 2.487-.016.957-.253 1.807-.71 2.55a4.704 4.704 0 0 1-1.862 1.729c-.786.41-1.69.607-2.714.59ZM65.86 34.76l-.254 14.488-2.624-.046.208-11.934-.085-.002-3.426 2.106.042-2.405 3.64-2.25 2.498.043Zm8.776 14.922c-1.165-.02-2.16-.333-2.984-.937-.82-.609-1.444-1.476-1.873-2.601-.424-1.13-.622-2.486-.594-4.066.032-1.58.28-2.92.742-4.02.468-1.106 1.122-1.943 1.962-2.514.845-.57 1.848-.845 3.008-.825 1.16.02 2.152.33 2.977.93.825.6 1.449 1.46 1.873 2.58.428 1.12.629 2.469.601 4.044-.027 1.585-.275 2.935-.743 4.05-.462 1.11-1.116 1.952-1.962 2.527-.84.575-1.843.852-3.007.832Zm.038-2.215c.906.016 1.628-.417 2.167-1.3.544-.886.831-2.2.862-3.94.02-1.15-.084-2.12-.31-2.907-.228-.787-.557-1.382-.989-1.786a2.231 2.231 0 0 0-1.545-.629c-.901-.015-1.621.42-2.16 1.307-.54.882-.826 2.187-.861 3.913-.025 1.155.074 2.129.296 2.92.226.792.555 1.392.987 1.801.432.404.95.611 1.553.622Zm10.404.14-.106.776a11.57 11.57 0 0 1-.385 1.805c-.176.615-.36 1.18-.553 1.696-.193.516-.349.92-.467 1.216l-1.726-.03.289-1.17c.127-.493.25-1.047.369-1.663.119-.616.203-1.242.252-1.878l.063-.792 2.264.04Zm7.878-12.572a5.954 5.954 0 0 1 2.017.403 4.7 4.7 0 0 1 1.763 1.191c.518.542.926 1.264 1.221 2.166.296.901.432 2.012.41 3.333-.018 1.245-.17 2.356-.455 3.332-.281.972-.675 1.79-1.182 2.456a5.028 5.028 0 0 1-1.817 1.511c-.704.342-1.493.505-2.365.49-.915-.016-1.723-.21-2.424-.58a4.573 4.573 0 0 1-1.68-1.502 4.68 4.68 0 0 1-.762-2.15l2.582.045c.122.578.383 1.04.783 1.386.404.342.918.519 1.54.53 1.005.017 1.786-.406 2.344-1.269.557-.863.85-2.07.877-3.622l-.1-.001a3.718 3.718 0 0 1-.917 1.06c-.373.29-.794.511-1.264.664a4.457 4.457 0 0 1-1.475.215c-.85-.015-1.61-.231-2.282-.649a4.442 4.442 0 0 1-1.577-1.697c-.379-.715-.563-1.527-.552-2.437.017-.944.249-1.786.696-2.529a4.724 4.724 0 0 1 1.863-1.75c.79-.425 1.71-.624 2.756-.596Zm-.03 2.122a2.6 2.6 0 0 0-1.386.35c-.41.24-.736.568-.98.989a2.87 2.87 0 0 0-.37 1.401c-.005.515.102.983.321 1.407.224.424.532.762.924 1.014.397.252.852.383 1.366.392.382.007.74-.06 1.072-.2.333-.141.624-.339.874-.594.254-.26.453-.556.596-.888.147-.333.221-.685.223-1.058a2.756 2.756 0 0 0-.33-1.379 2.732 2.732 0 0 0-.937-1.028 2.518 2.518 0 0 0-1.373-.406Zm7.447 10.009.036-2.087 6.318-9.606 1.74.03-.052 2.972-1.061-.019-4.253 6.486-.002.113 8.581.15-.037 2.158-11.27-.197Zm6.865 2.809.058-3.325.044-.933.179-10.23 2.476.043-.253 14.489-2.504-.044Zm11.517 4.277.26-14.941 2.519.044-.031 1.797.148.002a4.72 4.72 0 0 1 .574-.832c.246-.297.575-.549.989-.754.415-.21.94-.309 1.577-.298a4.14 4.14 0 0 1 2.259.683c.672.437 1.199 1.076 1.58 1.917.387.838.569 1.86.548 3.067-.02 1.193-.234 2.204-.64 3.032-.406.828-.95 1.455-1.632 1.882-.682.427-1.45.633-2.304.618-.622-.01-1.137-.124-1.544-.338a3.16 3.16 0 0 1-.977-.767 4.847 4.847 0 0 1-.558-.852l-.106-.002-.101 5.787-2.561-.045Zm2.677-9.464c-.012.703.076 1.32.265 1.852.194.531.476.949.849 1.253.376.299.836.453 1.378.462.566.01 1.043-.132 1.43-.427.388-.3.683-.713.885-1.238.208-.53.317-1.133.329-1.813.012-.674-.074-1.275-.259-1.802-.184-.526-.464-.942-.841-1.245-.377-.304-.851-.461-1.421-.471-.548-.01-1.015.126-1.402.407-.387.281-.684.68-.891 1.195-.202.515-.31 1.124-.322 1.827Zm10.996 9.703a5.179 5.179 0 0 1-.968-.102 3.587 3.587 0 0 1-.697-.196l.629-1.985c.371.115.702.173.995.173.292 0 .551-.087.776-.262.229-.17.425-.46.588-.867l.23-.584-3.747-11.161 2.716.047 2.362 8.25.113.002 2.654-8.162 2.724.047-4.563 12.106a4.886 4.886 0 0 1-.833 1.465 3.28 3.28 0 0 1-1.247.926c-.485.214-1.062.314-1.732.303Zm18.926-18.635.863 1.67c-.321.269-.678.46-1.072.576a6.102 6.102 0 0 1-1.384.217 43.95 43.95 0 0 1-1.869.038c-.811.005-1.476.147-1.996.425-.519.279-.92.708-1.204 1.288-.284.576-.476 1.313-.576 2.212l.12.003a3.565 3.565 0 0 1 1.456-1.497c.619-.338 1.341-.5 2.166-.485.901.015 1.692.232 2.374.65.686.412 1.216 1.004 1.589 1.775.379.771.558 1.699.539 2.784-.019 1.117-.246 2.083-.68 2.896a4.498 4.498 0 0 1-1.823 1.858c-.776.43-1.693.636-2.749.617-1.052-.018-1.963-.263-2.733-.734-.766-.476-1.353-1.168-1.762-2.076-.403-.913-.594-2.032-.571-3.357l.017-.976c.045-2.557.555-4.456 1.529-5.699.975-1.242 2.399-1.86 4.271-1.85.557 0 1.055.007 1.493.019.444.012.831-.002 1.162-.043.331-.042.611-.145.84-.311Zm-4.196 12.976c.523.009.978-.118 1.365-.38.387-.267.686-.648.897-1.145.217-.496.331-1.086.343-1.77.011-.674-.082-1.25-.282-1.724-.199-.48-.487-.849-.865-1.105-.378-.257-.831-.39-1.359-.4a2.59 2.59 0 0 0-1.072.194 2.163 2.163 0 0 0-.817.609 2.9 2.9 0 0 0-.527.989c-.125.389-.196.838-.214 1.347-.018 1.024.199 1.841.65 2.453.452.607 1.079.918 1.881.932Zm8.864 2.15a1.515 1.515 0 0 1-1.095-.472 1.465 1.465 0 0 1-.434-1.111 1.45 1.45 0 0 1 .472-1.082 1.517 1.517 0 0 1 1.112-.434c.415.008.773.165 1.074.472a1.487 1.487 0 0 1 .215 1.88 1.632 1.632 0 0 1-.576.555 1.47 1.47 0 0 1-.768.192Z"/><rect width="218.771" height="30.386" x="3.633" y="67.601" fill="#DEF1DD" rx="5.693" transform="rotate(1 3.633 67.6)"/><path fill="#388A0E" d="m19.152 86.655.131-7.515 1.496.026-.132 7.515-1.495-.026Zm-2.954-3.066.026-1.49 7.515.132-.026 1.49-7.515-.132Zm13.964-6.372a4.407 4.407 0 0 1 1.496.304c.49.19.93.494 1.319.912.393.419.702.98.927 1.685.228.7.335 1.57.321 2.607-.017.997-.133 1.883-.347 2.658-.213.77-.512 1.42-.895 1.947a3.77 3.77 0 0 1-1.372 1.194c-.535.268-1.134.397-1.797.385-.679-.012-1.279-.156-1.8-.431a3.442 3.442 0 0 1-1.265-1.13 3.66 3.66 0 0 1-.588-1.644l1.695.03c.103.49.322.891.657 1.2.34.307.782.465 1.327.474.833.015 1.49-.337 1.97-1.055.48-.722.732-1.737.759-3.045l-.089-.001a3.074 3.074 0 0 1-.737.81c-.29.224-.613.397-.97.516-.359.12-.74.177-1.144.17a3.413 3.413 0 0 1-1.781-.515 3.567 3.567 0 0 1-1.26-1.351c-.31-.569-.458-1.215-.445-1.937a3.953 3.953 0 0 1 .523-1.948c.34-.58.808-1.035 1.403-1.366.599-.334 1.297-.49 2.093-.47Zm-.02 1.445a2.19 2.19 0 0 0-1.178.302 2.285 2.285 0 0 0-.832.847 2.428 2.428 0 0 0-.321 1.195 2.5 2.5 0 0 0 .268 1.206c.19.36.452.647.785.865a2.2 2.2 0 0 0 1.162.331c.326.006.631-.052.915-.173a2.31 2.31 0 0 0 .748-.51c.216-.222.385-.474.509-.758.123-.283.188-.582.193-.897a2.36 2.36 0 0 0-.28-1.173 2.338 2.338 0 0 0-.796-.881 2.126 2.126 0 0 0-1.173-.354Zm5.985 10.202.021-1.245 3.922-3.924c.419-.427.764-.8 1.037-1.122.276-.325.484-.635.622-.929.139-.294.211-.608.217-.941a1.759 1.759 0 0 0-.25-.983 1.745 1.745 0 0 0-.717-.652 2.316 2.316 0 0 0-1.035-.246 2.184 2.184 0 0 0-1.072.231 1.714 1.714 0 0 0-.713.694 2.224 2.224 0 0 0-.263 1.063l-1.64-.029c.013-.693.182-1.296.51-1.809A3.248 3.248 0 0 1 38.1 77.79c.56-.28 1.195-.413 1.903-.4.715.012 1.343.166 1.883.46.543.292.964.684 1.263 1.179.3.49.444 1.042.433 1.653a3.351 3.351 0 0 1-.26 1.236c-.163.4-.444.846-.841 1.336-.398.486-.95 1.075-1.655 1.767l-2.303 2.329-.002.083 5.125.09-.026 1.472-7.492-.13Zm17.701.498c-.878-.02-1.624-.264-2.239-.734-.614-.47-1.079-1.148-1.393-2.032-.315-.884-.461-1.945-.44-3.183.022-1.233.205-2.285.55-3.154.35-.868.839-1.527 1.47-1.976.634-.448 1.386-.665 2.257-.65.871.016 1.614.26 2.228.734.615.47 1.08 1.146 1.394 2.026.318.877.466 1.932.445 3.166-.022 1.242-.205 2.299-.55 3.171-.345.869-.833 1.53-1.464 1.982-.63.448-1.383.665-2.258.65Zm.026-1.484c.771.013 1.38-.353 1.827-1.097.45-.745.688-1.829.712-3.252.017-.945-.07-1.745-.258-2.4-.185-.66-.46-1.161-.824-1.505a1.861 1.861 0 0 0-1.303-.534c-.767-.014-1.376.354-1.827 1.102-.45.748-.69 1.832-.718 3.251-.017.949.068 1.753.253 2.412.188.656.463 1.156.824 1.5.361.34.8.514 1.314.523Zm5.918-.826.025-1.39 5.055-7.684 1.094.019-.035 2.045-.695-.012-3.616 5.508-.001.09 6.742.117-.025 1.456-8.544-.149Zm5.359 2.318.046-2.646.022-.633.142-8.105 1.628.029-.198 11.384-1.64-.029Zm9.044.313c-.764-.013-1.443-.156-2.04-.43-.591-.273-1.057-.647-1.397-1.12a2.907 2.907 0 0 1-.528-1.643l1.746.03c.016.338.124.632.323.884.204.248.47.442.802.581.331.14.7.213 1.108.22.449.008.847-.063 1.194-.213.35-.15.627-.362.828-.636.202-.278.305-.6.312-.968a1.747 1.747 0 0 0-.277-1.01c-.188-.297-.467-.532-.839-.705-.367-.173-.814-.264-1.34-.274l-.962-.016.024-1.401.962.017c.422.007.794-.062 1.116-.209.325-.146.58-.353.767-.62.186-.271.282-.59.289-.957a1.717 1.717 0 0 0-.223-.921 1.606 1.606 0 0 0-.656-.63c-.283-.152-.619-.232-1.008-.24a2.627 2.627 0 0 0-1.043.188 1.92 1.92 0 0 0-.788.565 1.486 1.486 0 0 0-.338.89l-1.662-.03c.029-.615.22-1.153.573-1.613.356-.461.822-.818 1.397-1.071a4.485 4.485 0 0 1 1.908-.362c.73.013 1.358.167 1.883.461.528.291.933.674 1.214 1.15.284.476.42.993.407 1.553-.008.637-.195 1.175-.563 1.614-.363.438-.843.728-1.438.87l-.002.089c.754.128 1.335.438 1.741.93.41.494.607 1.1.591 1.818a2.813 2.813 0 0 1-.552 1.675c-.357.49-.84.873-1.449 1.148-.609.271-1.302.4-2.08.386Zm8.003-1.572-.094.604a9.743 9.743 0 0 1-.308 1.385c-.138.483-.28.93-.429 1.343-.144.413-.263.74-.356.984l-1.179-.02.217-.931c.092-.388.183-.822.273-1.302.09-.48.16-.97.209-1.47l.066-.621 1.601.028Zm5.87 1.815c-.697-.013-1.321-.157-1.873-.433a3.416 3.416 0 0 1-1.303-1.135 2.936 2.936 0 0 1-.5-1.621l1.668.029c.032.49.241.895.629 1.217.387.322.855.488 1.403.498.438.007.827-.086 1.167-.28.345-.198.617-.473.816-.826.202-.352.307-.756.315-1.212a2.525 2.525 0 0 0-.278-1.245 2.215 2.215 0 0 0-.814-.87 2.34 2.34 0 0 0-1.195-.338 3.21 3.21 0 0 0-1.042.16c-.35.112-.635.263-.853.452l-1.57-.261.74-5.725 6.26.109-.027 1.473-4.83-.084-.417 3.178.067.002c.226-.212.524-.386.893-.524.373-.138.77-.204 1.193-.196.693.012 1.307.188 1.843.527.539.34.959.797 1.26 1.373.305.572.45 1.227.433 1.965-.01.737-.188 1.392-.535 1.964a3.624 3.624 0 0 1-1.413 1.343c-.595.32-1.274.473-2.038.46Zm9.706.17c-.697-.013-1.32-.157-1.872-.434a3.415 3.415 0 0 1-1.303-1.135 2.936 2.936 0 0 1-.5-1.62l1.667.028c.032.49.242.896.63 1.218.387.322.855.487 1.403.497.437.007.826-.086 1.167-.28.344-.198.616-.473.815-.825.203-.353.308-.757.316-1.213a2.528 2.528 0 0 0-.279-1.244 2.217 2.217 0 0 0-.813-.87 2.34 2.34 0 0 0-1.195-.339 3.209 3.209 0 0 0-1.043.16c-.35.113-.634.263-.853.452l-1.569-.26.74-5.726 6.259.11-.026 1.472-4.83-.084-.417 3.179.066.001c.227-.211.524-.386.894-.524.373-.138.77-.203 1.193-.196.693.012 1.307.188 1.842.527.539.34.959.797 1.261 1.373.305.573.449 1.228.432 1.965-.009.738-.187 1.392-.534 1.965a3.628 3.628 0 0 1-1.414 1.343c-.595.32-1.274.472-2.037.46Zm10.06 3.222.205-11.74 1.623.028-.024 1.385.139.002c.1-.176.242-.38.428-.61.185-.23.441-.43.766-.598.326-.172.754-.254 1.284-.245a3.334 3.334 0 0 1 1.836.555c.535.358.95.868 1.246 1.529.3.661.442 1.453.426 2.376-.016.923-.184 1.711-.503 2.365-.319.65-.75 1.15-1.294 1.496-.543.342-1.159.508-1.849.496-.518-.01-.941-.104-1.268-.284a2.405 2.405 0 0 1-.756-.625 4.583 4.583 0 0 1-.418-.63l-.1-.001-.079 4.53-1.662-.03Zm1.759-7.442c-.01.6.068 1.127.234 1.583.166.455.412.813.737 1.075.326.257.728.39 1.206.399.496.008.914-.116 1.252-.373.338-.261.596-.618.775-1.071a4.29 4.29 0 0 0 .288-1.535 4.256 4.256 0 0 0-.23-1.522 2.314 2.314 0 0 0-.737-1.075c-.329-.265-.744-.402-1.244-.41-.482-.01-.891.108-1.229.35-.334.243-.591.585-.769 1.027-.178.441-.272.959-.283 1.552Zm8.662 7.624a3.467 3.467 0 0 1-.677-.073 2.155 2.155 0 0 1-.454-.13l.424-1.355c.303.086.573.126.81.12a.975.975 0 0 0 .633-.257c.188-.163.356-.433.503-.808l.216-.564-2.973-8.703 1.779.031 2.046 6.663.089.002 2.278-6.588 1.784.031-3.687 9.616a3.872 3.872 0 0 1-.642 1.118 2.424 2.424 0 0 1-.913.684c-.351.15-.756.22-1.216.213Zm14.663-14.668.671 1.063a2.27 2.27 0 0 1-.882.485c-.324.09-.697.145-1.12.163-.423.015-.907.027-1.452.036-.616.008-1.124.133-1.525.374-.4.238-.712.596-.936 1.073-.219.475-.367 1.073-.443 1.794l.106.002c.287-.525.68-.915 1.177-1.17a3.517 3.517 0 0 1 1.68-.365c.689.012 1.3.18 1.832.505.531.324.946.793 1.243 1.406.301.61.443 1.352.428 2.226-.015.886-.192 1.648-.529 2.287a3.543 3.543 0 0 1-1.394 1.472c-.591.338-1.285.5-2.082.486-.797-.014-1.489-.206-2.075-.576-.583-.373-1.031-.918-1.345-1.636-.31-.717-.456-1.598-.438-2.643l.015-.845c.034-1.953.408-3.416 1.122-4.39.714-.973 1.764-1.46 3.15-1.462.449-.004.849.002 1.201.015.352.01.66-.001.924-.034.267-.036.491-.125.672-.266Zm-3.196 10.442c.463.008.863-.102 1.201-.33.341-.23.607-.562.796-.992.189-.43.289-.94.299-1.53.01-.578-.072-1.07-.247-1.477a2.035 2.035 0 0 0-.762-.936c-.333-.221-.735-.336-1.206-.344a2.27 2.27 0 0 0-.937.167 1.893 1.893 0 0 0-.715.516 2.53 2.53 0 0 0-.465.848c-.11.332-.172.714-.187 1.148-.016.882.174 1.587.569 2.117.398.53.95.8 1.654.813Zm6.852 1.448a1.08 1.08 0 0 1-.778-.336 1.08 1.08 0 0 1-.314-.795c.005-.304.119-.561.342-.772.222-.215.485-.32.789-.315.304.006.563.12.778.342.215.219.32.48.315.784-.004.204-.059.39-.166.559a1.154 1.154 0 0 1-.407.393 1.062 1.062 0 0 1-.559.14Zm10.893.257c-.801-.014-1.496-.21-2.086-.587a3.705 3.705 0 0 1-1.363-1.564c-.318-.665-.47-1.439-.454-2.32.015-.886.193-1.658.535-2.316a3.7 3.7 0 0 1 1.416-1.52c.603-.357 1.305-.528 2.106-.514.8.014 1.495.21 2.086.587.59.377 1.044.9 1.362 1.57.318.668.47 1.446.454 2.331-.015.882-.193 1.65-.535 2.304a3.708 3.708 0 0 1-1.416 1.516c-.603.356-1.305.527-2.105.513Zm.03-1.395c.518.01.951-.12 1.296-.389.346-.268.604-.629.775-1.082.175-.453.267-.953.277-1.502a4.346 4.346 0 0 0-.224-1.505 2.446 2.446 0 0 0-.737-1.12c-.336-.283-.763-.43-1.282-.439-.523-.009-.959.123-1.308.395a2.485 2.485 0 0 0-.781 1.093 4.44 4.44 0 0 0-.271 1.496 4.437 4.437 0 0 0 .219 1.51c.158.46.406.829.742 1.109.34.28.771.425 1.294.434Zm4.903-5.797.025-1.434 7.204.126-.025 1.434-2.785-.049-.124 7.104-1.623-.028.124-7.104-2.796-.049Zm12.981 7.332.149-8.537 3.54.061c.964.017 1.724.236 2.28.657.556.418.828.977.816 1.677-.009.5-.175.894-.499 1.181-.324.287-.75.477-1.278.567.381.052.729.172 1.045.363.315.188.567.437.754.748.191.31.283.679.275 1.105-.008.452-.131.85-.371 1.195-.239.34-.583.605-1.031.794-.445.184-.978.272-1.601.26l-4.079-.07Zm1.586-1.362 2.518.044c.411.007.735-.085.972-.278.237-.192.358-.457.364-.794.007-.397-.104-.71-.334-.94-.229-.234-.55-.354-.961-.361l-2.518-.044-.041 2.373Zm.062-3.59 1.996.034c.311.006.579-.034.803-.12.227-.084.402-.207.523-.368a.971.971 0 0 0 .194-.586.885.885 0 0 0-.392-.78c-.268-.19-.637-.29-1.107-.297l-1.979-.035-.038 2.151Zm14.22-3.311-.149 8.538-1.623-.029.149-8.537 1.623.028Zm-.775 3.95-.025 1.435c-.258.1-.53.187-.816.264a7.04 7.04 0 0 1-1.889.217c-1.056-.018-1.891-.29-2.505-.817-.613-.53-.911-1.328-.892-2.395l.049-2.79 1.617.028-.048 2.79c-.008.404.061.734.205.988.143.255.351.444.624.567.272.123.597.188.975.195.5.009.962-.03 1.386-.115.428-.089.868-.21 1.319-.366Zm6.514 4.863c-.842-.015-1.563-.207-2.164-.577a3.653 3.653 0 0 1-1.374-1.553c-.315-.665-.465-1.44-.449-2.327.015-.874.192-1.642.529-2.303a3.802 3.802 0 0 1 1.406-1.538c.6-.364 1.296-.54 2.089-.525.482.008.947.096 1.396.263.45.167.851.425 1.205.772.353.347.629.795.827 1.343.198.545.29 1.204.277 1.979l-.011.589-6.786-.118.021-1.246 5.159.09a2.461 2.461 0 0 0-.247-1.166 2.017 2.017 0 0 0-.736-.819c-.316-.202-.688-.307-1.118-.314-.467-.008-.877.1-1.229.323-.348.22-.62.512-.816.875a2.57 2.57 0 0 0-.298 1.18l-.017.972c-.01.571.081 1.058.274 1.462.197.404.475.714.835.932.359.214.782.325 1.267.333.315.006.603-.034.864-.118a1.78 1.78 0 0 0 1.125-1.065l1.568.311a2.85 2.85 0 0 1-.699 1.206c-.328.339-.739.6-1.231.785-.489.18-1.045.265-1.667.254Zm5.454 3.126.205-11.74 1.623.028-.024 1.384.139.003c.099-.176.242-.38.427-.61.186-.23.442-.43.767-.598.325-.172.753-.254 1.283-.245a3.336 3.336 0 0 1 1.836.555c.535.358.951.867 1.247 1.529.3.661.442 1.453.426 2.376-.017.922-.184 1.71-.503 2.365-.319.65-.751 1.15-1.294 1.496-.544.342-1.16.508-1.849.495-.519-.009-.942-.103-1.268-.283a2.4 2.4 0 0 1-.757-.625 4.66 4.66 0 0 1-.417-.63l-.1-.002-.079 4.53-1.662-.028Zm1.759-7.443c-.011.6.067 1.128.234 1.584.166.455.412.813.737 1.074.325.258.727.391 1.205.4.497.008.914-.116 1.252-.373.338-.261.597-.618.775-1.071.182-.453.278-.965.288-1.535a4.234 4.234 0 0 0-.229-1.522c-.159-.452-.405-.81-.737-1.075-.329-.265-.744-.402-1.244-.411-.482-.008-.892.109-1.23.351-.334.243-.59.585-.768 1.026-.178.442-.273.96-.283 1.552Zm10.439 4.642a3.482 3.482 0 0 1-1.462-.326 2.47 2.47 0 0 1-1.024-.902c-.246-.39-.363-.864-.354-1.424.009-.482.108-.877.299-1.185.191-.308.445-.55.763-.726a3.92 3.92 0 0 1 1.064-.393c.39-.085.788-.149 1.193-.19l1.247-.123c.32-.035.553-.096.699-.182.146-.087.221-.23.224-.43l.001-.039c.008-.486-.122-.864-.392-1.136-.266-.271-.667-.412-1.205-.421-.559-.01-1.002.107-1.329.35-.323.238-.548.507-.676.805l-1.556-.383c.195-.516.473-.93.834-1.242a3.288 3.288 0 0 1 1.252-.679c.469-.14.961-.206 1.477-.197.34.006.701.053 1.081.142.384.084.741.235 1.071.452.334.217.604.524.812.92.209.393.307.901.296 1.524l-.099 5.67-1.623-.029.021-1.167-.067-.001a2.353 2.353 0 0 1-.495.625 2.558 2.558 0 0 1-.837.502c-.339.132-.745.193-1.215.185Zm.384-1.328c.46.008.854-.076 1.184-.252a1.9 1.9 0 0 0 .762-.698 1.84 1.84 0 0 0 .278-.946l.019-1.1c-.06.058-.176.111-.347.16a5.378 5.378 0 0 1-.575.118c-.215.03-.425.057-.63.084a64.68 64.68 0 0 0-.512.057 4.132 4.132 0 0 0-.888.19 1.526 1.526 0 0 0-.641.406c-.158.175-.24.411-.245.708-.008.411.139.725.439.942.3.212.686.323 1.156.331Z"/><path fill="#E2DAE6" d="m11.563 155.633-3.325-4.602-1.079-.018-.08 4.542-1.528-.027.177-10.133 1.529.027-.075 4.279.5.009 3.904-4.213 1.865.033-4.131 4.466 4.108 5.67-1.865-.033Zm5.803.255c-.712-.013-1.331-.187-1.857-.523-.525-.336-.93-.8-1.213-1.392-.283-.592-.418-1.281-.404-2.066.014-.788.173-1.475.476-2.06a3.291 3.291 0 0 1 1.261-1.354c.537-.318 1.162-.47 1.874-.458.713.013 1.332.187 1.857.523.526.336.93.801 1.213 1.397.283.596.418 1.287.404 2.076-.013.785-.172 1.468-.476 2.05a3.303 3.303 0 0 1-1.26 1.349c-.538.318-1.162.47-1.875.458Zm.027-1.242c.462.008.846-.107 1.154-.346.308-.239.538-.56.69-.963.156-.403.238-.849.246-1.337a3.862 3.862 0 0 0-.2-1.34 2.17 2.17 0 0 0-.655-.996c-.299-.253-.68-.383-1.141-.391-.465-.009-.853.108-1.165.35-.307.242-.539.567-.695.973a3.938 3.938 0 0 0-.24 1.332c-.01.488.056.937.194 1.345.141.408.361.737.66.987.303.249.687.378 1.152.386Zm4.571 1.169.018-1.282.272.005a.98.98 0 0 0 .532-.125c.146-.089.268-.242.364-.459.096-.216.172-.515.228-.896.057-.385.101-.87.135-1.453l.192-3.362 5.304.092-.133 7.6-1.45-.025.111-6.323-2.484-.044-.164 2.581c-.04.626-.114 1.173-.221 1.639-.104.467-.251.855-.441 1.165a1.83 1.83 0 0 1-.725.686c-.293.146-.647.216-1.063.209l-.475-.008Zm8.287.144.017-1.281.272.004a.972.972 0 0 0 .532-.124c.147-.09.268-.243.364-.459.096-.216.173-.515.229-.897.056-.385.1-.869.134-1.452l.192-3.363 5.304.093-.132 7.6-1.45-.025.11-6.324-2.483-.043-.164 2.581c-.04.626-.115 1.172-.222 1.639-.104.467-.25.855-.44 1.165-.191.307-.433.535-.726.685-.292.147-.647.217-1.062.209l-.475-.008Zm10.37-1.893 3.447-5.468 1.593.028-.133 7.6-1.45-.025.097-5.532-3.431 5.473-1.608-.028.132-7.6 1.45.026-.096 5.526Zm13.13-5.299-.133 7.6-1.445-.025.133-7.6 1.445.025Zm-.69 3.517-.023 1.277c-.229.088-.47.166-.726.234a6.416 6.416 0 0 1-1.681.194c-.94-.017-1.684-.259-2.23-.727-.546-.472-.81-1.182-.794-2.132l.043-2.484 1.44.025-.043 2.484c-.006.359.054.652.182.879.129.227.314.395.556.505.242.109.531.167.868.173.445.008.857-.026 1.234-.102a9.65 9.65 0 0 0 1.174-.326Zm5.798 4.328c-.749-.013-1.39-.184-1.926-.514a3.251 3.251 0 0 1-1.223-1.382c-.28-.592-.414-1.283-.4-2.071.014-.778.17-1.462.471-2.051a3.386 3.386 0 0 1 1.252-1.369c.533-.324 1.153-.479 1.86-.467.428.007.842.086 1.242.234.4.149.758.378 1.072.687.315.309.56.708.736 1.196.177.485.259 1.072.247 1.761l-.01.525-6.04-.106.019-1.108 4.591.08a2.185 2.185 0 0 0-.219-1.038 1.799 1.799 0 0 0-.655-.729 1.868 1.868 0 0 0-.995-.28 1.935 1.935 0 0 0-1.094.288c-.31.196-.553.456-.727.779-.17.321-.259.67-.265 1.05l-.016.866c-.008.508.073.941.245 1.301.175.359.423.636.743.829.32.191.696.29 1.128.297.28.005.537-.03.77-.105a1.593 1.593 0 0 0 1.001-.948l1.395.277c-.119.41-.327.768-.622 1.073a2.91 2.91 0 0 1-1.096.698c-.435.161-.93.237-1.484.227Zm8.103.141c-.735-.012-1.366-.19-1.891-.532a3.315 3.315 0 0 1-1.193-1.412c-.273-.595-.403-1.274-.39-2.036.014-.772.17-1.451.471-2.036.3-.589.718-1.045 1.251-1.369.534-.324 1.159-.48 1.875-.467.577.01 1.09.126 1.538.348.448.219.807.523 1.078.91.273.388.432.838.476 1.35l-1.44-.025a1.723 1.723 0 0 0-.528-.93c-.276-.262-.65-.398-1.122-.406a1.842 1.842 0 0 0-1.089.308c-.31.209-.555.511-.733.908-.179.392-.273.859-.282 1.4-.01.554.066 1.034.227 1.44.161.405.393.721.696.947.306.227.67.343 1.088.351.28.005.535-.042.765-.14a1.57 1.57 0 0 0 .586-.44 1.7 1.7 0 0 0 .344-.697l1.44.025c-.061.49-.229.926-.503 1.308a2.762 2.762 0 0 1-1.09.891c-.449.214-.973.315-1.574.304Zm4.242-6.404.023-1.277 6.412.112-.022 1.277-2.48-.044-.11 6.324-1.444-.025.11-6.324-2.489-.043Zm7.867 6.462.133-7.6 3.152.055c.857.015 1.533.21 2.028.585.495.372.738.869.727 1.493-.008.445-.156.796-.444 1.051-.289.256-.668.424-1.138.505.34.045.65.153.93.323.281.167.505.388.672.665.17.277.251.605.245.984a1.877 1.877 0 0 1-.33 1.064c-.214.303-.52.538-.919.706-.395.165-.87.242-1.424.233l-3.632-.064Zm1.412-1.212 2.241.039c.367.006.655-.076.866-.247.21-.172.319-.407.324-.707.006-.353-.093-.632-.297-.837-.204-.208-.49-.316-.856-.322l-2.241-.039-.037 2.113Zm.056-3.197 1.776.031c.277.005.515-.03.715-.106.202-.076.358-.185.466-.328a.865.865 0 0 0 .172-.522.788.788 0 0 0-.35-.694c-.237-.169-.565-.257-.984-.265l-1.762-.03-.033 1.914Zm9.622 4.756c-.712-.012-1.331-.186-1.856-.522-.526-.336-.93-.8-1.213-1.392-.284-.592-.418-1.281-.405-2.066.014-.789.173-1.475.477-2.061a3.303 3.303 0 0 1 1.26-1.354c.537-.317 1.162-.469 1.874-.457.713.013 1.332.187 1.857.523.526.335.93.801 1.213 1.397.284.595.418 1.287.404 2.075-.013.786-.172 1.469-.476 2.051a3.302 3.302 0 0 1-1.26 1.349c-.537.317-1.162.47-1.875.457Zm.027-1.241c.462.008.847-.108 1.154-.347.308-.238.538-.559.69-.963.156-.403.238-.848.246-1.337a3.858 3.858 0 0 0-.199-1.339 2.178 2.178 0 0 0-.656-.997c-.299-.252-.68-.383-1.141-.391-.465-.008-.853.109-1.164.351-.308.242-.54.566-.695.973a3.938 3.938 0 0 0-.242 1.332c-.008.488.057.936.195 1.345.141.408.361.737.66.986.303.25.687.378 1.152.387Z"/><path fill="#fff" d="M9.77 180.915c-.906-.016-1.71-.186-2.41-.509-.695-.322-1.242-.765-1.64-1.326a3.362 3.362 0 0 1-.614-1.932l2.367.042c.015.348.126.655.33.919.206.259.482.464.828.613a3.07 3.07 0 0 0 1.168.234c.461.008.872-.064 1.232-.218.36-.157.643-.379.85-.665.206-.286.31-.618.313-.996a1.736 1.736 0 0 0-.285-1.038c-.2-.302-.494-.54-.882-.715-.383-.175-.847-.267-1.393-.276l-1.14-.02.031-1.801 1.14.02c.45.008.843-.063 1.182-.213.343-.149.613-.363.811-.641.198-.282.298-.61.3-.983a1.72 1.72 0 0 0-.228-.956 1.667 1.667 0 0 0-.688-.648 2.302 2.302 0 0 0-1.048-.245 2.769 2.769 0 0 0-1.1.195 1.995 1.995 0 0 0-.822.597c-.21.256-.325.565-.344.926l-2.248-.039c.03-.722.248-1.352.656-1.891.413-.543.958-.962 1.635-1.257.677-.299 1.433-.441 2.269-.426.86.015 1.605.19 2.233.524.633.33 1.118.769 1.457 1.317.34.547.503 1.149.492 1.804-.009.726-.233 1.331-.675 1.815-.436.483-1.004.795-1.704.934l-.002.1c.905.142 1.594.49 2.067 1.044.478.55.707 1.228.689 2.034a3.237 3.237 0 0 1-.651 1.929c-.417.56-.987.995-1.711 1.306-.72.31-1.54.458-2.464.442Zm11.507.201c-.936-.017-1.764-.189-2.485-.516-.717-.328-1.276-.768-1.678-1.321a3.032 3.032 0 0 1-.572-1.881 3.096 3.096 0 0 1 .379-1.486c.247-.449.577-.821.99-1.117a3.128 3.128 0 0 1 1.383-.561l.001-.088a2.731 2.731 0 0 1-1.594-1.042 2.928 2.928 0 0 1-.573-1.856 2.935 2.935 0 0 1 .585-1.766c.383-.514.902-.915 1.558-1.201.656-.291 1.402-.429 2.238-.415.827.015 1.56.179 2.202.492.646.309 1.15.728 1.515 1.255.369.527.547 1.122.536 1.786a2.919 2.919 0 0 1-.656 1.834c-.42.522-.957.85-1.61.986l-.002.088c.502.093.952.296 1.35.609.402.31.718.693.95 1.151.235.457.348.957.339 1.499a3.042 3.042 0 0 1-.65 1.859c-.42.539-.995.959-1.723 1.261-.723.303-1.55.446-2.483.43Zm.032-1.801c.482.008.904-.067 1.264-.224.36-.162.64-.392.843-.691.203-.299.31-.645.32-1.04a1.959 1.959 0 0 0-.302-1.095c-.2-.323-.479-.577-.837-.764a2.667 2.667 0 0 0-1.217-.292 2.727 2.727 0 0 0-1.239.249 2.157 2.157 0 0 0-.87.734 1.914 1.914 0 0 0-.32 1.085c-.011.394.079.744.271 1.05.192.301.465.539.82.713.357.175.78.266 1.267.275Zm.102-5.876c.395.007.745-.067 1.05-.221.31-.154.554-.372.736-.655.181-.282.277-.61.288-.984a1.84 1.84 0 0 0-.248-.974 1.705 1.705 0 0 0-.706-.661 2.306 2.306 0 0 0-1.054-.252 2.391 2.391 0 0 0-1.081.214c-.31.146-.552.358-.73.637-.172.274-.26.596-.262.965-.01.374.068.705.235.993.171.284.409.511.712.68.308.165.662.251 1.06.258Zm11.452 7.879a5.453 5.453 0 0 1-1.802-.353 4.246 4.246 0 0 1-1.569-1.067c-.462-.491-.824-1.137-1.087-1.94-.263-.807-.382-1.802-.358-2.986.02-1.104.154-2.086.405-2.947.25-.861.6-1.585 1.052-2.174a4.481 4.481 0 0 1 1.617-1.345c.631-.304 1.333-.449 2.105-.435.81.014 1.526.186 2.145.516.625.33 1.125.775 1.502 1.336.376.557.605 1.182.685 1.877l-2.299-.04c-.108-.498-.343-.897-.703-1.197-.356-.304-.81-.461-1.365-.471-.894-.016-1.59.361-2.086 1.129-.492.768-.752 1.83-.78 3.186l.088.002c.212-.366.485-.678.817-.937a3.66 3.66 0 0 1 1.119-.592 3.938 3.938 0 0 1 1.32-.197c.755.013 1.43.206 2.024.577a3.931 3.931 0 0 1 1.41 1.518c.341.635.503 1.361.485 2.175-.01.848-.217 1.607-.62 2.276a4.202 4.202 0 0 1-1.658 1.558c-.704.374-1.52.551-2.447.531Zm.02-1.89c.458.008.869-.096 1.234-.312s.656-.511.872-.886c.217-.374.327-.796.33-1.266a2.51 2.51 0 0 0-.28-1.259 2.3 2.3 0 0 0-.822-.902 2.29 2.29 0 0 0-1.216-.349 2.321 2.321 0 0 0-.954.179 2.364 2.364 0 0 0-.778.528 2.54 2.54 0 0 0-.735 1.738c-.004.449.094.865.293 1.246.199.382.477.689.834.922.357.233.764.353 1.222.361Zm11.351-7.764 2.198.039-.136 7.796 3.041.053.137-7.796 2.197.038-.136 7.796 3.042.053.136-7.796 2.198.039-.17 9.672-12.676-.221.17-9.673Zm13.864 2.113.033-1.87 8.463.148-.032 1.87-3.13-.055-.136 7.803-2.204-.039.136-7.802-3.13-.055Zm10.124 8.12a1.353 1.353 0 0 1-.975-.42 1.304 1.304 0 0 1-.386-.989c.003-.378.143-.699.42-.963a1.35 1.35 0 0 1 .99-.386c.369.006.688.146.956.42a1.323 1.323 0 0 1 .191 1.672c-.13.208-.3.373-.512.495a1.306 1.306 0 0 1-.684.171Z"/><rect width="136.269" height="27.135" x="3.699" y="197.844" fill="#DEF1DD" rx="5.067" transform="rotate(1 3.699 197.844)"/><path fill="#388A0E" d="m17.502 215.453.117-6.69 1.33.023-.116 6.69-1.331-.023Zm-2.63-2.729.023-1.326 6.69.117-.024 1.326-6.689-.117Zm12.417 4.741a4.1 4.1 0 0 1-1.332-.271 3.13 3.13 0 0 1-1.173-.813c-.35-.375-.627-.877-.83-1.504-.2-.627-.293-1.407-.276-2.341.015-.884.116-1.667.303-2.35.19-.683.456-1.258.797-1.724.342-.469.75-.823 1.227-1.062a3.36 3.36 0 0 1 1.594-.343c.604.01 1.138.138 1.602.384.464.246.838.58 1.12 1.004.287.424.465.904.535 1.44l-1.509-.026a1.95 1.95 0 0 0-.59-1.045c-.3-.273-.693-.413-1.181-.422-.742-.013-1.327.301-1.754.94-.423.639-.647 1.534-.67 2.686l.074.001c.18-.284.399-.524.656-.721a3.023 3.023 0 0 1 1.881-.606c.588.01 1.116.163 1.586.458.474.293.848.692 1.123 1.198.274.506.406 1.083.395 1.729a3.533 3.533 0 0 1-.471 1.749c-.3.52-.716.928-1.249 1.226-.533.294-1.152.431-1.858.413Zm.017-1.287a1.93 1.93 0 0 0 1.05-.269c.31-.186.556-.439.74-.759.184-.32.28-.68.286-1.079a2.18 2.18 0 0 0-.243-1.068 1.987 1.987 0 0 0-.7-.775 1.903 1.903 0 0 0-1.024-.3 1.99 1.99 0 0 0-.82.154 2.07 2.07 0 0 0-.66.454c-.192.195-.344.42-.458.675-.11.252-.167.52-.172.804-.007.379.075.732.244 1.058.172.327.41.592.714.795.306.2.654.303 1.043.31Zm5.305 1.241.02-1.108 3.49-3.493c.374-.38.681-.713.924-.999.246-.289.43-.565.554-.826.123-.262.187-.542.193-.838a1.563 1.563 0 0 0-.223-.875 1.55 1.55 0 0 0-.638-.581 2.062 2.062 0 0 0-.922-.219 1.956 1.956 0 0 0-.953.206c-.274.144-.485.35-.635.618-.15.268-.228.583-.234.946l-1.46-.025c.01-.617.162-1.154.454-1.611a2.887 2.887 0 0 1 1.186-1.053c.5-.249 1.064-.368 1.694-.357.637.011 1.196.148 1.676.411.484.259.859.608 1.125 1.049.266.437.395.927.385 1.471a2.983 2.983 0 0 1-.232 1.1c-.145.357-.394.754-.748 1.19-.354.432-.845.957-1.473 1.573l-2.05 2.072-.002.074 4.562.08-.023 1.311-6.67-.116Zm12.385-7.386 1.45.025-.11 6.319 2.627.045.11-6.318 1.45.025-.11 6.319 2.627.046.11-6.319 1.45.025-.133 7.6-9.603-.167.132-7.6Zm10.615 1.462.022-1.276 6.412.111-.022 1.277-2.479-.043-.11 6.323-1.445-.025.11-6.324-2.488-.043Zm7.656 6.553a.96.96 0 0 1-.693-.299.958.958 0 0 1-.28-.708c.005-.27.107-.5.304-.687a.948.948 0 0 1 .703-.28c.27.005.502.106.693.304a.936.936 0 0 1 .28.698.942.942 0 0 1-.148.497 1.019 1.019 0 0 1-.362.35.94.94 0 0 1-.497.125Zm9.695.229c-.712-.013-1.331-.187-1.857-.523-.525-.336-.93-.8-1.213-1.392-.283-.592-.418-1.281-.404-2.066.014-.788.172-1.475.476-2.06a3.291 3.291 0 0 1 1.261-1.354c.537-.318 1.162-.47 1.874-.458.713.013 1.332.187 1.857.523.525.336.93.801 1.213 1.397.283.595.418 1.287.404 2.076-.013.785-.172 1.468-.476 2.05a3.302 3.302 0 0 1-1.26 1.349c-.538.318-1.162.47-1.875.458Zm.027-1.242c.462.008.846-.107 1.154-.346.308-.239.538-.56.69-.963.156-.403.238-.849.246-1.337a3.862 3.862 0 0 0-.2-1.34 2.17 2.17 0 0 0-.655-.996c-.3-.253-.68-.383-1.141-.392-.465-.008-.854.109-1.165.351-.307.242-.54.567-.695.973a3.938 3.938 0 0 0-.24 1.332c-.01.488.055.937.194 1.345.14.408.361.737.66.986.303.25.687.379 1.152.387Zm4.365-5.16.022-1.277 6.413.112-.023 1.277-2.479-.044-.11 6.324-1.445-.026.11-6.323-2.488-.043Zm11.554 6.527.133-7.6 3.151.055c.858.015 1.534.21 2.03.584.495.372.737.87.726 1.493-.008.445-.156.796-.444 1.051-.288.256-.668.424-1.138.505.34.046.65.153.93.323.281.167.505.389.672.665.17.277.251.605.245.985a1.876 1.876 0 0 1-.33 1.063c-.214.303-.52.539-.919.706-.395.165-.87.243-1.424.233l-3.632-.063Zm1.412-1.213 2.241.039c.366.006.655-.076.866-.247.21-.171.319-.407.324-.707.006-.353-.093-.632-.297-.837-.204-.208-.49-.315-.856-.322l-2.241-.039-.037 2.113Zm.056-3.196 1.776.031c.277.004.515-.031.715-.107.202-.075.358-.185.466-.328a.866.866 0 0 0 .172-.522.789.789 0 0 0-.35-.694c-.237-.169-.565-.257-.984-.265l-1.762-.03-.033 1.915Zm12.657-2.947-.132 7.6-1.445-.025.132-7.6 1.445.025Zm-.69 3.517-.022 1.276a6.882 6.882 0 0 1-.727.235 6.333 6.333 0 0 1-1.68.193c-.941-.016-1.684-.258-2.23-.726-.546-.472-.811-1.183-.795-2.133l.044-2.483 1.44.025-.044 2.484c-.006.359.055.652.183.879.128.226.313.395.555.504.243.11.532.168.868.174.446.008.857-.026 1.235-.102a9.65 9.65 0 0 0 1.173-.326Zm5.798 4.328c-.748-.013-1.39-.185-1.926-.514a3.254 3.254 0 0 1-1.223-1.382c-.28-.593-.413-1.283-.399-2.071.013-.779.17-1.462.471-2.051a3.38 3.38 0 0 1 1.251-1.369c.534-.324 1.154-.48 1.86-.467.428.007.843.085 1.243.234.4.149.757.378 1.072.687.314.309.56.708.736 1.196.176.485.258 1.072.246 1.761l-.009.525-6.041-.106.019-1.108 4.592.08a2.17 2.17 0 0 0-.22-1.038 1.784 1.784 0 0 0-.655-.729 1.868 1.868 0 0 0-.995-.28 1.935 1.935 0 0 0-1.094.288c-.31.196-.552.455-.726.779-.171.32-.259.67-.266 1.049l-.015.866c-.009.508.073.942.245 1.301.175.36.422.636.742.83.32.19.696.289 1.129.297.28.005.536-.03.769-.106a1.66 1.66 0 0 0 .605-.355 1.59 1.59 0 0 0 .396-.592l1.396.277c-.12.41-.327.768-.623 1.073a2.927 2.927 0 0 1-1.096.698c-.435.161-.929.236-1.484.227Zm4.855 2.782.183-10.45 1.445.025-.022 1.232.124.002c.088-.156.215-.337.38-.542.166-.205.393-.383.683-.533.29-.153.67-.226 1.142-.218a2.977 2.977 0 0 1 1.635.494c.476.319.846.772 1.109 1.361.267.589.393 1.294.379 2.115-.014.821-.163 1.523-.448 2.105-.283.58-.667 1.023-1.151 1.332a2.921 2.921 0 0 1-1.646.441c-.462-.008-.838-.092-1.129-.252a2.143 2.143 0 0 1-.673-.556 4.076 4.076 0 0 1-.372-.561l-.089-.002-.07 4.033-1.48-.026Zm1.566-6.625c-.009.535.06 1.004.208 1.409.148.406.367.725.657.957.289.23.647.348 1.072.356.442.007.814-.103 1.115-.332.301-.233.531-.55.69-.953.162-.404.247-.859.256-1.367a3.772 3.772 0 0 0-.204-1.355 2.074 2.074 0 0 0-.656-.957c-.293-.236-.662-.358-1.108-.365-.428-.008-.793.096-1.094.312-.297.216-.525.521-.684.914-.159.393-.243.853-.252 1.381Zm9.292 4.132a3.11 3.11 0 0 1-1.301-.29 2.204 2.204 0 0 1-.912-.803c-.218-.347-.323-.77-.314-1.268.007-.428.096-.78.266-1.054.169-.274.396-.49.679-.647.283-.156.599-.273.947-.349a9.252 9.252 0 0 1 1.062-.17l1.11-.109c.285-.031.492-.086.622-.162.13-.077.196-.205.199-.383l.001-.035c.008-.432-.109-.769-.349-1.01-.236-.242-.594-.367-1.072-.376-.498-.008-.893.095-1.183.311-.288.213-.488.452-.602.717l-1.385-.34c.173-.459.421-.828.742-1.106a2.936 2.936 0 0 1 1.114-.604 4.303 4.303 0 0 1 1.315-.175c.304.005.625.047.963.125.342.076.66.21.953.403.297.193.538.466.723.819.186.35.273.802.264 1.356l-.088 5.047-1.445-.025.018-1.039-.059-.001a2.102 2.102 0 0 1-.441.556 2.277 2.277 0 0 1-.745.448c-.302.116-.663.171-1.082.164Zm.343-1.182c.409.007.76-.068 1.053-.224.296-.157.522-.364.679-.622.159-.261.242-.542.247-.842l.017-.98c-.054.052-.157.1-.309.144-.149.04-.32.075-.512.104-.192.027-.378.052-.56.075l-.457.051a3.638 3.638 0 0 0-.79.17 1.35 1.35 0 0 0-.57.361c-.141.156-.214.366-.219.629-.006.367.124.646.391.839.268.189.611.288 1.03.295Z"/></svg>