<svg xmlns="http://www.w3.org/2000/svg" width="366" height="179" fill="none">
  <g filter="url(#a)">
    <path fill="#E9E9EB" stroke="#E9E9EB" stroke-width=".7" d="M35 108c0-10 8-18 18-18v26H35v-8Zm0 8h18v3H35z"/>
    <path fill="#E9E9EB" fill-rule="evenodd" d="m36 130-1-3v-8l18-1 1 27c-5 0-9-2-12-4-3 2-8 4-14 3 2-1 8-5 8-14Z" clip-rule="evenodd"/>
    <path fill="#E9E9EB" d="m36 130-1 1 1-1Zm-1-11v-1 1Zm18-1h1-1Zm1 27Zm-12-4v-1 1Zm-14 3h-1 1Zm8-14-1-1v1h1Zm-1-3v3h1v-3h-1Zm0-8v8h1l-1-8Zm18-1H35v1h18v-1Zm1 27v-27h-1v27h1Zm-12-4c3 3 7 4 12 4v-1c-5 0-9-1-12-4v1Zm-14 3c6 1 11-1 14-3v-1c-3 2-8 5-14 4Zm7-14a14 14 0 0 1-7 14c1 0 3-1 5-4 2-2 3-5 3-10h-1Zm1 0h-1v1l1-1Z"/>
    <path fill="#E9E9EB" d="m53 90 268-5 1 55-268 5z"/>
    <path fill="#000" d="m54 107 12-1v2h-5v16h-2v-16h-5v-1Zm23 15c-1 2-3 2-5 2a6 6 0 0 1-7-6l2-5 5-2 5 2 2 5-2 4Zm-8-1 3 2 4-2 1-3-1-4-4-1-3 1-2 4 2 3Zm12 1h2l-1 5h-2l1-5Zm20-5v-6h1l1 12h-2v-4h-4c-1 1-3 0-4-1l-1-3v-4h2v4l1 2 2 1 4-1Zm3-6h11v1h-5l1 11h-2v-11h-5v-1Zm23 10c-1 2-3 2-5 2l-4-1c-2-2-2-3-2-5l1-5 5-2 5 2 2 5-2 4Zm-8-1 3 2 4-2 1-3-1-4-4-1-3 1-2 4 2 3Zm28-4v-6h1v13h-1v-6h-8l1 6h-2v-13h1v6h8Zm10 4 4-10h1l-5 14-2 3-3 1v-2c2 0 3-1 4-3l-6-13h2l5 10Zm16-4 6 6h-2l-5-6v6h-2v-6l-5 6h-2l6-6-6-6h2l5 5v-5h2v5l5-6h2l-6 7Zm17-1v-6h2v13h-2v-6l-7 1v5h-2v-13h2v6h7Zm16 5-5 2-5-2-2-4 2-5c1-2 3-2 5-2s3 0 5 2l2 4-2 5Zm-8-1 3 1 4-1 1-4-1-3-4-2-4 2-1 3 2 4Zm14-2h-1l-1-8v-5h2v13Zm1 3v1l-1 1-1-1-1-1 1-1h2v1Z"/>
    <path stroke="#E9E9EB" stroke-width=".7" d="m53 90 268-5 1 55-268 5z"/>
    <path fill="#E9E9EB" stroke="#E9E9EB" stroke-width=".7" d="M339 103c0-10-8-18-18-18v26h18v-8Zm0 8h-18v2h18zm1 11c0 10-8 18-18 18l-1-26 18-1 1 9Z"/>
  </g>
  <g filter="url(#b)">
    <path fill="#FFCC4D" d="M280 114a44 44 0 1 0 0-89 44 44 0 0 0 0 89Z"/>
    <path fill="#664500" d="m275 67-3-2c0-1-2-5-5-5-2 0-5 4-5 5a2 2 0 1 1-5-1c1-1 4-9 10-9 7 0 10 8 10 9a2 2 0 0 1-2 3Zm24 0-2-2c-1-1-3-5-5-5-3 0-5 4-5 5a2 2 0 1 1-5-1c0-1 3-9 10-9 6 0 9 8 10 9a2 2 0 0 1-3 3Zm4 9h-2s-10 7-21 7c-12 0-22-7-22-7h-2v2c1 0 8 13 24 13 15 0 22-13 23-13v-2Z"/>
    <path fill="#FFAC33" d="m287 35 1 1c1 7 8 14 13 16 4-2 10-6 12-11-5-6-12-11-19-14-4 1-7 4-7 8Zm-18 62v-2a8 8 0 0 0-15-5 8 8 0 0 0-13 1c4 8 11 15 19 19 5-4 8-8 9-13Zm51-9a6 6 0 0 0-10-1 6 6 0 0 0-10 4c0 5 5 10 9 12 5-4 8-9 11-15Z"/>
    <path fill="#DD3CC9" d="M318 33a8 8 0 0 0-14-4 8 8 0 0 0-13 6c1 6 8 13 13 15 6-2 13-9 14-15v-2Zm-53 62a8 8 0 0 0-15-5 8 8 0 0 0-14 7c1 7 9 15 14 17 6-2 14-10 15-17v-2Zm59-5a6 6 0 0 0-10-4 6 6 0 0 0-11 5c1 5 7 10 11 11 3-1 9-6 10-11v-1Z"/>
  </g>
  <defs>
    <filter id="a" width="365.3" height="112.2" x=".7" y="66.3" color-interpolation-filters="sRGB" filterUnits="userSpaceOnUse">
      <feFlood flood-opacity="0" result="BackgroundImageFix"/>
      <feColorMatrix in="SourceAlpha" result="hardAlpha" values="0 0 0 0 0 0 0 0 0 0 0 0 0 0 0 0 0 0 127 0"/>
      <feOffset dy="7.4"/>
      <feGaussianBlur stdDeviation="13"/>
      <feComposite in2="hardAlpha" operator="out"/>
      <feColorMatrix values="0 0 0 0 0 0 0 0 0 0 0 0 0 0 0 0 0 0 0.7 0"/>
      <feBlend in2="BackgroundImageFix" result="effect1_dropShadow_547_2255"/>
      <feBlend in="SourceGraphic" in2="effect1_dropShadow_547_2255" result="shape"/>
    </filter>
    <filter id="b" width="159" height="159" x="200" y="0" color-interpolation-filters="sRGB" filterUnits="userSpaceOnUse">
      <feFlood flood-opacity="0" result="BackgroundImageFix"/>
      <feColorMatrix in="SourceAlpha" result="hardAlpha" values="0 0 0 0 0 0 0 0 0 0 0 0 0 0 0 0 0 0 127 0"/>
      <feOffset dy="10"/>
      <feGaussianBlur stdDeviation="17.5"/>
      <feComposite in2="hardAlpha" operator="out"/>
      <feColorMatrix values="0 0 0 0 0 0 0 0 0 0 0 0 0 0 0 0 0 0 0.7 0"/>
      <feBlend in2="BackgroundImageFix" result="effect1_dropShadow_547_2255"/>
      <feBlend in="SourceGraphic" in2="effect1_dropShadow_547_2255" result="shape"/>
    </filter>
  </defs>
</svg>
