<svg xmlns="http://www.w3.org/2000/svg" width="251" height="106" fill="none">
  <g filter="url(#a)">
    <path fill="#E9E9EB" stroke="#E9E9EB" stroke-width=".5" d="M18 58c0-7 6-12 12-12l1 17-13 1v-6Zm0 6h13v1H18zm0 7c1 6 6 12 13 12V65H18v6Z"/>
    <path fill="#E9E9EB" d="m30 46 184-3 1 37-184 3z"/>
    <path fill="#000" d="M40 62v-6h1v12h-1v-5h-7v6h-1V57h1v5h7Zm7-2c2-1 3 0 4 1a5 5 0 0 1 1 4h-8l1 2h3l2-1h1l-1 2-2 1-4-2-1-3 1-3 3-1Zm0 1h-2l-1 3 7-1-1-2h-3Zm11-1 7-1v9h-1v-7h-5v7h-1v-8Zm14-1 3 1 1 4-1 3-3 1c-1 0-3 0-3-2v5h-2V59h1v2l4-2Zm-3 7 3 1 2-1 1-2-1-3-2-1-3 1-1 3 1 2Zm10 0 5-7h1l1 9h-2v-7l-5 7h-1v-9h1v7Zm14-3 2 2-1 2-2 1h-4v-9h4l2 1v1l-1 2Zm-1-3h-3v3h3l1-2v-1h-1Zm-3 7 3-1h1l1-1-1-1h-4v3Zm8-8h6v8h-1v-7h-4v4l-1 3-2 1v-2h1l1-2v-5Zm12-1c2 0 3 1 3 2a5 5 0 0 1 2 3l-8 1 1 2h3l2-1h1l-1 2h-2l-4-1-1-3 1-3 3-2Zm0 2h-2l-1 2h6l-1-2h-2Zm9 3 4 4h-1l-4-4v4h-2v-8h1l1 3 4-4h1l-4 5Zm12-3v-2h1l1 9h-2v-2c0 1-1 2-3 2l-3-1-2-3 2-4 3-1 3 2Zm-5 5 2 1 2-1 1-2-1-3-2-1-2 1-1 3 1 2Zm13-7 3 1a5 5 0 0 1 1 4h-7l1 2 2 1 3-2 1 1-2 1-2 1-3-1-2-3 2-4 3-1Zm0 1-2 1-2 2h7l-1-2-2-1Zm4-1h8v1h-3v8h-1l-1-8h-3v-1Zm10 8h-1v1l-1-1v-1h1l1 1Zm3 0v1l-1-1v-1h1v1Zm4 0-1 1v-1h-1l1-1h1v1Z"/>
    <path stroke="#E9E9EB" stroke-width=".5" d="m30 46 184-3 1 37-184 3z"/>
    <path fill="#E9E9EB" stroke="#E9E9EB" stroke-width=".5" d="M226 54c0-6-6-12-13-12l1 18h12v-6Zm0 6h-12v1h12z"/>
    <path fill="#E9E9EB" fill-rule="evenodd" d="M226 69v-8l-12 1v18c3 0 6-2 8-3 2 1 6 2 10 1-1 0-6-3-6-9Z" clip-rule="evenodd"/>
    <path fill="#E9E9EB" d="M226 69v1-1Zm0-8Zm-12 1v-1 1Zm0 18Zm8-3v-1 1Zm10 1 1 1h-1v-1Zm-6-9v-1 1Zm1-2-1 2v-2h1Zm-1-6 1 6h-1v-6Zm-12 0h12v1h-12v-1Zm0 19V62v18Zm8-3c-2 2-5 3-8 3v-1c3 0 6-1 8-3v1Zm10 2c-4 1-8-1-10-2v-1c2 2 6 3 10 2v1Zm-6-10a10 10 0 0 0 6 9v1l-4-3-2-7Zm0 0v1-1Z"/>
  </g>
  <g filter="url(#b)">
    <path fill="#FFCC4D" d="M190 69a25 25 0 1 0 0-50 25 25 0 0 0 0 50Z"/>
    <path fill="#F4F7F9" d="M199 46a8 8 0 1 0 0-16 8 8 0 0 0 0 16Zm-18 0a8 8 0 1 0 0-16 8 8 0 0 0 0 16Z"/>
    <path fill="#65471B" d="M197 52c-4-1-13 0-16 6a1 1 0 0 0 1 1c4-4 10-4 14-4l4-1c0-1-1-2-3-2Zm-18-15a4 4 0 0 0 1-7l-3 1a3 3 0 0 0 2 6Zm18 0a4 4 0 0 0 1-7l-3 1-1 3c0 2 1 3 3 3Z"/>
  </g>
  <defs>
    <filter id="a" width="250.1" height="76.5" x=".2" y="29.3" color-interpolation-filters="sRGB" filterUnits="userSpaceOnUse">
      <feFlood flood-opacity="0" result="BackgroundImageFix"/>
      <feColorMatrix in="SourceAlpha" result="hardAlpha" values="0 0 0 0 0 0 0 0 0 0 0 0 0 0 0 0 0 0 127 0"/>
      <feOffset dy="5.1"/>
      <feGaussianBlur stdDeviation="8.9"/>
      <feComposite in2="hardAlpha" operator="out"/>
      <feColorMatrix values="0 0 0 0 0 0 0 0 0 0 0 0 0 0 0 0 0 0 0.7 0"/>
      <feBlend in2="BackgroundImageFix" result="effect1_dropShadow_547_2300"/>
      <feBlend in="SourceGraphic" in2="effect1_dropShadow_547_2300" result="shape"/>
    </filter>
    <filter id="b" width="101" height="101" x="139.2" y="1" color-interpolation-filters="sRGB" filterUnits="userSpaceOnUse">
      <feFlood flood-opacity="0" result="BackgroundImageFix"/>
      <feColorMatrix in="SourceAlpha" result="hardAlpha" values="0 0 0 0 0 0 0 0 0 0 0 0 0 0 0 0 0 0 127 0"/>
      <feOffset dy="7.2"/>
      <feGaussianBlur stdDeviation="12.6"/>
      <feComposite in2="hardAlpha" operator="out"/>
      <feColorMatrix values="0 0 0 0 0 0 0 0 0 0 0 0 0 0 0 0 0 0 0.7 0"/>
      <feBlend in2="BackgroundImageFix" result="effect1_dropShadow_547_2300"/>
      <feBlend in="SourceGraphic" in2="effect1_dropShadow_547_2300" result="shape"/>
    </filter>
  </defs>
</svg>
