<svg width="366" height="179" viewBox="0 0 366 179" fill="none" xmlns="http://www.w3.org/2000/svg">
<g filter="url(#filter0_d_547_2255)">
<path d="M34.9431 108.346C34.7685 98.3419 42.7367 90.0906 52.7406 89.916V89.916L53.1982 116.133L35.0846 116.449L34.9431 108.346Z" fill="#E9E9EB" stroke="#E9E9EB" stroke-width="0.742858"/>
<rect x="35.0845" y="116.449" width="18.1164" height="2.30071" transform="rotate(-1 35.0845 116.449)" fill="#E9E9EB" stroke="#E9E9EB" stroke-width="0.742858"/>
<path fill-rule="evenodd" clip-rule="evenodd" d="M35.6551 130.301C35.4198 129.186 35.2866 128.034 35.266 126.853L35.1246 118.75L53.2382 118.433L53.6958 144.65C49.3095 144.727 45.2601 143.238 42.0807 140.699C38.9903 142.836 34.0112 144.904 27.9346 143.908C29.5905 143.164 35.9507 138.762 35.5626 130.186C35.5922 130.225 35.623 130.263 35.6551 130.301Z" fill="#E9E9EB"/>
<path d="M35.6551 130.301L35.3729 130.542L36.0185 130.224L35.6551 130.301ZM35.1246 118.75L35.1181 118.378L34.7467 118.385L34.7532 118.756L35.1246 118.75ZM53.2382 118.433L53.6096 118.427L53.6031 118.056L53.2317 118.062L53.2382 118.433ZM53.6958 144.65L53.7023 145.022L54.0737 145.015L54.0672 144.644L53.6958 144.65ZM42.0807 140.699L42.3125 140.408L42.0966 140.236L41.8694 140.393L42.0807 140.699ZM27.9346 143.908L27.7824 143.569L26.6568 144.075L27.8746 144.275L27.9346 143.908ZM35.5626 130.186L35.8591 129.962L35.1374 129.005L35.1916 130.202L35.5626 130.186ZM34.8946 126.859C34.9157 128.064 35.0515 129.24 35.2917 130.377L36.0185 130.224C35.788 129.133 35.6576 128.004 35.6374 126.847L34.8946 126.859ZM34.7532 118.756L34.8946 126.859L35.6374 126.847L35.4959 118.743L34.7532 118.756ZM53.2317 118.062L35.1181 118.378L35.131 119.121L53.2447 118.805L53.2317 118.062ZM54.0672 144.644L53.6096 118.427L52.8668 118.44L53.3244 144.657L54.0672 144.644ZM41.8489 140.989C45.0933 143.58 49.2263 145.1 53.7023 145.022L53.6893 144.279C49.3926 144.354 45.4268 142.896 42.3125 140.408L41.8489 140.989ZM27.8746 144.275C34.0698 145.29 39.1447 143.181 42.292 141.004L41.8694 140.393C38.8359 142.491 33.9526 144.518 27.9947 143.542L27.8746 144.275ZM35.1916 130.202C35.381 134.388 33.9256 137.548 32.2211 139.757C30.5094 141.975 28.5538 143.223 27.7824 143.569L28.0869 144.247C28.9713 143.849 31.0238 142.524 32.8092 140.211C34.6017 137.888 36.1324 134.559 35.9337 130.169L35.1916 130.202ZM35.9372 130.059C35.9101 130.027 35.8841 129.995 35.8591 129.962L35.2661 130.409C35.3004 130.455 35.336 130.499 35.3729 130.542L35.9372 130.059Z" fill="#E9E9EB"/>
<rect x="52.7405" y="89.916" width="268.14" height="54.7429" transform="rotate(-1 52.7405 89.916)" fill="#E9E9EB"/>
<path d="M53.537 106.589L66.1688 106.368L66.1979 108.036L60.7662 108.13L61.0458 124.148L59.2774 124.179L58.9978 108.161L53.5661 108.256L53.537 106.589ZM76.9139 122.279C75.639 123.564 74.0837 124.223 72.2479 124.255C70.3784 124.288 68.7926 123.684 67.4905 122.443C66.1881 121.185 65.5206 119.622 65.488 117.752C65.4553 115.883 66.068 114.305 67.326 113.02C68.5837 111.717 70.1473 111.05 72.0168 111.017C73.8695 110.985 75.447 111.598 76.7494 112.855C78.0683 114.096 78.7441 115.651 78.7767 117.52C78.8091 119.373 78.1881 120.959 76.9139 122.279ZM68.6576 121.26C69.6344 122.203 70.8217 122.663 72.2197 122.638C73.6176 122.614 74.7882 122.113 75.7314 121.137C76.6741 120.126 77.1334 118.93 77.1093 117.549C77.0849 116.151 76.5843 114.981 75.6075 114.038C74.6305 113.077 73.443 112.61 72.045 112.634C70.6471 112.658 69.4767 113.167 68.5337 114.161C67.5904 115.138 67.131 116.325 67.1554 117.723C67.1795 119.104 67.6802 120.283 68.6576 121.26ZM81.2598 121.647L83.2809 121.611L81.8643 127.322L80.3485 127.349L81.2598 121.647ZM100.747 117.112L100.637 110.821L102.304 110.792L102.525 123.424L100.857 123.453L100.774 118.653C99.8055 119.175 98.6057 119.449 97.1741 119.474C95.5067 119.503 94.2369 119.146 93.3647 118.403C92.4922 117.643 92.0428 116.514 92.0167 115.015L91.9461 110.973L93.6135 110.943L93.6841 114.986C93.7023 116.03 93.985 116.783 94.5322 117.245C95.0962 117.707 95.9509 117.928 97.0962 117.908C98.3762 117.886 99.593 117.62 100.747 117.112ZM104.206 110.759L114.817 110.573L114.845 112.19L110.373 112.268L110.566 123.283L108.898 123.312L108.706 112.297L104.234 112.375L104.206 110.759ZM127.007 121.404C125.732 122.69 124.177 123.349 122.341 123.381C120.472 123.414 118.886 122.81 117.584 121.569C116.281 120.311 115.614 118.747 115.581 116.878C115.549 115.008 116.161 113.431 117.419 112.145C118.677 110.843 120.241 110.175 122.11 110.143C123.963 110.11 125.54 110.723 126.843 111.981C128.162 113.221 128.837 114.776 128.87 116.646C128.902 118.499 128.281 120.085 127.007 121.404ZM118.751 120.386C119.728 121.329 120.915 121.789 122.313 121.764C123.711 121.74 124.881 121.239 125.825 120.262C126.767 119.252 127.227 118.056 127.203 116.675C127.178 115.277 126.678 114.106 125.701 113.163C124.724 112.203 123.536 111.735 122.138 111.76C120.74 111.784 119.57 112.293 118.627 113.287C117.684 114.263 117.224 115.451 117.249 116.849C117.273 118.23 117.774 119.409 118.751 120.386ZM146.653 115.527L146.557 110.019L148.224 109.99L148.445 122.622L146.777 122.651L146.681 117.144L139.405 117.271L139.501 122.778L137.834 122.807L137.613 110.175L139.281 110.146L139.377 115.654L146.653 115.527ZM156.811 120.429L160.719 109.772L162.487 109.741L157.322 123.63C156.839 124.918 156.148 125.916 155.251 126.623C154.371 127.345 153.382 127.674 152.286 127.609L152.259 126.043C153.778 126.202 154.916 125.306 155.674 123.355L155.989 122.566L150.108 109.957L151.876 109.926L156.811 120.429ZM173.33 115.617L179.104 122.087L177.083 122.122L171.823 116.124L171.929 122.212L170.262 122.241L170.155 116.153L165.108 122.331L163.087 122.367L168.631 115.699L163.119 109.73L165.14 109.695L170.139 115.218L170.041 109.609L171.708 109.58L171.806 115.189L176.61 109.495L178.631 109.459L173.33 115.617ZM190.066 114.769L189.97 109.262L191.637 109.232L191.858 121.864L190.19 121.893L190.094 116.386L182.818 116.513L182.914 122.02L181.247 122.05L181.026 109.418L182.694 109.389L182.79 114.896L190.066 114.769ZM205.815 120.029C204.54 121.314 202.985 121.973 201.149 122.005C199.28 122.038 197.694 121.434 196.392 120.193C195.089 118.935 194.422 117.372 194.389 115.502C194.357 113.633 194.969 112.055 196.227 110.77C197.485 109.467 199.049 108.8 200.918 108.767C202.771 108.735 204.348 109.348 205.651 110.605C206.97 111.846 207.645 113.401 207.678 115.27C207.71 117.123 207.089 118.709 205.815 120.029ZM197.559 119.01C198.536 119.953 199.723 120.413 201.121 120.389C202.519 120.364 203.69 119.864 204.633 118.887C205.575 117.876 206.035 116.68 206.011 115.299C205.986 113.901 205.486 112.731 204.509 111.788C203.532 110.828 202.344 110.36 200.946 110.384C199.548 110.408 198.378 110.917 197.435 111.911C196.492 112.888 196.032 114.075 196.057 115.473C196.081 116.854 196.582 118.033 197.559 119.01ZM212.137 116.709L210.874 116.731L210.358 108.906L210.27 103.853L212.291 103.818L212.379 108.87L212.137 116.709ZM212.959 120.359C212.966 120.746 212.837 121.077 212.572 121.351C212.307 121.625 211.981 121.766 211.594 121.773C211.206 121.779 210.875 121.65 210.601 121.386C210.327 121.121 210.187 120.795 210.18 120.407C210.173 120.02 210.302 119.689 210.567 119.415C210.832 119.141 211.158 119 211.545 118.994C211.932 118.987 212.263 119.116 212.537 119.381C212.812 119.645 212.952 119.971 212.959 120.359Z" fill="black"/>
<rect x="52.7405" y="89.916" width="268.14" height="54.7429" transform="rotate(-1 52.7405 89.916)" stroke="#E9E9EB" stroke-width="0.742858"/>
<path d="M339.269 103.034C339.094 93.0298 330.843 85.0616 320.839 85.2362V85.2362L321.297 111.453L339.41 111.137L339.269 103.034Z" fill="#E9E9EB" stroke="#E9E9EB" stroke-width="0.742858"/>
<rect width="18.1164" height="2.30071" transform="matrix(-0.999848 0.0174524 0.0174524 0.999848 339.41 111.137)" fill="#E9E9EB" stroke="#E9E9EB" stroke-width="0.742858"/>
<path d="M339.592 121.541C339.766 131.545 331.798 139.796 321.794 139.971V139.971L321.337 113.754L339.45 113.438L339.592 121.541Z" fill="#E9E9EB" stroke="#E9E9EB" stroke-width="0.742858"/>
</g>
<g filter="url(#filter1_d_547_2255)">
<path d="M279.5 114C304.077 114 324 94.0767 324 69.5C324 44.9233 304.077 25 279.5 25C254.923 25 235 44.9233 235 69.5C235 94.0767 254.923 114 279.5 114Z" fill="#FFCC4D"/>
<path d="M274.556 66.924C273.52 66.924 272.555 66.2689 272.209 65.233C271.708 63.7522 269.693 59.5074 267.139 59.5074C264.513 59.5074 262.471 64.0241 262.068 65.233C261.636 66.526 260.244 67.2306 258.941 66.7955C257.646 66.3653 256.946 64.9636 257.379 63.6681C257.688 62.7361 260.602 54.5604 267.141 54.5604C273.68 54.5604 276.593 62.7361 276.904 63.6681C277.337 64.9636 276.637 66.3653 275.342 66.7955C275.08 66.8845 274.815 66.924 274.556 66.924ZM299.278 66.924C298.242 66.924 297.278 66.2689 296.934 65.233C296.432 63.7522 294.415 59.5074 291.861 59.5074C289.236 59.5074 287.191 64.0241 286.788 65.233C286.355 66.526 284.969 67.2306 283.661 66.7955C282.368 66.3653 281.666 64.9636 282.098 63.6681C282.407 62.7361 285.322 54.5604 291.859 54.5604C298.395 54.5604 301.31 62.7361 301.619 63.6681C302.052 64.9636 301.352 66.3653 300.057 66.7955C299.799 66.8845 299.537 66.924 299.278 66.924ZM302.578 76.1528C302.138 75.7548 301.481 75.7301 301.008 76.0811C300.912 76.1528 291.312 83.2506 279.5 83.2506C267.717 83.2506 258.086 76.1528 257.992 76.0811C257.519 75.7301 256.862 75.7597 256.422 76.1528C255.984 76.5484 255.885 77.2011 256.189 77.7054C256.508 78.2369 264.143 90.6672 279.5 90.6672C294.857 90.6672 302.494 78.2369 302.811 77.7054C303.115 77.1986 303.018 76.5509 302.578 76.1528Z" fill="#664500"/>
<path d="M287.483 34.7578C287.483 35.3511 287.557 35.9247 287.686 36.4784C288.736 43.0125 296.002 49.9051 301.209 51.7988C305.325 50.3031 310.717 45.6776 313.318 40.5774C308.153 34.5452 301.404 29.9122 293.715 27.3213C290.175 27.9567 287.483 31.0346 287.483 34.7578ZM268.976 96.8872C269.117 96.2889 269.198 95.6659 269.198 95.0231C269.198 90.4916 265.525 86.8178 260.993 86.8178C258.241 86.8178 255.816 88.1751 254.325 90.2518C252.837 88.1776 250.409 86.8178 247.658 86.8178C244.59 86.8178 241.945 88.5212 240.538 91.0157C245.047 99.1616 252.034 105.743 260.484 109.74C264.531 106.4 268.224 101.565 268.976 96.8872ZM319.8 88.3926C319.103 86.044 316.952 84.3209 314.376 84.3209C312.47 84.3209 310.789 85.2603 309.758 86.6992C308.727 85.2603 307.046 84.3209 305.139 84.3209C302 84.3209 299.456 86.8648 299.456 90.0045C299.456 90.4495 299.513 90.8797 299.609 91.295C300.368 96.0046 305.414 100.927 309.273 102.571C313.664 98.6153 317.261 93.8019 319.8 88.3926Z" fill="#FFAC33"/>
<path d="M318.128 33.0818C318.128 28.8988 314.737 25.5094 310.556 25.5094C308.017 25.5094 305.777 26.7628 304.403 28.6788C303.028 26.7628 300.788 25.5094 298.249 25.5094C294.066 25.5094 290.677 28.8988 290.677 33.0818C290.677 33.6752 290.751 34.2487 290.88 34.8025C291.933 41.3366 299.196 48.2291 304.403 50.1229C309.609 48.2291 316.873 41.3366 317.923 34.805C318.054 34.2487 318.128 33.6752 318.128 33.0818ZM265.181 95.231C265.181 90.6994 261.507 87.0257 256.976 87.0257C254.224 87.0257 251.799 88.383 250.308 90.4596C248.82 88.383 246.392 87.0257 243.64 87.0257C239.109 87.0257 235.435 90.6994 235.435 95.231C235.435 95.8738 235.517 96.4943 235.655 97.0951C236.795 104.173 244.664 111.642 250.305 113.694C255.947 111.644 263.816 104.176 264.956 97.0975C265.099 96.4943 265.181 95.8713 265.181 95.231ZM323.871 89.5919C323.871 86.4522 321.327 83.9082 318.188 83.9082C316.282 83.9082 314.601 84.8477 313.57 86.2865C312.539 84.8477 310.858 83.9082 308.952 83.9082C305.812 83.9082 303.268 86.4522 303.268 89.5919C303.268 90.0369 303.325 90.467 303.421 90.8824C304.21 95.7848 309.661 100.959 313.57 102.378C317.476 100.959 322.929 95.7848 323.716 90.8824C323.815 90.467 323.871 90.0369 323.871 89.5919Z" fill="#DD3CC9"/>
</g>
<defs>
<filter id="filter0_d_547_2255" x="0.656717" y="66.287" width="365.309" height="112.241" filterUnits="userSpaceOnUse" color-interpolation-filters="sRGB">
<feFlood flood-opacity="0" result="BackgroundImageFix"/>
<feColorMatrix in="SourceAlpha" type="matrix" values="0 0 0 0 0 0 0 0 0 0 0 0 0 0 0 0 0 0 127 0" result="hardAlpha"/>
<feOffset dy="7.42858"/>
<feGaussianBlur stdDeviation="13"/>
<feComposite in2="hardAlpha" operator="out"/>
<feColorMatrix type="matrix" values="0 0 0 0 0 0 0 0 0 0 0 0 0 0 0 0 0 0 0.7 0"/>
<feBlend mode="normal" in2="BackgroundImageFix" result="effect1_dropShadow_547_2255"/>
<feBlend mode="normal" in="SourceGraphic" in2="effect1_dropShadow_547_2255" result="shape"/>
</filter>
<filter id="filter1_d_547_2255" x="200" y="0" width="159" height="159" filterUnits="userSpaceOnUse" color-interpolation-filters="sRGB">
<feFlood flood-opacity="0" result="BackgroundImageFix"/>
<feColorMatrix in="SourceAlpha" type="matrix" values="0 0 0 0 0 0 0 0 0 0 0 0 0 0 0 0 0 0 127 0" result="hardAlpha"/>
<feOffset dy="10"/>
<feGaussianBlur stdDeviation="17.5"/>
<feComposite in2="hardAlpha" operator="out"/>
<feColorMatrix type="matrix" values="0 0 0 0 0 0 0 0 0 0 0 0 0 0 0 0 0 0 0.7 0"/>
<feBlend mode="normal" in2="BackgroundImageFix" result="effect1_dropShadow_547_2255"/>
<feBlend mode="normal" in="SourceGraphic" in2="effect1_dropShadow_547_2255" result="shape"/>
</filter>
</defs>
</svg>
