<svg width="251" height="106" viewBox="0 0 251 106" fill="none" xmlns="http://www.w3.org/2000/svg">
<g filter="url(#filter0_d_547_2300)">
<path d="M18.2159 58.0961C18.0967 51.2639 23.5386 45.6287 30.3708 45.5094V45.5094L30.6833 63.4145L18.3125 63.6304L18.2159 58.0961Z" fill="#E9E9EB" stroke="#E9E9EB" stroke-width="0.507339"/>
<rect x="18.3125" y="63.6304" width="12.3727" height="1.44854" transform="rotate(-1 18.3125 63.6304)" fill="#E9E9EB" stroke="#E9E9EB" stroke-width="0.507339"/>
<path d="M18.4345 70.6131C18.5537 77.4453 24.189 82.8872 31.0212 82.7679V82.7679L30.7087 64.8628L18.3379 65.0788L18.4345 70.6131Z" fill="#E9E9EB" stroke="#E9E9EB" stroke-width="0.507339"/>
<rect x="30.3708" y="45.5094" width="183.127" height="37.2642" transform="rotate(-1 30.3708 45.5094)" fill="#E9E9EB"/>
<path d="M39.8009 61.6976L39.7084 56.4006L40.9162 56.3795L41.127 68.4573L39.9192 68.4784L39.8207 62.8363L33.2642 62.9508L33.3627 68.5928L32.1549 68.6139L31.9441 56.5361L33.1519 56.515L33.2443 61.812L39.8009 61.6976ZM47.4549 59.5101C48.7432 59.4876 49.7806 59.924 50.5672 60.8193C51.3765 61.7026 51.7919 62.7597 51.8134 63.9905C51.8144 64.048 51.806 64.2265 51.7883 64.5259L44.2137 64.6582C44.3438 65.5189 44.724 66.2026 45.3541 66.7094C45.9843 67.2161 46.7653 67.4614 47.697 67.4451C49.0083 67.4223 49.9257 66.9172 50.4493 65.9301L51.4603 66.4992C51.0915 67.127 50.5767 67.625 49.9157 67.9932C49.2661 68.3498 48.5272 68.5352 47.699 68.5497C46.3417 68.5734 45.23 68.1671 44.364 67.3307C43.4979 66.4944 43.0534 65.4206 43.0305 64.1093C43.0078 62.8095 43.4089 61.7266 44.2338 60.8608C45.0584 59.9834 46.1321 59.5332 47.4549 59.5101ZM47.4742 60.6144C46.577 60.63 45.8282 60.9077 45.2278 61.4475C44.6389 61.9871 44.2944 62.6892 44.1945 63.5539L50.6302 63.4416C50.4876 62.5236 50.1244 61.8223 49.5407 61.3377C48.9337 60.842 48.2449 60.6009 47.4742 60.6144ZM57.6899 59.5386L64.9366 59.4121L65.0872 68.0391L63.9484 68.059L63.8171 60.5362L58.8479 60.6229L58.9792 68.1457L57.8405 68.1656L57.6899 59.5386ZM71.8789 59.0838C73.1097 59.0623 74.1641 59.4811 75.042 60.3403C75.9315 61.1992 76.3873 62.2613 76.4094 63.5266C76.4314 64.7919 76.013 65.8693 75.1541 66.7588C74.3066 67.648 73.2675 68.1034 72.0367 68.1249C70.5069 68.1516 69.3341 67.5392 68.5183 66.2878L68.608 71.4295L67.4693 71.4493L67.2585 59.3715L68.3972 59.3517L68.4267 61.0426C69.1983 59.7634 70.3491 59.1105 71.8789 59.0838ZM69.4985 66.0808C70.1656 66.725 70.9765 67.0388 71.9312 67.0221C72.8859 67.0055 73.6854 66.6636 74.3296 65.9965C74.9734 65.3064 75.2871 64.4897 75.2706 63.5465C75.2539 62.5918 74.912 61.7923 74.2449 61.1481C73.5777 60.4924 72.7666 60.1729 71.8119 60.1895C70.8572 60.2062 70.0578 60.5538 69.4138 61.2324C68.7696 61.8995 68.4558 62.7104 68.4725 63.6652C68.489 64.6084 68.831 65.4136 69.4985 66.0808ZM79.396 65.8045L84.4217 59.072L85.388 59.0551L85.5386 67.6821L84.3998 67.702L84.2838 61.0592L79.2581 67.7917L78.2919 67.8086L78.1413 59.1816L79.28 59.1617L79.396 65.8045ZM93.2698 63.1115C94.219 63.4401 94.7024 64.1048 94.7199 65.1055C94.7323 65.8187 94.5009 66.4038 94.0256 66.8608C93.5618 67.3177 92.9043 67.5535 92.0532 67.5684L87.8604 67.6416L87.7098 59.0146L91.5575 58.9474C92.3857 58.9329 93.0335 59.1345 93.5011 59.5521C93.9801 59.9694 94.2257 60.5232 94.2377 61.2134C94.2528 62.0761 93.9301 62.7088 93.2698 63.1115ZM91.5768 60.0517L88.8679 60.0989L88.9137 62.7216L91.6225 62.6743C92.6233 62.6568 93.1158 62.1995 93.1001 61.3023C93.0931 60.8997 92.9554 60.5914 92.687 60.3775C92.43 60.1518 92.0599 60.0432 91.5768 60.0517ZM88.9799 66.5174L92.0339 66.4641C92.54 66.4553 92.9232 66.3278 93.1836 66.0816C93.4554 65.8352 93.5875 65.4935 93.5799 65.0564C93.5727 64.6423 93.429 64.3226 93.1489 64.0974C92.8804 63.872 92.493 63.7637 91.9869 63.7725L88.9329 63.8258L88.9799 66.5174ZM96.8108 58.8557L102.988 58.7479L103.138 67.3749L102 67.3948L101.868 59.872L97.9688 59.9401L98.036 63.7877C98.0611 65.2256 97.8023 66.2196 97.2596 66.7699C96.7284 67.3199 95.9849 67.5688 95.0289 67.5164L95.0103 66.4467C95.6786 66.5041 96.1647 66.3345 96.4684 65.938C96.7722 65.5415 96.9151 64.8313 96.8972 63.8076L96.8108 58.8557ZM109.296 58.4307C110.584 58.4082 111.621 58.8446 112.408 59.7398C113.217 60.6232 113.633 61.6803 113.654 62.911C113.655 62.9686 113.647 63.147 113.629 63.4465L106.055 63.5787C106.185 64.4394 106.565 65.1232 107.195 65.6299C107.825 66.1367 108.606 66.382 109.538 66.3657C110.849 66.3428 111.767 65.8378 112.29 64.8506L113.301 65.4198C112.932 66.0476 112.417 66.5456 111.757 66.9138C111.107 67.2703 110.368 67.4558 109.54 67.4703C108.182 67.494 107.071 67.0876 106.205 66.2513C105.339 65.415 104.894 64.3411 104.871 63.0298C104.849 61.73 105.25 60.6472 106.075 59.7813C106.899 58.904 107.973 58.4538 109.296 58.4307ZM109.315 59.5349C108.418 59.5506 107.669 59.8283 107.069 60.3681C106.48 60.9076 106.135 61.6098 106.035 62.4745L112.471 62.3621C112.328 61.4441 111.965 60.7428 111.381 60.2583C110.774 59.7626 110.086 59.5215 109.315 59.5349ZM117.722 62.6329L122.425 67.0382L120.906 67.0648L116.52 62.9818L116.593 67.14L115.454 67.1599L115.303 58.5329L116.442 58.513L116.509 62.3262L120.549 58.4414L122.102 58.4143L117.722 62.6329ZM130.332 59.962L130.303 58.2711L131.442 58.2512L131.592 66.8782L130.454 66.8981L130.424 65.2072C129.652 66.4864 128.502 67.1393 126.972 67.166C125.741 67.1875 124.681 66.7687 123.791 65.9098C122.914 65.0507 122.464 63.9884 122.441 62.7231C122.419 61.4578 122.832 60.3806 123.679 59.4913C124.538 58.6018 125.583 58.1464 126.814 58.1249C128.344 58.0982 129.517 58.7106 130.332 59.962ZM124.606 65.1189C125.273 65.7631 126.084 66.0769 127.039 66.0602C127.994 66.0436 128.793 65.7017 129.437 65.0346C130.081 64.3445 130.395 63.5278 130.378 62.5846C130.362 61.6299 130.02 60.8304 129.353 60.1862C128.685 59.5305 127.874 59.211 126.92 59.2276C125.965 59.2443 125.166 59.5919 124.522 60.2705C123.877 60.9376 123.564 61.7485 123.58 62.7033C123.597 63.6465 123.939 64.4517 124.606 65.1189ZM137.749 57.934C139.037 57.9115 140.074 58.3479 140.861 59.2432C141.67 60.1265 142.086 61.1836 142.107 62.4144C142.108 62.4719 142.1 62.6504 142.082 62.9499L134.507 63.0821C134.638 63.9428 135.018 64.6265 135.648 65.1333C136.278 65.6401 137.059 65.8853 137.991 65.8691C139.302 65.8462 140.219 65.3411 140.743 64.354L141.754 64.9231C141.385 65.5509 140.87 66.0489 140.209 66.4171C139.56 66.7737 138.821 66.9592 137.993 66.9736C136.635 66.9973 135.524 66.591 134.658 65.7546C133.792 64.9183 133.347 63.8445 133.324 62.5332C133.302 61.2334 133.703 60.1505 134.527 59.2847C135.352 58.4073 136.426 57.9571 137.749 57.934ZM137.768 59.0383C136.871 59.0539 136.122 59.3317 135.521 59.8714C134.933 60.411 134.588 61.1131 134.488 61.9778L140.924 61.8655C140.781 60.9475 140.418 60.2462 139.834 59.7616C139.227 59.2659 138.539 59.0248 137.768 59.0383ZM142.384 58.0602L149.631 57.9337L149.65 59.038L146.596 59.0913L146.727 66.614L145.589 66.6339L145.457 59.1112L142.403 59.1645L142.384 58.0602ZM151.582 65.7526C151.586 66.0172 151.498 66.2431 151.317 66.4304C151.136 66.6176 150.914 66.7136 150.649 66.7182C150.385 66.7228 150.159 66.6347 149.971 66.4539C149.784 66.273 149.688 66.0503 149.684 65.7858C149.679 65.5212 149.767 65.2953 149.948 65.108C150.129 64.9208 150.351 64.8249 150.616 64.8202C150.881 64.8156 151.106 64.9037 151.294 65.0846C151.481 65.2654 151.577 65.4881 151.582 65.7526ZM155.472 65.6847C155.476 65.9493 155.388 66.1752 155.207 66.3625C155.027 66.5497 154.804 66.6457 154.539 66.6503C154.275 66.6549 154.049 66.5668 153.862 66.386C153.674 66.2051 153.578 65.9824 153.574 65.7179C153.569 65.4533 153.657 65.2274 153.838 65.0401C154.019 64.8529 154.242 64.757 154.506 64.7523C154.771 64.7477 154.997 64.8358 155.184 65.0167C155.371 65.1975 155.467 65.4202 155.472 65.6847ZM159.362 65.6168C159.367 65.8814 159.279 66.1073 159.098 66.2946C158.917 66.4818 158.694 66.5778 158.43 66.5824C158.165 66.587 157.939 66.4989 157.752 66.3181C157.565 66.1372 157.469 65.9145 157.464 65.65C157.459 65.3854 157.548 65.1595 157.728 64.9722C157.909 64.785 158.132 64.689 158.396 64.6844C158.661 64.6798 158.887 64.7679 159.074 64.9487C159.261 65.1296 159.357 65.3523 159.362 65.6168Z" fill="black"/>
<rect x="30.3708" y="45.5094" width="183.127" height="37.2642" transform="rotate(-1 30.3708 45.5094)" stroke="#E9E9EB" stroke-width="0.507339"/>
<path d="M226.057 54.4683C225.937 47.6361 220.302 42.1942 213.47 42.3135V42.3135L213.783 60.2186L226.153 60.0026L226.057 54.4683Z" fill="#E9E9EB" stroke="#E9E9EB" stroke-width="0.507339"/>
<rect width="12.3727" height="1.44854" transform="matrix(-0.999848 0.0174524 0.0174524 0.999848 226.153 60.0026)" fill="#E9E9EB" stroke="#E9E9EB" stroke-width="0.507339"/>
<path fill-rule="evenodd" clip-rule="evenodd" d="M226.092 69.3475C226.226 68.5815 226.29 67.7917 226.276 66.9852L226.179 61.4508L213.808 61.6668L214.121 79.5719C217.116 79.5196 219.845 78.4068 221.954 76.5977C224.115 77.983 227.562 79.2755 231.686 78.4511C230.538 77.9827 226.092 75.1295 226.153 69.2668C226.133 69.2943 226.113 69.3212 226.092 69.3475Z" fill="#E9E9EB"/>
<path d="M226.092 69.3475L226.29 69.5057L225.842 69.3038L226.092 69.3475ZM226.179 61.4508L226.174 61.1972L226.428 61.1928L226.433 61.4464L226.179 61.4508ZM213.808 61.6668L213.554 61.6712L213.55 61.4176L213.804 61.4131L213.808 61.6668ZM214.121 79.5719L214.125 79.8255L213.871 79.8299L213.867 79.5763L214.121 79.5719ZM221.954 76.5977L221.789 76.4051L221.932 76.2823L222.091 76.3842L221.954 76.5977ZM231.686 78.4511L231.782 78.2163L232.562 78.5347L231.736 78.6999L231.686 78.4511ZM226.153 69.2668L225.945 69.1212L226.415 68.4509L226.406 69.2694L226.153 69.2668ZM226.529 66.9807C226.544 67.8035 226.479 68.6094 226.342 69.3913L225.842 69.3038C225.974 68.5536 226.036 67.7799 226.022 66.9896L226.529 66.9807ZM226.433 61.4464L226.529 66.9807L226.022 66.9896L225.925 61.4553L226.433 61.4464ZM213.804 61.4131L226.174 61.1972L226.183 61.7045L213.813 61.9204L213.804 61.4131ZM213.867 79.5763L213.554 61.6712L214.062 61.6623L214.374 79.5675L213.867 79.5763ZM222.119 76.7902C219.967 78.6364 217.182 79.7721 214.125 79.8255L214.116 79.3182C217.051 79.267 219.723 78.1773 221.789 76.4051L222.119 76.7902ZM231.736 78.6999C227.531 79.5404 224.017 78.222 221.817 76.8112L222.091 76.3842C224.212 77.744 227.593 79.0107 231.636 78.2024L231.736 78.6999ZM226.406 69.2694C226.377 72.1307 227.445 74.2531 228.661 75.7199C229.883 77.1929 231.247 77.998 231.782 78.2163L231.59 78.686C230.977 78.4358 229.545 77.5801 228.271 76.0437C226.992 74.5012 225.868 72.2656 225.899 69.2642L226.406 69.2694ZM225.894 69.1894C225.912 69.1671 225.929 69.1444 225.945 69.1212L226.36 69.4124C226.338 69.4443 226.315 69.4754 226.29 69.5057L225.894 69.1894Z" fill="#E9E9EB"/>
</g>
<g filter="url(#filter1_d_547_2300)">
<path d="M189.629 69.4791C203.569 69.4791 214.869 58.179 214.869 44.2396C214.869 30.3001 203.569 19 189.629 19C175.69 19 164.39 30.3001 164.39 44.2396C164.39 58.179 175.69 69.4791 189.629 69.4791Z" fill="#FFCC4D"/>
<path d="M198.743 45.6417C203.003 45.6417 206.455 42.1889 206.455 37.9296C206.455 33.6703 203.003 30.2175 198.743 30.2175C194.484 30.2175 191.031 33.6703 191.031 37.9296C191.031 42.1889 194.484 45.6417 198.743 45.6417Z" fill="#F4F7F9"/>
<path d="M180.515 45.6417C184.774 45.6417 188.227 42.1889 188.227 37.9296C188.227 33.6703 184.774 30.2175 180.515 30.2175C176.255 30.2175 172.802 33.6703 172.802 37.9296C172.802 42.1889 176.255 45.6417 180.515 45.6417Z" fill="#F4F7F9"/>
<path d="M196.793 51.845C192.919 50.9098 184.351 51.7609 181.142 58.0217C181.027 58.2433 181.086 58.5167 181.282 58.6723C181.377 58.7495 181.494 58.7873 181.61 58.7873C181.729 58.7873 181.85 58.7466 181.948 58.6653C186.272 55.0477 192.375 55.0477 196.02 55.0477C198.313 55.0477 199.576 55.0477 199.576 54.0549C199.576 53.0621 198.588 52.2769 196.793 51.845ZM179.113 37.2285C181.049 37.2285 182.618 35.6595 182.618 33.723C182.618 31.9675 181.324 30.526 179.64 30.2708C178.532 30.3956 177.5 30.7588 176.586 31.3028C175.983 31.9324 175.607 32.7821 175.607 33.723C175.607 35.6595 177.176 37.2285 179.113 37.2285ZM197.341 37.2285C199.278 37.2285 200.847 35.6595 200.847 33.723C200.847 31.9675 199.553 30.526 197.868 30.2708C196.762 30.3956 195.729 30.7588 194.816 31.3028C194.212 31.9324 193.836 32.7821 193.836 33.723C193.836 35.6595 195.405 37.2285 197.341 37.2285Z" fill="#65471B"/>
</g>
<defs>
<filter id="filter0_d_547_2300" x="0.203598" y="29.3231" width="250.116" height="76.5331" filterUnits="userSpaceOnUse" color-interpolation-filters="sRGB">
<feFlood flood-opacity="0" result="BackgroundImageFix"/>
<feColorMatrix in="SourceAlpha" type="matrix" values="0 0 0 0 0 0 0 0 0 0 0 0 0 0 0 0 0 0 127 0" result="hardAlpha"/>
<feOffset dy="5.07339"/>
<feGaussianBlur stdDeviation="8.87843"/>
<feComposite in2="hardAlpha" operator="out"/>
<feColorMatrix type="matrix" values="0 0 0 0 0 0 0 0 0 0 0 0 0 0 0 0 0 0 0.7 0"/>
<feBlend mode="normal" in2="BackgroundImageFix" result="effect1_dropShadow_547_2300"/>
<feBlend mode="normal" in="SourceGraphic" in2="effect1_dropShadow_547_2300" result="shape"/>
</filter>
<filter id="filter1_d_547_2300" x="139.15" y="0.971741" width="100.958" height="100.958" filterUnits="userSpaceOnUse" color-interpolation-filters="sRGB">
<feFlood flood-opacity="0" result="BackgroundImageFix"/>
<feColorMatrix in="SourceAlpha" type="matrix" values="0 0 0 0 0 0 0 0 0 0 0 0 0 0 0 0 0 0 127 0" result="hardAlpha"/>
<feOffset dy="7.2113"/>
<feGaussianBlur stdDeviation="12.6198"/>
<feComposite in2="hardAlpha" operator="out"/>
<feColorMatrix type="matrix" values="0 0 0 0 0 0 0 0 0 0 0 0 0 0 0 0 0 0 0.7 0"/>
<feBlend mode="normal" in2="BackgroundImageFix" result="effect1_dropShadow_547_2300"/>
<feBlend mode="normal" in="SourceGraphic" in2="effect1_dropShadow_547_2300" result="shape"/>
</filter>
</defs>
</svg>
