<svg xmlns="http://www.w3.org/2000/svg" width="593" height="598" fill="none">
  <rect width="291" height="59" x="101" y="530" fill="#CB11AB" rx="15"/>
  <path fill="#fff" d="m158 554 2-2h3l3 1c1 0 2 1 2 3l-1 2-2 1 3 1v3a5 5 0 0 1-1 4l-2 1h-2l-3-1-3-1 2-2 2 1 2 1h1l1-1 1-1v-1l-1-2-3-1h-2v-2h4l1-2v-2h-4l-2 1-1-1Zm16 14h-2l-1-1-1-1a4 4 0 0 1 0-3l1-1 2-1h2a9 9 0 0 1 3 0v-1l-1-2h-4l-2 1v-2l4-1 4 1 2 4v7a6 6 0 0 1-1 0h-1v-2a5 5 0 0 1-5 2Zm1-2h1l2-1v-2a8 8 0 0 0-3-1l-2 1-1 1 1 2h2Zm16-10h3l-5 6 5 6h-3l-4-5h-1v5h-2v-12h2v5h1l4-5Zm8 12h-2l-1-1-1-1a4 4 0 0 1 0-3l1-1 2-1h2a9 9 0 0 1 3 0v-1l-1-2h-4l-2 1-1-2 5-1 4 1 2 4v7a6 6 0 0 1-1 0h-1l-1-1v-1a5 5 0 0 1-4 2Zm0-2h2l2-1v-2a8 8 0 0 0-3-1l-2 1-1 1 1 2h1Zm9-9a5 5 0 0 1 5-1l1 1 1 1v3h-2l2 1 1 3v1l-1 1-2 1h-1c-2 0-3 0-4-2l1-1 3 1h1l1-2c0-1-1-2-3-2h-1v-1h1l2-1v-2h-1l-3 1-1-2Zm14 11h-2l-1-1-1-1a4 4 0 0 1 0-3l1-1 1-1h3a9 9 0 0 1 3 0v-1l-1-2h-4l-2 1-1-2 5-1 4 1 1 4v4l1 1v2a6 6 0 0 1-1 0h-1l-1-1v-1a5 5 0 0 1-4 2Zm0-2h2l1-1 1-1v-1a8 8 0 0 0-3-1l-2 1-1 1 1 2h1Zm14 2h-2v-10h-4v-2h10v2h-4v10Zm6-12h3v4h4l1 1 1 1v4l-1 1-1 1h-7v-12Zm5 10 1-1 1-1-1-1-1-1h-2v4h2Zm11-4 1-2 1-2 2-2h3l3 1 2 2-3 1-1-2h-3l-1 1-1 1v4l1 1 1 1a3 3 0 0 0 4-1v-1l3 1-2 2-3 1a6 6 0 0 1-5-2l-1-2-1-2Zm19 6h-2l-2-2a6 6 0 0 1-1-6l1-2 2-2h2a6 6 0 0 1 5 2l1 2a6 6 0 0 1 0 3h-9v1l1 1 1 1h3l1-1h3l-2 2-4 1Zm4-7a4 4 0 0 0-1-2l-1-1a4 4 0 0 0-4 1l-1 1v1h7Zm14-10-1 2-3 1-2-1-1-2h1l1 1 1 1 2-1v-1h2Zm-7 13 6-8h2v12h-2v-8l-6 8h-2v-12h2v8Zm20 4h-3v-5a7 7 0 0 1-2 1l-2-1h-1l-1-2v-5h2v3l1 2 1 1h1l1-1v-5h3v12Zm6 0h-2l-1-1-1-1a4 4 0 0 1 0-3l1-1 2-1h2a9 9 0 0 1 3 0v-1l-1-2h-4l-2 1v-2l4-1 4 1 2 4v7a6 6 0 0 1-1 0h-1v-1l-1-1-2 2h-2Zm1-2h1l2-1v-2a8 8 0 0 0-3-1l-2 1-1 1 1 2h2Zm8-4v-2l2-2 2-2h2l3 1 2 2-2 1-1-2h-3l-1 1-1 1v4l1 1 1 1a3 3 0 0 0 4-1v-1l2 1-2 2-3 1a6 6 0 0 1-4-2l-2-2v-2Z"/>
  <path fill="#BD39C9" d="m71 132 13 21 12-22 20-1-21 35 23 33-20 1-12-20-11 21-20 1 20-35-24-33 20-1Zm69 65c-5 0-10 0-14-2a35 35 0 0 1-22-31 33 33 0 0 1 9-24 35 35 0 0 1 38-10 35 35 0 0 1 19 18 34 34 0 0 1-16 45c-4 3-9 4-14 4Zm-17-34 1 7 4 6 5 3c2 1 4 2 7 1l7-1 4-5 3-6a23 23 0 0 0-1-13 15 15 0 0 0-8-9l-7-1c-3 0-5 0-7 2l-5 4-2 6-1 6Zm85-38 19-1 3 68-18 1-1-24a27 27 0 0 1-14 3l-10-1a18 18 0 0 1-12-12l-1-9-1-23 18-1 1 17 2 9c2 2 5 3 9 2l7-1-2-28Zm78 48v16l-48 2-4-68 48-2 1 16-29 2v9l25-1 1 15-25 1 1 11 30-1Zm89-57 3 68-86 5-4-68 19-1 3 51h15l-3-52 19-1 2 52 16-1-3-52 19-1Zm6 0 19-1 1 22h11c4-1 8 0 11 1a21 21 0 0 1 15 20c1 7-1 13-5 17s-10 7-17 7l-31 2-4-68Zm22 51 9-1c3 0 4 0 6-2l1-6-2-5-6-2-9 1 1 15Z"/>
  <path fill="#2A1432" d="M435 190 43 210l31 126 350-41 11-105Z"/>
  <g filter="url(#a)">
    <path fill="#BD39C9" d="M468 198 21 228l23 89 414-40 10-79Z"/>
  </g>
  <path fill="#fff" d="m58 257 20-2 2 24-5 1-1-20-11 1 2 20h-5l-2-24Zm38 21a11 11 0 0 1-9-3 13 13 0 0 1-3-13l2-4a12 12 0 0 1 8-4l5 1 4 2a13 13 0 0 1 3 13l-2 4-4 3-4 1Zm-8-11 1 3 1 2 2 2h3a6 6 0 0 0 5-3l2-2a10 10 0 0 0-1-6l-2-3-2-1-3-1-3 1-2 2-1 3v3Zm42 2v3l-2 2-2 1-3 1-12 1-2-24 13-1h2l2 1 1 2 1 3-1 3-2 2a6 6 0 0 1 5 6Zm-5 0v-2l-1-1h-9l1 7 6-1h2l1-1a3 3 0 0 0 0-2Zm-11-12 1 6 6-1 2-1 1-2-1-2-2-1-7 1Zm19-6h5v8h8l3 1 2 3 1 3v3a7 7 0 0 1-4 4l-4 1-9 1-2-24Zm22 22-1-24h4l2 24h-5Zm-16-2 5-1 2-1 1-3-1-3-3-1-4 1v8Zm24-11a13 13 0 0 1 3-8 12 12 0 0 1 14-3c2 0 3 2 4 3l-4 3a6 6 0 0 0-4-3 7 7 0 0 0-5 1l-2 2-1 2a10 10 0 0 0 1 6l1 3 3 1 3 1a8 8 0 0 0 3-1l1-2 1-1 4 2-1 2-2 2a12 12 0 0 1-11 1 13 13 0 0 1-8-11Zm30 3 11-18h4l2 24h-5l-1-16-11 17-4 1-2-24 5-1 1 17Zm39-16-8 1 2 20h-5l-2-20-7 1-1-4 20-2 1 4Zm3-4 4-1 1 9 5-1 3 1 3 1 2 2 1 4-1 3a7 7 0 0 1-4 4l-3 1-9 1-2-24Zm6 19h4l3-1 1-3-1-3-3-1-5 1 1 7Zm24-22 19-1 2 24h-4l-2-20-10 1 1 20h-4l-2-24Zm27 22-2-24 10-1 3 1 3 2a8 8 0 0 1 3 5 9 9 0 0 1-2 6l-2 2h-3l-6 1 1 8h-5Zm4-12 5-1 2-1 1-3a5 5 0 0 0-1-3h-8l1 8Zm28 10a11 11 0 0 1-9-3 13 13 0 0 1-3-13l2-4a12 12 0 0 1 8-4h5l4 3a13 13 0 0 1 3 13l-2 4-4 3-4 1Zm-8-12v3l2 3 2 1 3 1a6 6 0 0 0 5-3l2-3a9 9 0 0 0-1-6l-2-2-2-2h-3l-3 1-2 2-1 2v3Zm20 7h1l2-1 1-2v-4l1-7v-7l14-1 2 20h4v10h-4l-1-6-15 1v6l-4 1-1-10Zm16-2-1-15h-6v11l-2 5 9-1Zm17-21h4l11 23h-4l-3-6-9 1-1 6-5 1 7-25Zm7 14-4-9-3 10 7-1Zm16-4-9-11 6-1 7 10h2v-10l5-1v10h3l5-11h6l-7 12 9 12h-5l-7-9h-3v10l-4 1-1-10h-3l-6 10-5 1 7-13Zm34 2 11-18h4l2 24-5 1-1-17-11 18h-4l-2-24 5-1 1 17Z"/>
  <path fill="#2A1432" d="m81 359 308-18c18-2 33 14 32 32l-7 97c-1 16-14 28-30 28H101c-14 0-26-10-29-23l-19-79c-4-18 9-36 28-37Z"/>
  <path fill="#fff" d="m92 390 2-1 3-1 3 1 1 3v2l-2 1 2 2 1 2a5 5 0 0 1-1 4 6 6 0 0 1-4 1h-3l-2-2 2-1 1 1h2a4 4 0 0 0 2-1 3 3 0 0 0 1-2l-1-2-3-1h-1v-1h1l2-1 1-2v-2h-4l-1 2-2-2Zm16 14h-2l-1-1-1-1v-3l1-1 2-1h2a10 10 0 0 1 3 0v-1l-1-2-2-1-4 2-1-1 5-2 3 1 2 3v5l1 1v1a18 18 0 0 1-1 1l-1-1-1-1-2 1-2 1Zm0-2h2l2-1v-3h-3l-2 1-1 1v2a3 3 0 0 0 2 0Zm16-10h2l-5 5 5 6h-2l-4-5h-1v5h-2v-11h2v5h1l4-5Zm7 11h-2l-1-1-1-1v-3l1-1 2-1h2a10 10 0 0 1 3 0v-1l-1-2h-2l-4 1-1-1 5-2 3 1 2 4v4l1 1v2a17 17 0 0 1-1 0l-1-1h-1v-1l-2 1-2 1Zm0-1 2-1 2-1v-2l-3-1-2 1-1 1v2a3 3 0 0 0 2 1Zm8-10 3-1h3l1 2-1 2-1 1 2 1 1 2a3 3 0 0 1-1 3h-2l-1 1-4-2 1-1 1 1h2l1-1 1-1-1-2h-3v-2h2l1-1-1-1-1-1-2 1-1-1Zm10-1h2v4h2a4 4 0 0 1 3 0l1 2v3a3 3 0 0 1-2 2h-6v-11Zm9-1h2v12h-2v-12Zm-5 10h2v-2l-1-1-1-1h-2v5l2-1Zm16-10h1l1 1 1 1v2a3 3 0 0 1-1 1h-1l2 1v5h-2l-1 1h-6v-12h6Zm-1 5 2-1v-2l-2-1-3 1v3h3Zm1 5 1-1 1-1-1-1-1-1h-4v4h4Zm9 1h-2l-1-1-1-1v-2l1-2h2l2-1a10 10 0 0 1 3 1v-1l-1-2-2-1-4 1-1-1 5-2 3 2c1 0 2 1 2 3v5h1v2a17 17 0 0 1-1 0h-1l-1-1v-1l-2 2h-2Zm0-1h2l2-2v-2l-3-1-2 1-1 2v1h1a3 3 0 0 0 1 1Zm17-15-1 1-2 1h-3l-1-2h2v1h3l1-1h1Zm-6 13 6-9h2v12h-2v-9l-6 9h-2v-12h2v9Zm15 1h1l1-1 1-1v-8l8-1v10h1l1 5-2 1v-4h-9v4h-1l-1-5Zm9-1v-8h-4v3l-1 3v2h5Zm8-1 5-9h2v11l-1 1-1-9-6 9h-1l-1-12h2l1 9Zm10-8 3-1h2l1 2v2l-2 1 2 1 1 2a3 3 0 0 1-1 2l-1 1h-2c-1 1-3 0-3-1l1-1 1 1h1l2-1v-1l-1-2h-2l-1-2h3l1-2-1-1h-1l-2 1-1-1Zm13 10h-2l-1-1-1-1v-3l1-1 1-1h2a10 10 0 0 1 4 0l-1-3h-3l-3 1-1-1 4-2 4 1 1 4 1 4v3a18 18 0 0 1-1 0l-1-1v-1l-2 2h-2Zm0-1 2-1 1-1 1-1v-1l-3-1-3 1-1 1 1 1v1a3 3 0 0 0 2 1Zm17-16-1 2-3 1-2-1-1-2h1l1 2h3l1-2h1Zm-6 14 6-9h1l1 11h-2l-1-8-5 9h-2l-1-12h2l1 9Zm12-5h6v-5h2v12h-2v-5h-6l1 5h-2l-1-11h2v4Zm16 1v-3a6 6 0 0 1 3-3h6l2 2-2 1-1-1-2-1-2 1-1 1-1 1a5 5 0 0 0 1 5l2 1a3 3 0 0 0 2 0 4 4 0 0 0 2-1v-1h2l-1 2-1 1a6 6 0 0 1-3 1 6 6 0 0 1-5-4l-1-2Zm18 5h-2a6 6 0 0 1-3-3 6 6 0 0 1 0-5l1-2 1-1 3-1a6 6 0 0 1 5 4 6 6 0 0 1 1 3h-10l1 1a4 4 0 0 0 2 2l1 1a4 4 0 0 0 2-1 3 3 0 0 0 1-1h2l-1 1a5 5 0 0 1-2 2h-2Zm4-7-1-1a4 4 0 0 0-2-2 4 4 0 0 0-3 0l-1 1a4 4 0 0 0-1 3l8-1Zm12-10-1 2-2 1-3-1-1-1 2-1v2h3l1-2h1Zm-6 14 6-9h1l1 11h-2v-8l-6 9h-2v-12h2v9Zm18 2h-1l-1-5v1a4 4 0 0 1-1 0h-3l-1-1-1-2v-4h2v2l1 3h3v-5l2-1v12Zm7 0h-2l-1-1-1-1v-3l1-1 1-1h2a10 10 0 0 1 4 0v-1l-1-2-3-1-3 2-1-1 5-2 3 1 1 3 1 5v2a15 15 0 0 1-1 1l-1-1v-1l-2 1-2 1Zm0-2h2l1-1 1-1v-2h-3l-3 1-1 1 1 1v1a3 3 0 0 0 2 0Zm8-4v-3a6 6 0 0 1 3-3h5l2 2-1 1-2-1-1-1-2 1h-1l-1 2a5 5 0 0 0 1 5h1a3 3 0 0 0 3 1 4 4 0 0 0 1-1l1-1h2l-1 2h-1a6 6 0 0 1-3 1 6 6 0 0 1-6-3v-2Z"/>
  <path fill="#C1C5CF" d="m357 397 1-2h-1v-2h2v2l-1 2h-1ZM94 427a6 6 0 0 1 1-4 6 6 0 0 1 4-2l3 1 2 2h-2l-1-1h-2a4 4 0 0 0-3 1 5 5 0 0 0-1 3 5 5 0 0 0 1 4l2 1a4 4 0 0 0 3 0l1-1 1-1h1v1a5 5 0 0 1-3 2h-1a6 6 0 0 1-5-1l-1-2v-3Zm20 5-2 1v-5a6 6 0 0 1-3 0h-1a3 3 0 0 1-2-2v-5h1v3l1 2 2 1h1l1-1v-5h1l1 11Zm5-2 6-9h1l1 11h-2v-9l-6 9h-2v-11h1l1 9Zm15 2h-1v-10h-4v-2h9v1l-4 1v10Zm9 0-1-1h-2v-1l-1-2 1-1 1-1 1-1h2a10 10 0 0 1 3 0v-1l-1-2-2-1h-2l-2 1v-1l4-1 3 1 2 3v5l1 1v1h-2v-2l-2 2-3 1Zm1-2h2l1-1v-3a9 9 0 0 0-3 0h-2l-1 2v1l1 1a3 3 0 0 0 2 0Zm16-15-1 2h-4l-1-2h1v1l2 1 1-1 1-1h1Zm-6 14 6-10h1l1 12h-2v-9l-6 9h-2v-11h1l1 9Zm26 1h-2v-10h-6v10h-1l-1-11h9l1 11Zm9 0-3-1-1-1v7h-2v-16h1v2l2-2 2-1 3 1 1 1 2 2v4a6 6 0 0 1-3 4h-2Zm0-1 1-1 1-1 1-1a5 5 0 0 0 0-4l-1-1-1-1h-3a5 5 0 0 0-2 1l-1 1 1 4v1l1 1 1 1h2Zm9-2 7-9h1v11h-1v-9l-7 10h-1l-1-12h2v9Zm17-12c-2 0-3 1-3 2l-2 3 2-1 2-1h2l2 1 1 2 1 2-1 3a5 5 0 0 1-2 3h-3l-3-1-2-5v-4l1-3 2-1 3-2h3v1l-3 1Zm-4 9v1l1 2 1 1h3l1-1 1-2v-1l-1-4-3-1-1 1-1 1-1 1v2Zm11-7h2v4h4l1 1 1 1v3l-1 1-1 1-2 1h-4v-12Zm9 0h2v11h-1l-1-11Zm-5 10h2l1-2-1-2-2-1-2 1v4h2Zm9 0h1l1-1v-3l1-3v-3l7-1v12h-1l-1-10h-4v6l-1 3-1 1h-2v-1Zm13-11h1l1 4h4l1 1 1 1v3l-1 2h-1l-2 1h-4v-12Zm4 10h2l1-2-1-2h-4v4h2Zm13-1 7-10h1l1 12h-2v-9l-7 9h-1v-11h1v9Zm27 1h-2v-10h-6v11h-1l-1-12h9l1 11Zm8 0a6 6 0 0 1-4-1 6 6 0 0 1-2-5v-2l1-2 2-1 2-1 3 1 2 1 1 2v2a6 6 0 0 1-1 4l-2 2h-2Zm-5-6a5 5 0 0 0 2 4l1 1a4 4 0 0 0 3-1 4 4 0 0 0 3-2 5 5 0 0 0-1-4 5 5 0 0 0-2-2h-3l-1 1-1 2-1 1Zm11 4h1l1-1v-2l1-4v-3h7v11h-1l-1-10h-3l-1 3v4l-1 2-1 1-2 1v-2Zm14 4a2 2 0 0 0 1 1h1v-1l1-1v-2l-5-11h1l5 10 4-10 1-1-5 14-1 1v1l-1 1h-2v-2Zm19-3h-2v-5a6 6 0 0 1-3 0h-1a3 3 0 0 1-2-2l-1-1v-4h2v3l1 3h3l1-1v-5h1l1 12Zm6 0-2-1h-1l-1-1v-3l1-1 2-1h2a11 11 0 0 1 3 0v-1l-1-2-2-1h-2l-2 1-1-1 5-1 3 1 2 3v7h-1l-1-1v-1l-2 2-2 1Zm0-2h2l2-1v-3a9 9 0 0 0-3-1l-3 1-1 2a2 2 0 0 0 1 2 3 3 0 0 0 2 0Zm16-15v2h-5l-1-2h1l1 1h3l1-1Zm-6 14 7-10h1l1 12h-2v-9l-7 9h-1v-11h1v9Zm-250 40h-2v-10h-6v10h-1l-1-11 9-1 1 12Zm8 0a6 6 0 0 1-4-2 6 6 0 0 1-2-4v-2l1-2 2-2h5l2 1 1 2v3a6 6 0 0 1-1 4l-2 1-2 1Zm-4-6a5 5 0 0 0 1 3l1 1a4 4 0 0 0 3 0 4 4 0 0 0 3-3 5 5 0 0 0-1-3 5 5 0 0 0-2-3h-1l-2 1-1 1-1 1v2Zm17-6a3 3 0 0 1 3 1v3l-1 1 1 1 1 2a3 3 0 0 1-1 2l-1 1h-7v-11h5Zm0 5 1-1 1-1-1-2h-5v4h4Zm0 5h1a2 2 0 0 0 1-1v-3h-6l1 4h3Zm6-11h2v4h4l1 1 1 1v3l-1 2h-1l-1 1h-4l-1-12Zm9 0h2v11h-1l-1-11Zm-4 10h1l1-2-1-2h-4v4h3Zm10 1-1-11h2v10h4v-10h1l1 10h4v-11h1l1 12h-13Zm21 0-2-1a6 6 0 0 1-4-5 6 6 0 0 1 1-4l2-2h5l2 2a6 6 0 0 1 1 4l-9 1v1l1 2h1a4 4 0 0 0 3 0 4 4 0 0 0 2-1v-1l2 1-1 1-1 1-1 1h-2Zm4-7-1-2a4 4 0 0 0-2-2h-1a4 4 0 0 0-4 3v1h8Zm5 0h7l-1-5h2v11h-1v-5h-7v5h-1v-11h1v5Zm13-1h6v-5h2v12h-1l-1-6-6 1v5h-1l-1-12h2v5Zm11-5h1l1 4h4l1 1 1 1v3l-1 1-1 1h-6v-11Zm9 0h2v11h-1l-1-11Zm-5 10 2-1 1-1-1-2-2-1h-2v5h2Zm18-15-1 2h-4l-1-2h1v1h3l1-1h1Zm-6 14 6-10h2v12h-2v-10l-6 10h-2v-12h1l1 10Zm23 1h-3l-2-2 1 7h-2l-1-16h2v2l2-2 2-1 2 1 2 1 1 2 1 2-1 2a6 6 0 0 1-2 4h-2Zm-1-1h2l1-2a5 5 0 0 0 1-3 5 5 0 0 0-3-4h-2a5 5 0 0 0-2 2l-1 1v3l1 1 1 1 1 1h1Zm13 1-2-1a6 6 0 0 1-4-5 6 6 0 0 1 2-4l2-1 2-1h2l2 2a6 6 0 0 1 2 4l-10 1 1 1 1 2h1a4 4 0 0 0 3 1 4 4 0 0 0 1-2h2l-1 1-1 1-1 1h-2Zm4-7v-1a4 4 0 0 0-2-3h-2a4 4 0 0 0-4 3v1h8Zm3-4 2-1h4l1 2-1 2-1 1 2 1 1 2-1 1v1l-2 1h-3l-2-1 1-1 1 1h4v-2l-1-2h-3v-2h3v-3h-3l-1 1-1-1Zm10 13a2 2 0 0 0 1 1l1-1 1-1 1-2-6-11h2l4 10 4-11h1l-5 14v1l-1 1-1 1-2-1v-1Zm9-5h1l1-1 1-2v-7h7v11h-1v-10h-4v3l-1 4-1 2-1 1-1 1-1-2Zm13-10h2v4h4l1 1 1 1 1 1-1 2-1 1-1 1h-5l-1-11Zm5 10 1-1 1-2-1-1-1-1h-3v5h3Zm9 1h-2v-10h-4v-1l10-1v2h-4v10Zm9 0h-2l-1-1-1-1v-3l1-1 2-1h1a11 11 0 0 1 4 0v-1l-1-2-2-1h-2l-2 1-1-1 5-1 3 1 1 3 1 5v2h-1l-1-1v-1l-2 2-2 1Zm0-1 2-1 2-1v-3a9 9 0 0 0-3 0h-3l-1 2a2 2 0 0 0 1 2 3 3 0 0 0 2 1Zm13 0h-2v-10h-4v-1l9-1v2h-4l1 10Z"/>
  <circle cx="112.8" cy="105.9" r="5.3" stroke="#DBDBDB" stroke-width="1.9"/>
  <circle cx="459.2" cy="391.2" r="5.3" stroke="#DBDBDB" stroke-width="1.9"/>
  <path fill="#CB11AB" d="m448 525-28 12 23 9 5-21Z"/>
  <path fill="#EDEDED" d="m424 524 9-24 14 8-23 16Z"/>
  <path stroke="#fff" stroke-linecap="round" stroke-width="1.1" d="M16 152v8m0 7v8m-3-11H4m24 0h-8m37 409v9m0 7v8m-3-12h-9m24 0h-8"/>
  <path stroke="#fff" stroke-linecap="round" stroke-width=".7" d="M566 59v5m0 4v4m-2-6h-5m14 0h-5"/>
  <path fill="#BD39C9" fill-opacity=".1" d="M447 225c1-8 5-15 11-22s12-12 18-16c7-3 12-8 18-12 6-5 9-10 10-15 1-10-4-16-16-18s-23 5-33 20l-42-33c9-16 21-27 36-33 15-7 32-9 49-6 19 3 35 11 47 24s17 28 14 47c-2 8-4 16-9 23-4 6-9 12-14 16a297 297 0 0 1-30 22c-4 3-7 7-7 11l-52-8Zm37 80a32 32 0 0 1-50-31c1-8 5-15 12-20 8-6 16-8 24-6 9 1 16 5 21 12s7 15 6 24-5 16-13 21Z"/>
  <path fill="#BD39C9" d="m471 101-41 25 40 8 1-33Z"/>
  <path fill="#EDEDED" d="m433 105 9-40 23 9-32 31Z"/>
  <defs>
    <filter id="a" width="487.4" height="159.5" x=".8" y="182" color-interpolation-filters="sRGB" filterUnits="userSpaceOnUse">
      <feFlood flood-opacity="0" result="BackgroundImageFix"/>
      <feColorMatrix in="SourceAlpha" result="hardAlpha" values="0 0 0 0 0 0 0 0 0 0 0 0 0 0 0 0 0 0 127 0"/>
      <feOffset dy="4"/>
      <feGaussianBlur stdDeviation="10"/>
      <feComposite in2="hardAlpha" operator="out"/>
      <feColorMatrix values="0 0 0 0 0 0 0 0 0 0 0 0 0 0 0 0 0 0 0.25 0"/>
      <feBlend in2="BackgroundImageFix" result="effect1_dropShadow_579_2289"/>
      <feBlend in="SourceGraphic" in2="effect1_dropShadow_579_2289" result="shape"/>
    </filter>
  </defs>
</svg>
