<svg width="84" height="45" viewBox="0 0 84 45" fill="none" xmlns="http://www.w3.org/2000/svg">
<path d="M22 3.6V12H20.356V6.552L17.992 10.452H17.8L15.436 6.564V12H13.78V3.6H15.484L17.896 7.572L20.296 3.6H22ZM28.0532 6H29.6012V12H28.0532V11.292C27.5892 11.876 26.9372 12.168 26.0972 12.168C25.2972 12.168 24.6092 11.864 24.0332 11.256C23.4652 10.64 23.1812 9.888 23.1812 9C23.1812 8.112 23.4652 7.364 24.0332 6.756C24.6092 6.14 25.2972 5.832 26.0972 5.832C26.9372 5.832 27.5892 6.124 28.0532 6.708V6ZM25.1972 10.224C25.5092 10.536 25.9052 10.692 26.3852 10.692C26.8652 10.692 27.2612 10.536 27.5732 10.224C27.8932 9.904 28.0532 9.496 28.0532 9C28.0532 8.504 27.8932 8.1 27.5732 7.788C27.2612 7.468 26.8652 7.308 26.3852 7.308C25.9052 7.308 25.5092 7.468 25.1972 7.788C24.8852 8.1 24.7292 8.504 24.7292 9C24.7292 9.496 24.8852 9.904 25.1972 10.224ZM32.5529 7.032C32.6969 6.648 32.9329 6.36 33.2609 6.168C33.5969 5.976 33.9689 5.88 34.3769 5.88V7.608C33.9049 7.552 33.4809 7.648 33.1049 7.896C32.7369 8.144 32.5529 8.556 32.5529 9.132V12H31.0049V6H32.5529V7.032ZM40.8142 12H39.0142L36.8302 9.276V12H35.2822V3.6H36.8302V8.64L38.8942 6H40.7422L38.3302 8.964L40.8142 12ZM42.4613 9.636C42.6693 10.388 43.2333 10.764 44.1533 10.764C44.7453 10.764 45.1933 10.564 45.4973 10.164L46.7453 10.884C46.1533 11.74 45.2813 12.168 44.1293 12.168C43.1373 12.168 42.3413 11.868 41.7413 11.268C41.1413 10.668 40.8413 9.912 40.8413 9C40.8413 8.096 41.1373 7.344 41.7293 6.744C42.3213 6.136 43.0813 5.832 44.0093 5.832C44.8893 5.832 45.6133 6.136 46.1813 6.744C46.7573 7.352 47.0453 8.104 47.0453 9C47.0453 9.2 47.0253 9.412 46.9853 9.636H42.4613ZM42.4373 8.436H45.4973C45.4093 8.028 45.2253 7.724 44.9453 7.524C44.6733 7.324 44.3613 7.224 44.0093 7.224C43.5933 7.224 43.2493 7.332 42.9773 7.548C42.7053 7.756 42.5253 8.052 42.4373 8.436ZM51.3822 7.488H50.0262V9.984C50.0262 10.192 50.0782 10.344 50.1822 10.44C50.2862 10.536 50.4382 10.592 50.6382 10.608C50.8382 10.616 51.0862 10.612 51.3822 10.596V12C50.3182 12.12 49.5662 12.02 49.1262 11.7C48.6942 11.38 48.4782 10.808 48.4782 9.984V7.488H47.4342V6H48.4782V4.788L50.0262 4.32V6H51.3822V7.488ZM53.2416 5.28C52.9856 5.28 52.7616 5.188 52.5696 5.004C52.3856 4.812 52.2936 4.588 52.2936 4.332C52.2936 4.076 52.3856 3.852 52.5696 3.66C52.7616 3.468 52.9856 3.372 53.2416 3.372C53.5056 3.372 53.7296 3.468 53.9136 3.66C54.1056 3.852 54.2016 4.076 54.2016 4.332C54.2016 4.588 54.1056 4.812 53.9136 5.004C53.7296 5.188 53.5056 5.28 53.2416 5.28ZM52.4736 12V6H54.0216V12H52.4736ZM58.7745 5.832C59.4305 5.832 59.9705 6.052 60.3945 6.492C60.8265 6.932 61.0425 7.54 61.0425 8.316V12H59.4945V8.508C59.4945 8.108 59.3865 7.804 59.1705 7.596C58.9545 7.38 58.6665 7.272 58.3065 7.272C57.9065 7.272 57.5865 7.396 57.3465 7.644C57.1065 7.892 56.9865 8.264 56.9865 8.76V12H55.4385V6H56.9865V6.672C57.3625 6.112 57.9585 5.832 58.7745 5.832ZM66.9603 6H68.4723V11.712C68.4723 12.64 68.1643 13.348 67.5483 13.836C66.9403 14.324 66.2043 14.568 65.3403 14.568C64.6923 14.568 64.1203 14.444 63.6243 14.196C63.1363 13.948 62.7603 13.584 62.4963 13.104L63.8163 12.348C64.1203 12.908 64.6443 13.188 65.3883 13.188C65.8763 13.188 66.2603 13.06 66.5403 12.804C66.8203 12.548 66.9603 12.184 66.9603 11.712V11.064C66.5043 11.672 65.8643 11.976 65.0403 11.976C64.1923 11.976 63.4803 11.68 62.9043 11.088C62.3363 10.488 62.0522 9.76 62.0522 8.904C62.0522 8.056 62.3403 7.332 62.9163 6.732C63.4923 6.132 64.2003 5.832 65.0403 5.832C65.8643 5.832 66.5043 6.136 66.9603 6.744V6ZM64.0683 10.092C64.3883 10.396 64.7923 10.548 65.2803 10.548C65.7683 10.548 66.1683 10.396 66.4803 10.092C66.8003 9.78 66.9603 9.384 66.9603 8.904C66.9603 8.432 66.8003 8.044 66.4803 7.74C66.1683 7.428 65.7683 7.272 65.2803 7.272C64.7923 7.272 64.3883 7.428 64.0683 7.74C63.7563 8.044 63.6003 8.432 63.6003 8.904C63.6003 9.384 63.7563 9.78 64.0683 10.092ZM16.648 27.168C15.816 27.168 15.116 26.984 14.548 26.616C13.98 26.24 13.58 25.732 13.348 25.092L14.764 24.264C15.092 25.12 15.736 25.548 16.696 25.548C17.16 25.548 17.5 25.464 17.716 25.296C17.932 25.128 18.04 24.916 18.04 24.66C18.04 24.364 17.908 24.136 17.644 23.976C17.38 23.808 16.908 23.628 16.228 23.436C15.852 23.324 15.532 23.212 15.268 23.1C15.012 22.988 14.752 22.84 14.488 22.656C14.232 22.464 14.036 22.224 13.9 21.936C13.764 21.648 13.696 21.312 13.696 20.928C13.696 20.168 13.964 19.564 14.5 19.116C15.044 18.66 15.696 18.432 16.456 18.432C17.136 18.432 17.732 18.6 18.244 18.936C18.764 19.264 19.168 19.724 19.456 20.316L18.064 21.12C17.728 20.4 17.192 20.04 16.456 20.04C16.112 20.04 15.84 20.12 15.64 20.28C15.448 20.432 15.352 20.632 15.352 20.88C15.352 21.144 15.46 21.36 15.676 21.528C15.9 21.688 16.324 21.864 16.948 22.056C17.204 22.136 17.396 22.2 17.524 22.248C17.66 22.288 17.84 22.356 18.064 22.452C18.296 22.54 18.472 22.624 18.592 22.704C18.72 22.784 18.864 22.892 19.024 23.028C19.184 23.164 19.304 23.304 19.384 23.448C19.472 23.592 19.544 23.768 19.6 23.976C19.664 24.176 19.696 24.396 19.696 24.636C19.696 25.412 19.412 26.028 18.844 26.484C18.284 26.94 17.552 27.168 16.648 27.168ZM22.1762 24.636C22.3842 25.388 22.9482 25.764 23.8682 25.764C24.4602 25.764 24.9082 25.564 25.2122 25.164L26.4602 25.884C25.8682 26.74 24.9962 27.168 23.8442 27.168C22.8522 27.168 22.0562 26.868 21.4562 26.268C20.8562 25.668 20.5562 24.912 20.5562 24C20.5562 23.096 20.8522 22.344 21.4442 21.744C22.0362 21.136 22.7962 20.832 23.7242 20.832C24.6042 20.832 25.3282 21.136 25.8962 21.744C26.4722 22.352 26.7602 23.104 26.7602 24C26.7602 24.2 26.7402 24.412 26.7002 24.636H22.1762ZM22.1522 23.436H25.2122C25.1242 23.028 24.9402 22.724 24.6602 22.524C24.3882 22.324 24.0762 22.224 23.7242 22.224C23.3082 22.224 22.9642 22.332 22.6922 22.548C22.4202 22.756 22.2402 23.052 22.1522 23.436ZM29.3888 22.032C29.5328 21.648 29.7688 21.36 30.0968 21.168C30.4328 20.976 30.8048 20.88 31.2128 20.88V22.608C30.7408 22.552 30.3168 22.648 29.9408 22.896C29.5728 23.144 29.3888 23.556 29.3888 24.132V27H27.8408V21H29.3888V22.032ZM36.0662 21H37.7702L35.4902 27H33.7262L31.4462 21H33.1502L34.6022 25.2L36.0662 21ZM39.2846 20.28C39.0286 20.28 38.8046 20.188 38.6126 20.004C38.4286 19.812 38.3366 19.588 38.3366 19.332C38.3366 19.076 38.4286 18.852 38.6126 18.66C38.8046 18.468 39.0286 18.372 39.2846 18.372C39.5486 18.372 39.7726 18.468 39.9566 18.66C40.1486 18.852 40.2446 19.076 40.2446 19.332C40.2446 19.588 40.1486 19.812 39.9566 20.004C39.7726 20.188 39.5486 20.28 39.2846 20.28ZM38.5166 27V21H40.0646V27H38.5166ZM44.3374 27.168C43.4334 27.168 42.6774 26.864 42.0694 26.256C41.4694 25.648 41.1694 24.896 41.1694 24C41.1694 23.104 41.4694 22.352 42.0694 21.744C42.6774 21.136 43.4334 20.832 44.3374 20.832C44.9214 20.832 45.4534 20.972 45.9334 21.252C46.4134 21.532 46.7774 21.908 47.0254 22.38L45.6934 23.16C45.5734 22.912 45.3894 22.716 45.1414 22.572C44.9014 22.428 44.6294 22.356 44.3254 22.356C43.8614 22.356 43.4774 22.512 43.1734 22.824C42.8694 23.128 42.7174 23.52 42.7174 24C42.7174 24.472 42.8694 24.864 43.1734 25.176C43.4774 25.48 43.8614 25.632 44.3254 25.632C44.6374 25.632 44.9134 25.564 45.1534 25.428C45.4014 25.284 45.5854 25.088 45.7054 24.84L47.0494 25.608C46.7854 26.08 46.4134 26.46 45.9334 26.748C45.4534 27.028 44.9214 27.168 44.3374 27.168ZM49.0824 24.636C49.2904 25.388 49.8544 25.764 50.7744 25.764C51.3664 25.764 51.8144 25.564 52.1184 25.164L53.3664 25.884C52.7744 26.74 51.9024 27.168 50.7504 27.168C49.7584 27.168 48.9624 26.868 48.3624 26.268C47.7624 25.668 47.4624 24.912 47.4624 24C47.4624 23.096 47.7584 22.344 48.3504 21.744C48.9424 21.136 49.7024 20.832 50.6304 20.832C51.5104 20.832 52.2344 21.136 52.8024 21.744C53.3784 22.352 53.6664 23.104 53.6664 24C53.6664 24.2 53.6464 24.412 53.6064 24.636H49.0824ZM49.0584 23.436H52.1184C52.0304 23.028 51.8464 22.724 51.5664 22.524C51.2944 22.324 50.9824 22.224 50.6304 22.224C50.2144 22.224 49.8704 22.332 49.5984 22.548C49.3264 22.756 49.1464 23.052 49.0584 23.436ZM55.9407 22.704C55.9407 22.864 56.0447 22.996 56.2527 23.1C56.4687 23.196 56.7287 23.284 57.0327 23.364C57.3367 23.436 57.6407 23.532 57.9447 23.652C58.2487 23.764 58.5047 23.956 58.7127 24.228C58.9287 24.5 59.0367 24.84 59.0367 25.248C59.0367 25.864 58.8047 26.34 58.3407 26.676C57.8847 27.004 57.3127 27.168 56.6247 27.168C55.3927 27.168 54.5527 26.692 54.1047 25.74L55.4487 24.984C55.6247 25.504 56.0167 25.764 56.6247 25.764C57.1767 25.764 57.4527 25.592 57.4527 25.248C57.4527 25.088 57.3447 24.96 57.1287 24.864C56.9207 24.76 56.6647 24.668 56.3607 24.588C56.0567 24.508 55.7527 24.408 55.4487 24.288C55.1447 24.168 54.8847 23.98 54.6687 23.724C54.4607 23.46 54.3567 23.132 54.3567 22.74C54.3567 22.148 54.5727 21.684 55.0047 21.348C55.4447 21.004 55.9887 20.832 56.6367 20.832C57.1247 20.832 57.5687 20.944 57.9687 21.168C58.3687 21.384 58.6847 21.696 58.9167 22.104L57.5967 22.824C57.4047 22.416 57.0847 22.212 56.6367 22.212C56.4367 22.212 56.2687 22.256 56.1327 22.344C56.0047 22.432 55.9407 22.552 55.9407 22.704ZM22 33.6V42H20.356V36.552L17.992 40.452H17.8L15.436 36.564V42H13.78V33.6H15.484L17.896 37.572L20.296 33.6H22ZM28.0532 36H29.6012V42H28.0532V41.292C27.5892 41.876 26.9372 42.168 26.0972 42.168C25.2972 42.168 24.6092 41.864 24.0332 41.256C23.4652 40.64 23.1812 39.888 23.1812 39C23.1812 38.112 23.4652 37.364 24.0332 36.756C24.6092 36.14 25.2972 35.832 26.0972 35.832C26.9372 35.832 27.5892 36.124 28.0532 36.708V36ZM25.1972 40.224C25.5092 40.536 25.9052 40.692 26.3852 40.692C26.8652 40.692 27.2612 40.536 27.5732 40.224C27.8932 39.904 28.0532 39.496 28.0532 39C28.0532 38.504 27.8932 38.1 27.5732 37.788C27.2612 37.468 26.8652 37.308 26.3852 37.308C25.9052 37.308 25.5092 37.468 25.1972 37.788C24.8852 38.1 24.7292 38.504 24.7292 39C24.7292 39.496 24.8852 39.904 25.1972 40.224ZM32.5529 37.032C32.6969 36.648 32.9329 36.36 33.2609 36.168C33.5969 35.976 33.9689 35.88 34.3769 35.88V37.608C33.9049 37.552 33.4809 37.648 33.1049 37.896C32.7369 38.144 32.5529 38.556 32.5529 39.132V42H31.0049V36H32.5529V37.032ZM40.8142 42H39.0142L36.8302 39.276V42H35.2822V33.6H36.8302V38.64L38.8942 36H40.7422L38.3302 38.964L40.8142 42ZM42.4613 39.636C42.6693 40.388 43.2333 40.764 44.1533 40.764C44.7453 40.764 45.1933 40.564 45.4973 40.164L46.7453 40.884C46.1533 41.74 45.2813 42.168 44.1293 42.168C43.1373 42.168 42.3413 41.868 41.7413 41.268C41.1413 40.668 40.8413 39.912 40.8413 39C40.8413 38.096 41.1373 37.344 41.7293 36.744C42.3213 36.136 43.0813 35.832 44.0093 35.832C44.8893 35.832 45.6133 36.136 46.1813 36.744C46.7573 37.352 47.0453 38.104 47.0453 39C47.0453 39.2 47.0253 39.412 46.9853 39.636H42.4613ZM42.4373 38.436H45.4973C45.4093 38.028 45.2253 37.724 44.9453 37.524C44.6733 37.324 44.3613 37.224 44.0093 37.224C43.5933 37.224 43.2493 37.332 42.9773 37.548C42.7053 37.756 42.5253 38.052 42.4373 38.436ZM51.3822 37.488H50.0262V39.984C50.0262 40.192 50.0782 40.344 50.1822 40.44C50.2862 40.536 50.4382 40.592 50.6382 40.608C50.8382 40.616 51.0862 40.612 51.3822 40.596V42C50.3182 42.12 49.5662 42.02 49.1262 41.7C48.6942 41.38 48.4782 40.808 48.4782 39.984V37.488H47.4342V36H48.4782V34.788L50.0262 34.32V36H51.3822V37.488ZM56.0594 35.832C56.8674 35.832 57.5554 36.14 58.1234 36.756C58.6994 37.364 58.9874 38.112 58.9874 39C58.9874 39.888 58.6994 40.64 58.1234 41.256C57.5554 41.864 56.8674 42.168 56.0594 42.168C55.2194 42.168 54.5714 41.876 54.1154 41.292V44.4H52.5674V36H54.1154V36.708C54.5714 36.124 55.2194 35.832 56.0594 35.832ZM54.5834 40.224C54.8954 40.536 55.2914 40.692 55.7714 40.692C56.2514 40.692 56.6474 40.536 56.9594 40.224C57.2794 39.904 57.4394 39.496 57.4394 39C57.4394 38.504 57.2794 38.1 56.9594 37.788C56.6474 37.468 56.2514 37.308 55.7714 37.308C55.2914 37.308 54.8954 37.468 54.5834 37.788C54.2714 38.1 54.1154 38.504 54.1154 39C54.1154 39.496 54.2714 39.904 54.5834 40.224ZM60.0791 42V33.24H61.6271V42H60.0791ZM67.6039 36H69.1519V42H67.6039V41.292C67.1399 41.876 66.4879 42.168 65.6479 42.168C64.8479 42.168 64.1599 41.864 63.5839 41.256C63.0159 40.64 62.7319 39.888 62.7319 39C62.7319 38.112 63.0159 37.364 63.5839 36.756C64.1599 36.14 64.8479 35.832 65.6479 35.832C66.4879 35.832 67.1399 36.124 67.6039 36.708V36ZM64.7479 40.224C65.0599 40.536 65.4559 40.692 65.9359 40.692C66.4159 40.692 66.8119 40.536 67.1239 40.224C67.4439 39.904 67.6039 39.496 67.6039 39C67.6039 38.504 67.4439 38.1 67.1239 37.788C66.8119 37.468 66.4159 37.308 65.9359 37.308C65.4559 37.308 65.0599 37.468 64.7479 37.788C64.4359 38.1 64.2799 38.504 64.2799 39C64.2799 39.496 64.4359 39.904 64.7479 40.224ZM73.4117 42.168C72.5077 42.168 71.7517 41.864 71.1437 41.256C70.5437 40.648 70.2437 39.896 70.2437 39C70.2437 38.104 70.5437 37.352 71.1437 36.744C71.7517 36.136 72.5077 35.832 73.4117 35.832C73.9957 35.832 74.5277 35.972 75.0077 36.252C75.4877 36.532 75.8517 36.908 76.0997 37.38L74.7677 38.16C74.6477 37.912 74.4637 37.716 74.2157 37.572C73.9757 37.428 73.7037 37.356 73.3997 37.356C72.9357 37.356 72.5517 37.512 72.2477 37.824C71.9437 38.128 71.7917 38.52 71.7917 39C71.7917 39.472 71.9437 39.864 72.2477 40.176C72.5517 40.48 72.9357 40.632 73.3997 40.632C73.7117 40.632 73.9877 40.564 74.2277 40.428C74.4757 40.284 74.6597 40.088 74.7797 39.84L76.1237 40.608C75.8597 41.08 75.4877 41.46 75.0077 41.748C74.5277 42.028 73.9957 42.168 73.4117 42.168ZM78.1566 39.636C78.3646 40.388 78.9286 40.764 79.8486 40.764C80.4406 40.764 80.8886 40.564 81.1926 40.164L82.4406 40.884C81.8486 41.74 80.9766 42.168 79.8246 42.168C78.8326 42.168 78.0366 41.868 77.4366 41.268C76.8366 40.668 76.5366 39.912 76.5366 39C76.5366 38.096 76.8326 37.344 77.4246 36.744C78.0166 36.136 78.7766 35.832 79.7046 35.832C80.5846 35.832 81.3086 36.136 81.8766 36.744C82.4526 37.352 82.7406 38.104 82.7406 39C82.7406 39.2 82.7206 39.412 82.6806 39.636H78.1566ZM78.1326 38.436H81.1926C81.1046 38.028 80.9206 37.724 80.6406 37.524C80.3686 37.324 80.0566 37.224 79.7046 37.224C79.2886 37.224 78.9446 37.332 78.6726 37.548C78.4006 37.756 78.2206 38.052 78.1326 38.436Z" fill="white"/>
<path d="M0 10C0 6.68629 2.68629 4 6 4H7V36C7 39.3137 4.31371 42 1 42H0V10Z" fill="#9B35EB"/>
</svg>
