<svg xmlns="http://www.w3.org/2000/svg" width="84" height="45" fill="none">
  <path fill="#fff" d="M22 4v8h-2V7l-2 3-3-3v5h-1V4h1l3 4 2-4h2Zm6 2h2v6h-2v-1l-2 1-2-1-1-2 1-2 2-1 2 1V6Zm-3 4 1 1 2-1V8l-2-1-1 1v2Zm8-3V6h1v2h-1v4h-2V6h2v1Zm8 5h-2l-2-3v3h-2V4h2v5l2-3h2l-3 3 3 3Zm1-2 2 1 1-1 2 1-3 1-2-1-1-2a3 3 0 0 1 3-3l2 1 1 2v1h-5Zm0-2h3l-1-1-1 1h-1Zm9-1h-1v3l1 1v1h-2l-1-2V7h-1V6h1V5l2-1v2h1v1Zm2-2a1 1 0 0 1-1-1h1V3l1 1a1 1 0 0 1 0 1h-1Zm-1 7V6h2v6h-2Zm7-6h1l1 2v4h-2V8l-1-1-1 1v4h-2V6h2v1l2-1Zm8 0h1v8l-3 1-1-1-2-1 2-1 1 1h2v-2l-2 1-2-1-1-2a3 3 0 0 1 3-3l2 1V6Zm-3 4 1 1 1-1 1-1-1-1-1-1-1 1v2ZM17 27h-2l-2-2 2-1 2 2 1-1v-1l-2-1h-2v-2l1-2 1-1 2 1 1 1-1 1-2-1-1 1 1 1h1a12 12 0 0 1 2 1l1 1v1l-1 1-2 1Zm5-2 2 1 1-1 1 1-2 1-3-1v-2a3 3 0 0 1 3-3l2 1 1 2v1h-5Zm0-2h3l-1-1-1 1h-1Zm7-1 1-1h1v2h-1l-1 1v3h-1v-6h1v1Zm7-1h2l-3 6h-1l-3-6h2l2 4 1-4Zm3-1a1 1 0 0 1-1-1h1v-1l1 1a1 1 0 0 1 0 1h-1Zm0 7v-6h1v6h-1Zm5 0a3 3 0 0 1-3-3 3 3 0 0 1 3-3h2l1 1-1 1h-1l-1-1-1 1v2l1 1 1-1h1l1 1a3 3 0 0 1-3 1Zm5-2 2 1 1-1 1 1-2 1-3-1-1-2a3 3 0 0 1 4-3l2 1 1 2v1h-5Zm0-2h3l-1-1-1 1h-1Zm7 0h1l1 1h1v1l-1 2h-1l-3-1 1-1 2 1v-1h-1l-1-1-1-1 1-2h3l1 1-1 1-1-1h-1v1ZM22 34v8h-2v-5l-2 3-3-3v5h-1v-8h1l3 4 2-4h2Zm6 2h2v6h-2v-1l-2 1-2-1-1-2 1-2 2-1 2 1v-1Zm-3 4 1 1 2-1v-2l-2-1-1 1v2Zm8-3v-1h1v2h-1v4h-2v-6h2v1Zm8 5h-2l-2-3v3h-2v-8h2v5l2-3h2l-3 3 3 3Zm1-2 2 1 1-1 2 1-3 1-2-1-1-2a3 3 0 0 1 3-3l2 1 1 2v1h-5Zm0-2h3l-1-1-1 1h-1Zm9-1h-1v3l1 1v1h-2l-1-2v-3h-1v-1h1v-1l2-1v2h1v1Zm5-1 2 1 1 2-1 2-2 1-2-1v3h-1v-8h1v1l2-1Zm-1 4 1 1 1-1v-2l-1-1-1 1-1 1 1 1Zm5 2v-9h2v9h-2Zm8-6h1v6h-1v-1l-2 1-2-1-1-2 1-2 2-1 2 1v-1Zm-3 4 1 1 1-1 1-1-1-1-1-1-1 1-1 1 1 1Zm8 2a3 3 0 0 1-3-3 3 3 0 0 1 3-3h2l1 1-1 1h-1l-1-1-1 1v2l1 1 1-1h1l1 1a3 3 0 0 1-3 1Zm5-2 2 1 1-1 1 1-2 1-3-1v-2a3 3 0 0 1 3-3l2 1 1 2v1h-5Zm0-2h3l-1-1-1 1h-1Z"/>
  <path fill="#9B35EB" d="M0 10c0-3 3-6 6-6h1v32c0 3-3 6-6 6H0V10Z"/>
</svg>
