<svg xmlns="http://www.w3.org/2000/svg" width="670" height="670" fill="none">
  <g clip-path="url(#a)" opacity=".1">
    <path fill="#F4F7FA" fill-opacity=".1" d="M335 670a335 335 0 1 0 0-669 335 335 0 0 0 0 669Z"/>
    <path fill="url(#b)" d="M456 564c-9-6 13-59 32-94 16-30 36-54 41-51 4 2-1 19 3 21 5 2 16-29 26-28 7 1 12 13 12 25 1 21-16 35-54 71-48 47-56 59-60 56Z"/>
    <path fill="#fff" d="M471 530c5-15 5-25 14-35 8-8 13-6 22-16 11-11 7-17 16-25 12-12 24-6 35-16 3-4 7-9 8-18 3 5 4 11 4 17 1 21-16 35-54 71-48 47-56 59-60 56l-2-2c9-12 14-24 17-32Z" opacity=".3" style="mix-blend-mode:soft-light"/>
    <path fill="url(#c)" d="M438 592c20-44 42-74 58-94 37-46 55-47 63-46 10 0 24 6 26 16 4 19-34 44-30 51 2 4 13-2 17 2 6 7-6 28-9 33-23 39-100 38-125 38Z"/>
    <path fill="#fff" d="M476 559c17-12 22-10 31-21 17-19 11-35 27-47 11-9 18-3 34-12l16-13 1 2c4 19-34 44-30 51 2 4 13-2 17 2 6 7-6 28-9 33-23 39-100 38-125 38l1-3c14-15 27-24 37-30Z" opacity=".5" style="mix-blend-mode:soft-light"/>
    <path fill="url(#d)" d="M306 328c-8 3-18 0-25-7l-88-103c-8-9-7-23 3-31 9-8 28-8 36 1l90 103c8 10 7 24-3 32-3 2-10 5-13 5Z"/>
    <path fill="url(#e)" d="M196 187c9-8 28-8 36 1l82 95c-8 0-17 3-29-2-19-8-17-26-33-37-8-5-20-9-40-5l-19-21c-8-9-7-23 3-31Z" opacity=".3" style="mix-blend-mode:multiply"/>
    <path fill="url(#f)" d="m158 174 2-1 30-10 26 79-30 9-2 1c-10 4-24-11-32-33-7-22-4-42 6-45Z"/>
    <path fill="url(#g)" d="M190 163c-3 30 6 56 26 79l250-1-70-223-206 145Z"/>
    <path fill="url(#h)" d="M384 195c-24-1-41-30-67-23-19 6-19 27-39 31-20 5-31-16-55-16-11 0-22 4-31 10 4 17 12 31 24 45l250-1-38-71c-18 20-32 26-44 25Z" opacity=".3" style="mix-blend-mode:multiply"/>
    <path fill="url(#i)" d="M478 240c31-10 39-69 18-133-21-63-62-107-93-97-30 10-38 70-17 133 20 64 62 107 92 97Z"/>
    <path fill="url(#j)" d="M477 236c7-2 12-7 16-14 5-8 8-17 9-29 4-24 0-55-10-85s-25-56-42-74c-8-9-16-15-24-18s-15-4-22-2c-6 2-12 7-16 14-4 8-7 17-9 29v33c1 17 17 29 22 47 7 19 3 41 12 55 6 9 12 18 18 24 9 9 17 15 25 18 7 4 15 4 21 2Z"/>
    <path fill="url(#k)" d="M446 125c9 29-2 59-26 66-23 7-49-11-59-39-9-28 2-57 25-65s50 9 60 38Z"/>
    <path fill="url(#l)" d="M442 126c7 21 3 42-8 45-12 3-26-11-33-32s-4-41 7-45c12-4 27 10 34 32Z" opacity=".3" style="mix-blend-mode:multiply"/>
    <path fill="url(#m)" d="m459 122 72-21c6-1 12 1 14 6 1 4-3 9-8 11l-73 19c-5 1-10-1-11-5-2-5 1-9 6-10Z" opacity=".3"/>
    <path fill="url(#n)" d="m442 80 82-28c7-3 14 0 16 6s-2 13-9 15l-83 26c-5 2-11-1-12-6-2-5 1-11 6-13Z"/>
    <path fill="url(#o)" d="m480 103 68-20c6-1 11 1 13 5 1 5-2 10-7 11l-69 19c-4 1-9-1-11-5-1-4 2-9 6-10Z"/>
    <path fill="url(#p)" d="m460 143 87-21c8-2 15 2 17 8s-2 12-10 14l-87 19c-6 1-12-3-14-8s2-11 7-12Z"/>
    <path fill="#F4F7FA" d="M541 135c2 5 7 8 13 6 6-1 9-6 8-11-2-4-8-7-13-6-6 2-9 6-8 11Z" style="mix-blend-mode:soft-light"/>
    <path fill="url(#q)" d="m652 593-626-5v16c0 4 2 8 6 8l177 32 6 1 430-37c4 0 7-4 7-8v-7Z"/>
    <path fill="url(#r)" d="M450 567 32 596c-7 1-13-5-13-12V285a14 14 0 0 1 13-13h418c6 0 11 5 11 12v270c0 7-5 12-11 13Z"/>
    <path fill="url(#s)" d="M457 567 39 596c-7 1-13-5-13-12V285a14 14 0 0 1 13-13h418c6 0 11 5 11 12v270c0 7-5 12-11 13Z"/>
    <path fill="#fff" d="M444 548 55 573c-6 1-11-4-11-10V302a11 11 0 0 1 11-11l389-2c5 0 9 5 9 10v238c0 6-4 11-9 11ZM263 280c0 3-2 5-5 5s-5-2-5-5 2-5 5-5 5 2 5 5Z"/>
    <path fill="url(#t)" d="M446 566 26 597l183 33h6l437-37-199-27h-7Z"/>
    <path fill="url(#u)" d="m87 597 350-26 109 15-348 28-111-17Z" opacity=".3" style="mix-blend-mode:multiply"/>
    <path fill="url(#v)" d="m445 348-409 6v-47a9 9 0 0 1 9-9h390a9 9 0 0 1 10 9v41Z"/>
    <path fill="#D8DEE8" d="m300 464-231 9V364l231-4v104Zm132-6-118 5V360l118-2v100Zm0 75L69 554v-67l363-16v62Z"/>
    <path fill="url(#w)" d="M73 315c0 3-2 5-6 5-3 0-5-2-5-5s2-5 5-5c4 0 6 2 6 5Z"/>
    <path fill="url(#x)" d="M94 315c0 3-3 5-6 5s-6-2-6-5 3-5 6-5 6 2 6 5Z"/>
    <path fill="url(#y)" d="M114 315c0 3-3 5-6 5s-5-2-5-5 2-5 5-5 6 2 6 5Z"/>
    <path fill="#fff" d="M356 485c-32-17-57 5-82-17-15-13-7-23-26-43-20-21-33-14-53-34-26-24-13-44-35-61-27-22-56-2-81-23-11-8-17-21-21-35H34a8 8 0 0 0-8 8v309c0 5 3 8 8 8l425-31c2 0 4-1 5-3-31-1-50-11-62-22-24-21-20-42-46-56Z" opacity=".5" style="mix-blend-mode:soft-light"/>
    <path fill="url(#z)" d="m622 331-47 76-142-1-63 122-163 5-84 130a9 9 0 0 1-7 4l-11 1c-5 1-15 0-14-5l57-130 47-21 159-6 59-120 146-1 49-74 14 20Z"/>
    <path fill="url(#A)" d="m535 336-26-12 29-6-3 18Z"/>
    <path fill="url(#B)" d="m635 311 13 20h-30l-10-13 27-7Z"/>
    <path fill="url(#C)" d="m652 241-13-9-6 76 6 9 9 14 4-90Z"/>
    <path fill="url(#D)" d="m296 498 65 17 63-121-65-18-63 122Z"/>
    <path fill="url(#E)" d="m44 654 49 14a12 12 0 0 0 14-6l91-141-65-18-92 142a6 6 0 0 0 3 9Z"/>
    <path fill="url(#F)" d="m133 503 65 18 163-6-65-17-163 5Z"/>
    <path fill="url(#G)" d="m359 376 65 18 142 1-65-18-142-1Z"/>
    <path fill="url(#H)" d="m509 324 25-1-33 54 65 18 47-76 26-2v-85l-130 92Z"/>
    <path fill="url(#I)" d="M318 493c19-15 36-6 49-18 10-11-1-19 11-45 10-22 24-31 26-33l11-6-56-15-63 122 14 4 8-9Z" opacity=".3" style="mix-blend-mode:multiply"/>
    <path fill="url(#J)" d="m432 379-14 2c0 1 19 5 39 5 18 1 21-2 39 0l21 1c0-1-11-5-23-8-17-3-32-2-62 0Z" opacity=".3" style="mix-blend-mode:multiply"/>
    <path fill="url(#K)" d="M99 593c10-16 14-33 32-41 13-7 22-2 34-10 10-6 15-16 18-25l-50-14-89 137c31-15 46-33 55-47Z" opacity=".3" style="mix-blend-mode:multiply"/>
    <path fill="url(#L)" d="M255 400c6-2 13 8 19 17 10 13 21 27 18 45s-18 31-23 29c-3-1 4-13-2-29-4-12-11-12-16-25-6-15-3-35 4-37Z"/>
    <path fill="url(#M)" d="M258 481c29 7 48 18 59 26 6 4 8 7 10 10 8 23-35 56-40 60l-6-15c4-24 12-32 18-34l5-3c0-1-17 1-33-4-15-6-31-21-28-31 0-1 2-6 15-9Z"/>
    <path fill="url(#N)" d="M286 643s-3 1-3 3 3 11 6 14c3 4 3-1 3-4l-2-12-4-1Z"/>
    <path fill="url(#O)" d="M294 513c6 0 18-1 21 5 3 5-2 13-5 17-8 13-16 14-21 22-2 3-4 7-5 14l-3-9c4-24 12-32 18-34l5-2c0-2-17 0-33-5-14-6-28-18-29-28 23 17 40 20 52 20Z" opacity=".3" style="mix-blend-mode:multiply"/>
    <path fill="url(#P)" d="M284 634a104 104 0 0 0 3 16l3 4-1-13v-6l-5-1Z"/>
    <path fill="url(#Q)" d="M242 482c12 8 24 18 33 29 7 9 19 23 23 44a400 400 0 0 1-9 85l-4 1c-4-6-8-16-10-29-2-21 6-27 2-42-3-13-13-20-31-36-16-13-30-20-35-36-1-3-2-6 0-9 3-7 15-9 31-7Z"/>
    <path fill="url(#R)" d="M228 401c5-1 12-1 18-6 2-2 10-7 9-15-1-7-8-11-9-12-4-2-9-2-14-1l-14 4c-12 3-16-3-28-3-15 1-16 12-29 12-14 1-17-13-31-16-20-3-49 18-49 42 1 14 11 30 24 35 8 3 17 2 19 7 2 4-2 7-2 13 1 8 8 14 9 15 10 8 34 4 50-8 28-22 24-62 47-67Z"/>
    <path fill="url(#S)" d="m195 398 34-2c26-1 30 3 31 5 1 5-2 7 0 15 1 5 0 7 2 12s1 8-1 20c-2 15-3 23 1 29 3 4 6 4 6 6-1 4-16 2-34 10l-15 8-16 11c-14 8-36 9-47-1-4-4-7-10-6-12 2-2 10 4 18 0 5-2 4-6 10-11 7-6 12-3 17-7 7-5 4-19 2-43l-2-40Z"/>
    <path fill="url(#T)" d="m224 393-10 6c-1 0 17 4 29-2 0 0 1-1-6-3l-1-6-1-2-11 7Z"/>
    <path fill="url(#U)" d="M233 384s-2 6 4 9c4 3 12-8 11-12l-4-4c-2 0-7 0-9 4l-2-2-1 3 1 2Z"/>
    <path fill="url(#V)" d="M241 480c-6 2-6 7-14 10-7 2-9-1-16 1-11 3-15 14-17 13-1-1 0-11 7-17 8-8 16-4 21-12 2-3 4-8 2-11-2-5-8-4-11-8-6-7 7-20 4-31-2-5-7-11-22-14l2 27c2 24 5 38-2 43-5 4-10 1-17 7-6 5-5 9-10 11-8 4-16-2-18 0-1 2 2 8 6 12 11 10 33 9 47 1l16-11 15-8c13-5 24-6 30-7-12-8-19-8-23-6Z" opacity=".3" style="mix-blend-mode:multiply"/>
    <path fill="url(#W)" d="m293 487-69 4a3 3 0 0 0-2 1l-2 3a2 2 0 0 0 2 4l73-3-2-9Z"/>
    <path fill="url(#X)" d="m356 449-71 2a6 6 0 0 0-5 3l-24 43 75-3a6 6 0 0 0 5-3l22-38a2 2 0 0 0-2-4Z"/>
    <path fill="url(#Y)" d="M280 454a6 6 0 0 1 5-3h2l2 6c4 5 12 2 17 7 6 7 1 14 6 20 6 6 15 1 25 5l-1 2a6 6 0 0 1-5 3l-75 3 24-43Z" opacity=".3" style="mix-blend-mode:multiply"/>
    <path fill="url(#Z)" d="m236 487 2-6a460 460 0 0 1-37-13c-7-9 9-23 9-42 0-13-8-28-15-28-14-1-46 60-19 85 13 13 37 15 60 4Z"/>
    <path fill="url(#aa)" d="M238 481c5-3 12 0 12 1 2 0 4 2 5 3l2 4c-1 1-4 1-7-1l-6-1c-4 1-6 2-8 1l-1-4 3-3Z"/>
  </g>
  <defs>
    <linearGradient id="b" x1="530.8" x2="474.8" y1="406" y2="626.2" gradientUnits="userSpaceOnUse">
      <stop stop-color="#AA80F9"/>
      <stop offset="1" stop-color="#6165D7"/>
    </linearGradient>
    <linearGradient id="c" x1="507" x2="640.3" y1="546.2" y2="423.2" gradientUnits="userSpaceOnUse">
      <stop stop-color="#E38DDD"/>
      <stop offset="1" stop-color="#9571F6"/>
    </linearGradient>
    <linearGradient id="d" x1="278" x2="237.1" y1="205" y2="305.4" gradientUnits="userSpaceOnUse">
      <stop stop-color="#FFC444"/>
      <stop offset="1" stop-color="#F36F56"/>
    </linearGradient>
    <linearGradient id="e" x1="267.5" x2="226.6" y1="200.7" y2="301.1" gradientUnits="userSpaceOnUse">
      <stop stop-color="#FFC444"/>
      <stop offset="1" stop-color="#F36F56"/>
    </linearGradient>
    <linearGradient id="f" x1="147.6" x2="222.1" y1="186" y2="231.8" gradientUnits="userSpaceOnUse">
      <stop stop-color="#E38DDD"/>
      <stop offset="1" stop-color="#9571F6"/>
    </linearGradient>
    <linearGradient id="g" x1="261.5" x2="434.4" y1="50.8" y2="370.7" gradientUnits="userSpaceOnUse">
      <stop stop-color="#AA80F9"/>
      <stop offset="1" stop-color="#6165D7"/>
    </linearGradient>
    <linearGradient id="h" x1="240.7" x2="415.7" y1="58.3" y2="382.2" gradientUnits="userSpaceOnUse">
      <stop stop-color="#AA80F9"/>
      <stop offset="1" stop-color="#6165D7"/>
    </linearGradient>
    <linearGradient id="i" x1="355.9" x2="525.7" y1="73" y2="177.3" gradientUnits="userSpaceOnUse">
      <stop stop-color="#E38DDD"/>
      <stop offset="1" stop-color="#9571F6"/>
    </linearGradient>
    <linearGradient id="j" x1="370" x2="489" y1="146.6" y2="111.1" gradientUnits="userSpaceOnUse">
      <stop stop-color="#311944"/>
      <stop offset="1" stop-color="#893976"/>
    </linearGradient>
    <linearGradient id="k" x1="347.4" x2="460.2" y1="34.6" y2="243.4" gradientUnits="userSpaceOnUse">
      <stop stop-color="#FFC444"/>
      <stop offset="1" stop-color="#F36F56"/>
    </linearGradient>
    <linearGradient id="l" x1="379.9" x2="463.1" y1="55.6" y2="209.7" gradientUnits="userSpaceOnUse">
      <stop stop-color="#FFC444"/>
      <stop offset="1" stop-color="#F36F56"/>
    </linearGradient>
    <linearGradient id="m" x1="516.8" x2="452" y1="87.8" y2="198" gradientUnits="userSpaceOnUse">
      <stop stop-color="#E38DDD"/>
      <stop offset="1" stop-color="#9571F6"/>
    </linearGradient>
    <linearGradient id="n" x1="535.4" x2="473" y1="27.3" y2="90.7" gradientUnits="userSpaceOnUse">
      <stop stop-color="#FF9085"/>
      <stop offset="1" stop-color="#FB6FBB"/>
    </linearGradient>
    <linearGradient id="o" x1="535" x2="473" y1="70.7" y2="176.2" gradientUnits="userSpaceOnUse">
      <stop stop-color="#E38DDD"/>
      <stop offset="1" stop-color="#9571F6"/>
    </linearGradient>
    <linearGradient id="p" x1="529.9" x2="454.4" y1="106" y2="234.3" gradientUnits="userSpaceOnUse">
      <stop stop-color="#AA80F9"/>
      <stop offset="1" stop-color="#6165D7"/>
    </linearGradient>
    <linearGradient id="q" x1="290" x2="246" y1="617.1" y2="635.6" gradientUnits="userSpaceOnUse">
      <stop stop-color="#40447E"/>
      <stop offset="1" stop-color="#3C3B6B"/>
    </linearGradient>
    <linearGradient id="r" x1="231.3" x2="183.6" y1="423.3" y2="443.3" gradientUnits="userSpaceOnUse">
      <stop stop-color="#40447E"/>
      <stop offset="1" stop-color="#3C3B6B"/>
    </linearGradient>
    <linearGradient id="s" x1="25.6" x2="467.9" y1="434.1" y2="434.1" gradientUnits="userSpaceOnUse">
      <stop stop-color="#40447E"/>
      <stop offset="1" stop-color="#3C3B6B"/>
    </linearGradient>
    <linearGradient id="t" x1="25.6" x2="651.6" y1="597.7" y2="597.7" gradientUnits="userSpaceOnUse">
      <stop stop-color="#40447E"/>
      <stop offset="1" stop-color="#3C3B6B"/>
    </linearGradient>
    <linearGradient id="u" x1="87" x2="545.7" y1="592.5" y2="592.5" gradientUnits="userSpaceOnUse">
      <stop stop-color="#40447E"/>
      <stop offset="1" stop-color="#3C3B6B"/>
    </linearGradient>
    <linearGradient id="v" x1="343.8" x2="109" y1="214.8" y2="466.7" gradientUnits="userSpaceOnUse">
      <stop stop-color="#AA80F9"/>
      <stop offset="1" stop-color="#6165D7"/>
    </linearGradient>
    <linearGradient id="w" x1="61.7" x2="73" y1="315" y2="315" gradientUnits="userSpaceOnUse">
      <stop stop-color="#444B8C"/>
      <stop offset="1" stop-color="#26264F"/>
    </linearGradient>
    <linearGradient id="x" x1="82.3" x2="93.5" y1="314.9" y2="314.9" gradientUnits="userSpaceOnUse">
      <stop stop-color="#444B8C"/>
      <stop offset="1" stop-color="#26264F"/>
    </linearGradient>
    <linearGradient id="y" x1="102.7" x2="113.8" y1="314.8" y2="314.8" gradientUnits="userSpaceOnUse">
      <stop stop-color="#444B8C"/>
      <stop offset="1" stop-color="#26264F"/>
    </linearGradient>
    <linearGradient id="z" x1="426" x2="230.3" y1="363.3" y2="693.5" gradientUnits="userSpaceOnUse">
      <stop stop-color="#AB316D"/>
      <stop offset="1" stop-color="#792D3D"/>
    </linearGradient>
    <linearGradient id="A" x1="501.9" x2="508" y1="364.6" y2="354.2" gradientUnits="userSpaceOnUse">
      <stop stop-color="#AB316D"/>
      <stop offset="1" stop-color="#792D3D"/>
    </linearGradient>
    <linearGradient id="B" x1="636.6" x2="629.3" y1="251.1" y2="314.5" gradientUnits="userSpaceOnUse">
      <stop stop-color="#AB316D"/>
      <stop offset="1" stop-color="#792D3D"/>
    </linearGradient>
    <linearGradient id="C" x1="640" x2="654.6" y1="308.5" y2="201.1" gradientUnits="userSpaceOnUse">
      <stop stop-color="#AB316D"/>
      <stop offset="1" stop-color="#792D3D"/>
    </linearGradient>
    <linearGradient id="D" x1="396.4" x2="325.1" y1="378.4" y2="509.5" gradientUnits="userSpaceOnUse">
      <stop stop-color="#FF9085"/>
      <stop offset="1" stop-color="#FB6FBB"/>
    </linearGradient>
    <linearGradient id="E" x1="175.2" x2="42.2" y1="497.3" y2="702.7" gradientUnits="userSpaceOnUse">
      <stop stop-color="#FF9085"/>
      <stop offset="1" stop-color="#FB6FBB"/>
    </linearGradient>
    <linearGradient id="F" x1="342.8" x2="63.8" y1="492.4" y2="541.8" gradientUnits="userSpaceOnUse">
      <stop stop-color="#FF9085"/>
      <stop offset="1" stop-color="#FB6FBB"/>
    </linearGradient>
    <linearGradient id="G" x1="465.3" x2="459.9" y1="357.4" y2="411" gradientUnits="userSpaceOnUse">
      <stop stop-color="#FF9085"/>
      <stop offset="1" stop-color="#FB6FBB"/>
    </linearGradient>
    <linearGradient id="H" x1="537.6" x2="652.2" y1="367.1" y2="221.3" gradientUnits="userSpaceOnUse">
      <stop stop-color="#FF9085"/>
      <stop offset="1" stop-color="#FB6FBB"/>
    </linearGradient>
    <linearGradient id="I" x1="391" x2="319.6" y1="375.5" y2="506.6" gradientUnits="userSpaceOnUse">
      <stop stop-color="#FF9085"/>
      <stop offset="1" stop-color="#FB6FBB"/>
    </linearGradient>
    <linearGradient id="J" x1="478" x2="458" y1="364.7" y2="401.4" gradientUnits="userSpaceOnUse">
      <stop stop-color="#FF9085"/>
      <stop offset="1" stop-color="#FB6FBB"/>
    </linearGradient>
    <linearGradient id="K" x1="169.6" x2="36.6" y1="493.7" y2="699" gradientUnits="userSpaceOnUse">
      <stop stop-color="#FF9085"/>
      <stop offset="1" stop-color="#FB6FBB"/>
    </linearGradient>
    <linearGradient id="L" x1="292.1" x2="247.9" y1="445.6" y2="445.6" gradientUnits="userSpaceOnUse">
      <stop stop-color="#FFC444"/>
      <stop offset="1" stop-color="#F36F56"/>
    </linearGradient>
    <linearGradient id="M" x1="368.2" x2="282.5" y1="528.6" y2="528.6" gradientUnits="userSpaceOnUse">
      <stop stop-color="#AA80F9"/>
      <stop offset="1" stop-color="#6165D7"/>
    </linearGradient>
    <linearGradient id="N" x1="297.4" x2="281.6" y1="624.5" y2="689.6" gradientUnits="userSpaceOnUse">
      <stop stop-color="#E38DDD"/>
      <stop offset="1" stop-color="#9571F6"/>
    </linearGradient>
    <linearGradient id="O" x1="327.9" x2="242.2" y1="531.8" y2="531.8" gradientUnits="userSpaceOnUse">
      <stop stop-color="#AA80F9"/>
      <stop offset="1" stop-color="#6165D7"/>
    </linearGradient>
    <linearGradient id="P" x1="289.9" x2="284.3" y1="643.8" y2="643.8" gradientUnits="userSpaceOnUse">
      <stop stop-color="#311944"/>
      <stop offset="1" stop-color="#A03976"/>
    </linearGradient>
    <linearGradient id="Q" x1="322.4" x2="245.6" y1="475.4" y2="568.8" gradientUnits="userSpaceOnUse">
      <stop stop-color="#AA80F9"/>
      <stop offset="1" stop-color="#6165D7"/>
    </linearGradient>
    <linearGradient id="R" x1="108.1" x2="205.4" y1="347.6" y2="437.8" gradientUnits="userSpaceOnUse">
      <stop stop-color="#444B8C"/>
      <stop offset="1" stop-color="#26264F"/>
    </linearGradient>
    <linearGradient id="S" x1="190" x2="272.5" y1="478.2" y2="404" gradientUnits="userSpaceOnUse">
      <stop stop-color="#FFC444"/>
      <stop offset="1" stop-color="#F36F56"/>
    </linearGradient>
    <linearGradient id="T" x1="242.7" x2="213.6" y1="393" y2="393" gradientUnits="userSpaceOnUse">
      <stop stop-color="#311944"/>
      <stop offset="1" stop-color="#A03976"/>
    </linearGradient>
    <linearGradient id="U" x1="239.1" x2="239.7" y1="468.4" y2="411" gradientUnits="userSpaceOnUse">
      <stop stop-color="#311944"/>
      <stop offset="1" stop-color="#A03976"/>
    </linearGradient>
    <linearGradient id="V" x1="192.7" x2="275.2" y1="481.2" y2="407" gradientUnits="userSpaceOnUse">
      <stop stop-color="#FFC444"/>
      <stop offset="1" stop-color="#F36F56"/>
    </linearGradient>
    <linearGradient id="W" x1="219.9" x2="295" y1="493" y2="493" gradientUnits="userSpaceOnUse">
      <stop stop-color="#444B8C"/>
      <stop offset="1" stop-color="#26264F"/>
    </linearGradient>
    <linearGradient id="X" x1="255.6" x2="358.6" y1="473.3" y2="473.3" gradientUnits="userSpaceOnUse">
      <stop stop-color="#444B8C"/>
      <stop offset="1" stop-color="#26264F"/>
    </linearGradient>
    <linearGradient id="Y" x1="334.6" x2="285.4" y1="445.9" y2="494.7" gradientUnits="userSpaceOnUse">
      <stop stop-color="#444B8C"/>
      <stop offset="1" stop-color="#26264F"/>
    </linearGradient>
    <linearGradient id="Z" x1="224.2" x2="161.2" y1="477.6" y2="415.6" gradientUnits="userSpaceOnUse">
      <stop stop-color="#FFC444"/>
      <stop offset="1" stop-color="#F36F56"/>
    </linearGradient>
    <linearGradient id="aa" x1="222.5" x2="242.9" y1="470.1" y2="484.4" gradientUnits="userSpaceOnUse">
      <stop stop-color="#311944"/>
      <stop offset="1" stop-color="#A03976"/>
    </linearGradient>
    <clipPath id="a">
      <path fill="#fff" d="M1 1h670v670H1z"/>
    </clipPath>
  </defs>
</svg>
