<svg xmlns="http://www.w3.org/2000/svg" width="40" height="40" fill="none">
  <rect width="40" height="40" fill="url(#a)" rx="12"/>
  <g filter="url(#b)" opacity=".3">
    <rect width="27.2" height="17" x="6" y="20" fill="url(#c)" rx="8.5"/>
  </g>
  <rect width="29.5" height="29.5" x="5.2" y="5.2" fill="#111018" rx="12"/>
  <g filter="url(#d)">
    <path fill="#fff" d="m13 19 10-4 4-2s1-1 1 1l-1 5-1 7-1 1-2-1-4-3v-1l5-5h-1l-6 4h-2l-3-1 1-1Z"/>
  </g>
  <defs>
    <linearGradient id="a" x1="3.4" x2="33.1" y1="2.6" y2="40" gradientUnits="userSpaceOnUse">
      <stop stop-color="#FBFBFC"/>
      <stop offset="1" stop-color="#DBDDE8"/>
    </linearGradient>
    <linearGradient id="c" x1="8.4" x2="20.8" y1="21.3" y2="42.6" gradientUnits="userSpaceOnUse">
      <stop stop-color="#08C"/>
      <stop offset="1" stop-color="#0083C5"/>
    </linearGradient>
    <filter id="b" width="31.6" height="21.4" x="3.8" y="17.8" color-interpolation-filters="sRGB" filterUnits="userSpaceOnUse">
      <feFlood flood-opacity="0" result="BackgroundImageFix"/>
      <feBlend in="SourceGraphic" in2="BackgroundImageFix" result="shape"/>
      <feGaussianBlur result="effect1_foregroundBlur_22_196" stdDeviation="1.1"/>
    </filter>
    <filter id="d" width="18" height="18.2" x="10.8" y="10.8" color-interpolation-filters="sRGB" filterUnits="userSpaceOnUse">
      <feFlood flood-opacity="0" result="BackgroundImageFix"/>
      <feBlend in="SourceGraphic" in2="BackgroundImageFix" result="shape"/>
      <feColorMatrix in="SourceAlpha" result="hardAlpha" values="0 0 0 0 0 0 0 0 0 0 0 0 0 0 0 0 0 0 127 0"/>
      <feOffset dy=".2"/>
      <feGaussianBlur stdDeviation=".5"/>
      <feComposite in2="hardAlpha" k2="-1" k3="1" operator="arithmetic"/>
      <feColorMatrix values="0 0 0 0 0 0 0 0 0 0 0 0 0 0 0 0 0 0 0.1 0"/>
      <feBlend in2="shape" result="effect1_innerShadow_22_196"/>
    </filter>
  </defs>
</svg>
