<svg xmlns="http://www.w3.org/2000/svg" width="40" height="40" fill="none">
  <rect width="40" height="40" fill="url(#a)" rx="12"/>
  <g filter="url(#b)" opacity=".3">
    <rect width="27.2" height="17" x="6" y="20" fill="url(#c)" rx="8.5"/>
  </g>
  <rect width="29.5" height="29.5" x="5.2" y="5.2" fill="#111018" rx="12"/>
  <g filter="url(#d)">
    <path fill="#fff" fill-rule="evenodd" d="m28 17-1-1h-2l-3 4h-1v-4h-3v5l-3-4-1-1h-2l3 6c1 2 3 3 5 3l1-1v-1l1-1 2 1 2 2h1l1-1-2-2-1-1v-1l3-3Z" clip-rule="evenodd"/>
  </g>
  <defs>
    <linearGradient id="a" x1="3.4" x2="33.1" y1="2.6" y2="40" gradientUnits="userSpaceOnUse">
      <stop stop-color="#FBFBFC"/>
      <stop offset="1" stop-color="#DBDDE8"/>
    </linearGradient>
    <linearGradient id="c" x1="21.5" x2="16" y1="37.5" y2="18" gradientUnits="userSpaceOnUse">
      <stop offset=".1" stop-color="#1568C8"/>
      <stop offset=".9" stop-color="#3F98FF"/>
    </linearGradient>
    <filter id="b" width="31.6" height="21.4" x="3.8" y="17.8" color-interpolation-filters="sRGB" filterUnits="userSpaceOnUse">
      <feFlood flood-opacity="0" result="BackgroundImageFix"/>
      <feBlend in="SourceGraphic" in2="BackgroundImageFix" result="shape"/>
      <feGaussianBlur result="effect1_foregroundBlur_22_202" stdDeviation="1.1"/>
    </filter>
    <filter id="d" width="18" height="18.2" x="10.8" y="10.8" color-interpolation-filters="sRGB" filterUnits="userSpaceOnUse">
      <feFlood flood-opacity="0" result="BackgroundImageFix"/>
      <feBlend in="SourceGraphic" in2="BackgroundImageFix" result="shape"/>
      <feColorMatrix in="SourceAlpha" result="hardAlpha" values="0 0 0 0 0 0 0 0 0 0 0 0 0 0 0 0 0 0 127 0"/>
      <feOffset dy=".2"/>
      <feGaussianBlur stdDeviation=".5"/>
      <feComposite in2="hardAlpha" k2="-1" k3="1" operator="arithmetic"/>
      <feColorMatrix values="0 0 0 0 0 0 0 0 0 0 0 0 0 0 0 0 0 0 0.1 0"/>
      <feBlend in2="shape" result="effect1_innerShadow_22_202"/>
    </filter>
  </defs>
</svg>
