<svg width="40" height="40" viewBox="0 0 40 40" fill="none" xmlns="http://www.w3.org/2000/svg">
<rect width="40" height="40" rx="12" fill="url(#paint0_linear_673_3217)"/>
<g opacity="0.25" filter="url(#filter0_f_673_3217)">
<rect x="6.02612" y="20" width="27.2489" height="17.0306" rx="8.51528" fill="url(#paint1_linear_673_3217)"/>
</g>
<rect x="5.19995" y="5.19994" width="29.5197" height="29.5197" rx="12" fill="#111018"/>
<g clip-path="url(#clip0_673_3217)">
<path d="M9.26733 20.7653L10.3255 10.8425L26.5755 9.26744L31.4883 19.1903L28.9185 30.3731L15.8429 31.7907L9.26733 29.1131V20.7653Z" fill="white"/>
<path d="M9.70878 33C8.95796 33 8.31857 32.7373 7.79061 32.2094C7.26265 31.6814 7 31.042 7 30.2912V9.70877C7 8.95796 7.26265 8.31857 7.79061 7.79062C8.31857 7.26266 8.95796 7 9.70878 7H30.2912C31.042 7 31.6814 7.26266 32.2094 7.79062C32.7373 8.31857 33 8.95796 33 9.70877V30.2912C33 31.042 32.7373 31.6814 32.2094 32.2094C31.6814 32.7373 31.042 33 30.2912 33H9.70878ZM10.7806 29.3388L15.9488 27.9857C17.2992 28.702 18.7451 29.0576 20.2812 29.0576C21.0029 29.0576 21.7112 28.9753 22.4037 28.8135C23.0961 28.6516 23.7488 28.4155 24.359 28.1104C24.9692 27.8027 25.5422 27.4392 26.0808 27.0173C26.6194 26.5955 27.0996 26.1153 27.5214 25.5767C27.9433 25.0382 28.3094 24.4651 28.6145 23.8549C28.9222 23.2447 29.1557 22.592 29.3175 21.8943C29.4794 21.1965 29.5616 20.4882 29.5616 19.7665C29.5616 18.5329 29.3282 17.3469 28.8639 16.2141C28.3969 15.0812 27.7257 14.0757 26.8502 13.1976C25.972 12.3194 24.9692 11.6482 23.839 11.1839C22.7088 10.7169 21.5229 10.4808 20.2812 10.4755C19.4376 10.4755 18.6124 10.5869 17.8112 10.8124C17.01 11.0353 16.2698 11.3484 15.5906 11.749C14.9114 12.1496 14.288 12.6351 13.7176 13.2055C13.1471 13.7759 12.6616 14.402 12.261 15.0786C11.8604 15.7578 11.5473 16.498 11.3245 17.2992C11.1016 18.1004 10.9876 18.9255 10.9876 19.7692C10.9876 21.3796 11.3802 22.8865 12.1682 24.2873L10.7806 29.3388ZM20.2706 26.89C18.9706 26.89 17.7635 26.5584 16.6518 25.8924L16.2618 25.6643L13.8582 26.2931L14.4976 23.9531L14.2376 23.5525C13.5159 22.3957 13.1551 21.1329 13.1551 19.7612C13.1551 18.7929 13.3435 17.8696 13.7176 16.9941C14.0943 16.1159 14.601 15.3598 15.2404 14.7257C15.8798 14.089 16.6386 13.5822 17.5167 13.2029C18.3949 12.8235 19.3182 12.6351 20.2839 12.6351C21.2363 12.6351 22.1463 12.8155 23.0139 13.1763C23.8814 13.5371 24.6508 14.0545 25.322 14.7257C25.9933 15.3969 26.508 16.169 26.8661 17.0392C27.2243 17.9094 27.402 18.8167 27.402 19.7639C27.402 20.7322 27.2137 21.6555 26.8396 22.531C26.4629 23.4092 25.9588 24.168 25.322 24.8073C24.6853 25.4467 23.9292 25.9535 23.0457 26.3302C22.1622 26.7016 21.239 26.89 20.2706 26.89ZM22.6106 24.3988C22.791 24.3988 22.9873 24.3802 23.1969 24.3457C23.4861 24.3033 23.8257 24.1573 24.2157 23.9133C24.6057 23.6665 24.8578 23.3853 24.9745 23.0696C25.0912 22.738 25.1469 22.4222 25.1469 22.1278C25.1469 21.9553 25.1204 21.8253 25.07 21.7378C25.0116 21.629 24.8631 21.5202 24.6269 21.4114L24.5076 21.3451C23.6559 20.918 23.1359 20.6739 22.9475 20.6076C22.8096 20.5492 22.6902 20.52 22.5894 20.52C22.3798 20.52 22.202 20.6288 22.0588 20.8463C21.9792 20.9551 21.8598 21.0984 21.7006 21.2788C21.5414 21.4592 21.4008 21.5865 21.2788 21.6582L21.1169 21.5945C20.5253 21.3345 20.0053 21.0029 19.5569 20.5969C19.3606 20.4298 19.1802 20.2441 19.0157 20.0398C18.8486 19.8329 18.7186 19.6498 18.6204 19.488C18.5222 19.3261 18.4559 19.1855 18.4188 19.0714C18.4612 19.021 18.5408 18.9282 18.6575 18.7902L18.7663 18.6602C18.8539 18.5673 18.9441 18.4188 19.0369 18.2171C19.0873 18.1163 19.1139 18.0102 19.1139 17.9041C19.1139 17.782 19.082 17.6573 19.0157 17.5353C18.9945 17.4849 18.8539 17.1427 18.5939 16.5059L18.3445 15.8878C18.2437 15.6569 18.1269 15.5004 17.9969 15.4208C17.8669 15.3412 17.7184 15.3014 17.5539 15.3014H17.1082C16.7818 15.3014 16.49 15.442 16.23 15.7233C15.6729 16.3149 15.3969 16.9967 15.3969 17.7714C15.3969 18.5647 15.7365 19.419 16.4157 20.329C16.612 20.6102 16.8216 20.8888 17.0498 21.162C17.278 21.4353 17.5565 21.7404 17.8882 22.0773C18.2198 22.4143 18.5992 22.73 19.0263 23.0298C19.4535 23.3296 19.8886 23.5763 20.3369 23.7727C20.7482 23.9451 21.1859 24.1043 21.6475 24.2502C21.958 24.3484 22.279 24.3988 22.6106 24.3988Z" fill="#111018"/>
</g>
<defs>
<filter id="filter0_f_673_3217" x="3.84212" y="17.816" width="31.617" height="21.3986" filterUnits="userSpaceOnUse" color-interpolation-filters="sRGB">
<feFlood flood-opacity="0" result="BackgroundImageFix"/>
<feBlend mode="normal" in="SourceGraphic" in2="BackgroundImageFix" result="shape"/>
<feGaussianBlur stdDeviation="1.092" result="effect1_foregroundBlur_673_3217"/>
</filter>
<linearGradient id="paint0_linear_673_3217" x1="3.36245" y1="2.62009" x2="33.0568" y2="40" gradientUnits="userSpaceOnUse">
<stop stop-color="#FBFBFC"/>
<stop offset="1" stop-color="#DBDDE8"/>
</linearGradient>
<linearGradient id="paint1_linear_673_3217" x1="8.42612" y1="21.2692" x2="20.7616" y2="42.6106" gradientUnits="userSpaceOnUse">
<stop stop-color="#0088CC"/>
<stop offset="1" stop-color="#0083C5"/>
</linearGradient>
<clipPath id="clip0_673_3217">
<rect width="26" height="26" rx="8" transform="matrix(1 0 0 -1 7 33)" fill="white"/>
</clipPath>
</defs>
</svg>
