<svg width="593" height="598" viewBox="0 0 593 598" fill="none" xmlns="http://www.w3.org/2000/svg">
<rect x="101" y="530" width="291" height="59" rx="15" fill="#CB11AB"/>
<path d="M157.874 553.671C158.457 552.966 159.139 552.437 159.921 552.084C160.703 551.731 161.654 551.555 162.773 551.555C164.322 551.555 165.525 551.892 166.384 552.567C167.258 553.226 167.695 554.208 167.695 555.511C167.695 556.385 167.48 557.159 167.051 557.834C166.622 558.493 165.978 558.946 165.119 559.191C166.131 559.36 166.928 559.789 167.511 560.479C168.109 561.169 168.408 562.043 168.408 563.101C168.408 563.852 168.262 564.535 167.971 565.148C167.68 565.761 167.273 566.29 166.752 566.735C166.246 567.164 165.64 567.502 164.935 567.747C164.23 567.992 163.463 568.115 162.635 568.115C161.5 568.115 160.496 567.908 159.622 567.494C158.748 567.065 158.027 566.459 157.46 565.677L159.208 563.975C159.607 564.527 160.082 564.964 160.634 565.286C161.186 565.608 161.853 565.769 162.635 565.769C163.095 565.769 163.517 565.708 163.9 565.585C164.283 565.447 164.613 565.263 164.889 565.033C165.165 564.788 165.38 564.496 165.533 564.159C165.702 563.822 165.786 563.446 165.786 563.032C165.786 562.189 165.449 561.514 164.774 561.008C164.115 560.487 163.164 560.226 161.922 560.226H160.45V558.133H161.83C162.903 558.133 163.731 557.926 164.314 557.512C164.912 557.098 165.211 556.523 165.211 555.787C165.211 555.112 164.981 554.606 164.521 554.269C164.061 553.932 163.463 553.763 162.727 553.763C162.022 553.763 161.385 553.893 160.818 554.154C160.266 554.415 159.806 554.79 159.438 555.281L157.874 553.671ZM173.979 568.23C173.396 568.23 172.852 568.138 172.346 567.954C171.855 567.755 171.426 567.486 171.058 567.149C170.705 566.812 170.421 566.413 170.207 565.953C170.007 565.493 169.908 564.995 169.908 564.458C169.908 563.891 170.03 563.377 170.276 562.917C170.521 562.457 170.866 562.058 171.311 561.721C171.771 561.384 172.307 561.123 172.921 560.939C173.549 560.755 174.239 560.663 174.991 560.663C175.558 560.663 176.118 560.717 176.67 560.824C177.222 560.916 177.72 561.046 178.165 561.215V560.387C178.165 559.498 177.912 558.808 177.406 558.317C176.9 557.811 176.171 557.558 175.221 557.558C174.577 557.558 173.94 557.681 173.312 557.926C172.698 558.156 172.062 558.493 171.403 558.938L170.621 557.328C172.169 556.285 173.779 555.764 175.451 555.764C177.107 555.764 178.395 556.186 179.315 557.029C180.235 557.872 180.695 559.084 180.695 560.663V565.01C180.695 565.547 180.917 565.823 181.362 565.838V568C181.116 568.046 180.902 568.077 180.718 568.092C180.549 568.107 180.38 568.115 180.212 568.115C179.721 568.115 179.338 567.992 179.062 567.747C178.801 567.502 178.64 567.187 178.579 566.804L178.51 566.045C177.973 566.75 177.306 567.295 176.509 567.678C175.727 568.046 174.883 568.23 173.979 568.23ZM174.669 566.367C175.282 566.367 175.857 566.26 176.394 566.045C176.946 565.815 177.375 565.501 177.682 565.102C178.004 564.826 178.165 564.535 178.165 564.228V562.641C177.735 562.472 177.275 562.342 176.785 562.25C176.309 562.158 175.842 562.112 175.382 562.112C174.477 562.112 173.733 562.311 173.151 562.71C172.583 563.093 172.3 563.607 172.3 564.251C172.3 564.849 172.522 565.355 172.967 565.769C173.411 566.168 173.979 566.367 174.669 566.367ZM191.101 555.971H193.861L189.146 561.813L194.206 568H191.377L187.444 563.032H186.317V568H183.833V555.971H186.317V560.985H187.26L191.101 555.971ZM198.798 568.23C198.215 568.23 197.671 568.138 197.165 567.954C196.674 567.755 196.245 567.486 195.877 567.149C195.524 566.812 195.241 566.413 195.026 565.953C194.827 565.493 194.727 564.995 194.727 564.458C194.727 563.891 194.85 563.377 195.095 562.917C195.34 562.457 195.685 562.058 196.13 561.721C196.59 561.384 197.127 561.123 197.74 560.939C198.369 560.755 199.059 560.663 199.81 560.663C200.377 560.663 200.937 560.717 201.489 560.824C202.041 560.916 202.539 561.046 202.984 561.215V560.387C202.984 559.498 202.731 558.808 202.225 558.317C201.719 557.811 200.991 557.558 200.04 557.558C199.396 557.558 198.76 557.681 198.131 557.926C197.518 558.156 196.881 558.493 196.222 558.938L195.44 557.328C196.989 556.285 198.599 555.764 200.27 555.764C201.926 555.764 203.214 556.186 204.134 557.029C205.054 557.872 205.514 559.084 205.514 560.663V565.01C205.514 565.547 205.736 565.823 206.181 565.838V568C205.936 568.046 205.721 568.077 205.537 568.092C205.368 568.107 205.2 568.115 205.031 568.115C204.54 568.115 204.157 567.992 203.881 567.747C203.62 567.502 203.459 567.187 203.398 566.804L203.329 566.045C202.792 566.75 202.125 567.295 201.328 567.678C200.546 568.046 199.703 568.23 198.798 568.23ZM199.488 566.367C200.101 566.367 200.676 566.26 201.213 566.045C201.765 565.815 202.194 565.501 202.501 565.102C202.823 564.826 202.984 564.535 202.984 564.228V562.641C202.555 562.472 202.095 562.342 201.604 562.25C201.129 562.158 200.661 562.112 200.201 562.112C199.296 562.112 198.553 562.311 197.97 562.71C197.403 563.093 197.119 563.607 197.119 564.251C197.119 564.849 197.341 565.355 197.786 565.769C198.231 566.168 198.798 566.367 199.488 566.367ZM207.962 557.236C208.483 556.745 209.058 556.377 209.687 556.132C210.331 555.887 211.013 555.764 211.734 555.764C212.271 555.764 212.761 555.833 213.206 555.971C213.666 556.109 214.057 556.308 214.379 556.569C214.716 556.814 214.977 557.129 215.161 557.512C215.345 557.88 215.437 558.302 215.437 558.777C215.437 559.452 215.253 560.034 214.885 560.525C214.532 561 214.034 561.284 213.39 561.376C214.264 561.514 214.939 561.867 215.414 562.434C215.889 562.986 216.127 563.684 216.127 564.527C216.127 565.079 216.012 565.585 215.782 566.045C215.567 566.49 215.261 566.881 214.862 567.218C214.463 567.54 213.988 567.793 213.436 567.977C212.884 568.146 212.278 568.23 211.619 568.23C209.886 568.23 208.545 567.647 207.594 566.482L208.859 564.803C209.488 565.662 210.377 566.091 211.527 566.091C212.217 566.091 212.746 565.945 213.114 565.654C213.497 565.347 213.689 564.903 213.689 564.32C213.689 562.986 212.731 562.319 210.814 562.319H209.963V560.663H210.814C211.55 560.663 212.125 560.51 212.539 560.203C212.953 559.896 213.16 559.49 213.16 558.984C213.16 558.57 213.007 558.248 212.7 558.018C212.409 557.773 212.01 557.65 211.504 557.65C210.676 557.65 209.879 557.987 209.112 558.662L207.962 557.236ZM221.551 568.23C220.968 568.23 220.424 568.138 219.918 567.954C219.427 567.755 218.998 567.486 218.63 567.149C218.277 566.812 217.994 566.413 217.779 565.953C217.58 565.493 217.48 564.995 217.48 564.458C217.48 563.891 217.603 563.377 217.848 562.917C218.093 562.457 218.438 562.058 218.883 561.721C219.343 561.384 219.88 561.123 220.493 560.939C221.122 560.755 221.812 560.663 222.563 560.663C223.13 560.663 223.69 560.717 224.242 560.824C224.794 560.916 225.292 561.046 225.737 561.215V560.387C225.737 559.498 225.484 558.808 224.978 558.317C224.472 557.811 223.744 557.558 222.793 557.558C222.149 557.558 221.513 557.681 220.884 557.926C220.271 558.156 219.634 558.493 218.975 558.938L218.193 557.328C219.742 556.285 221.352 555.764 223.023 555.764C224.679 555.764 225.967 556.186 226.887 557.029C227.807 557.872 228.267 559.084 228.267 560.663V565.01C228.267 565.547 228.489 565.823 228.934 565.838V568C228.689 568.046 228.474 568.077 228.29 568.092C228.121 568.107 227.953 568.115 227.784 568.115C227.293 568.115 226.91 567.992 226.634 567.747C226.373 567.502 226.212 567.187 226.151 566.804L226.082 566.045C225.545 566.75 224.878 567.295 224.081 567.678C223.299 568.046 222.456 568.23 221.551 568.23ZM222.241 566.367C222.854 566.367 223.429 566.26 223.966 566.045C224.518 565.815 224.947 565.501 225.254 565.102C225.576 564.826 225.737 564.535 225.737 564.228V562.641C225.308 562.472 224.848 562.342 224.357 562.25C223.882 562.158 223.414 562.112 222.954 562.112C222.049 562.112 221.306 562.311 220.723 562.71C220.156 563.093 219.872 563.607 219.872 564.251C219.872 564.849 220.094 565.355 220.539 565.769C220.984 566.168 221.551 566.367 222.241 566.367ZM236.335 568H233.851V558.156H229.941V555.971H240.245V558.156H236.335V568ZM242.253 555.971H244.737V559.95H247.06C247.643 559.95 248.195 560.034 248.716 560.203C249.253 560.372 249.721 560.632 250.119 560.985C250.533 561.322 250.855 561.744 251.085 562.25C251.331 562.756 251.453 563.339 251.453 563.998C251.453 564.673 251.331 565.263 251.085 565.769C250.855 566.26 250.541 566.674 250.142 567.011C249.744 567.348 249.276 567.601 248.739 567.77C248.218 567.923 247.674 568 247.106 568H242.253V555.971ZM246.945 565.953C247.528 565.953 248.003 565.792 248.371 565.47C248.739 565.148 248.923 564.665 248.923 564.021C248.923 563.362 248.732 562.863 248.348 562.526C247.965 562.173 247.505 561.997 246.968 561.997H244.737V565.953H246.945ZM258.406 561.974C258.406 561.131 258.552 560.333 258.843 559.582C259.134 558.831 259.548 558.171 260.085 557.604C260.637 557.037 261.296 556.592 262.063 556.27C262.83 555.933 263.688 555.764 264.639 555.764C265.881 555.764 266.947 556.04 267.836 556.592C268.741 557.129 269.415 557.849 269.86 558.754L267.399 559.536C267.108 559.03 266.717 558.639 266.226 558.363C265.735 558.072 265.191 557.926 264.593 557.926C264.087 557.926 263.612 558.026 263.167 558.225C262.738 558.424 262.362 558.708 262.04 559.076C261.718 559.429 261.465 559.85 261.281 560.341C261.097 560.832 261.005 561.376 261.005 561.974C261.005 562.557 261.097 563.101 261.281 563.607C261.48 564.098 261.741 564.527 262.063 564.895C262.4 565.263 262.784 565.554 263.213 565.769C263.658 565.968 264.125 566.068 264.616 566.068C264.923 566.068 265.229 566.03 265.536 565.953C265.843 565.861 266.119 565.738 266.364 565.585C266.625 565.432 266.847 565.255 267.031 565.056C267.23 564.857 267.376 564.642 267.468 564.412L269.952 565.148C269.553 566.053 268.886 566.796 267.951 567.379C267.016 567.946 265.912 568.23 264.639 568.23C263.704 568.23 262.853 568.061 262.086 567.724C261.319 567.387 260.66 566.934 260.108 566.367C259.571 565.784 259.15 565.117 258.843 564.366C258.552 563.615 258.406 562.817 258.406 561.974ZM277.352 568.23C276.416 568.23 275.565 568.069 274.799 567.747C274.032 567.41 273.373 566.957 272.821 566.39C272.284 565.823 271.862 565.163 271.556 564.412C271.264 563.661 271.119 562.863 271.119 562.02C271.119 561.177 271.264 560.379 271.556 559.628C271.862 558.861 272.284 558.194 272.821 557.627C273.373 557.044 274.032 556.592 274.799 556.27C275.565 555.933 276.424 555.764 277.375 555.764C278.31 555.764 279.153 555.933 279.905 556.27C280.671 556.607 281.323 557.06 281.86 557.627C282.396 558.179 282.803 558.831 283.079 559.582C283.37 560.318 283.516 561.092 283.516 561.905C283.516 562.089 283.508 562.265 283.493 562.434C283.477 562.587 283.462 562.718 283.447 562.825H273.81C273.856 563.362 273.978 563.845 274.178 564.274C274.392 564.703 274.661 565.079 274.983 565.401C275.32 565.708 275.696 565.945 276.11 566.114C276.539 566.283 276.984 566.367 277.444 566.367C277.781 566.367 278.111 566.329 278.433 566.252C278.77 566.16 279.077 566.037 279.353 565.884C279.629 565.715 279.874 565.516 280.089 565.286C280.303 565.056 280.472 564.803 280.595 564.527L282.757 565.148C282.343 566.053 281.653 566.796 280.687 567.379C279.736 567.946 278.624 568.23 277.352 568.23ZM281.009 561.077C280.963 560.571 280.832 560.103 280.618 559.674C280.418 559.245 280.158 558.884 279.836 558.593C279.514 558.286 279.138 558.049 278.709 557.88C278.279 557.711 277.827 557.627 277.352 557.627C276.876 557.627 276.424 557.711 275.995 557.88C275.581 558.049 275.213 558.286 274.891 558.593C274.569 558.884 274.308 559.245 274.109 559.674C273.909 560.103 273.787 560.571 273.741 561.077H281.009ZM294.803 551.21C294.772 552.13 294.427 552.828 293.768 553.303C293.108 553.778 292.242 554.016 291.169 554.016C290.095 554.016 289.229 553.778 288.57 553.303C287.91 552.828 287.558 552.13 287.512 551.21H288.961C288.991 551.823 289.191 552.253 289.559 552.498C289.942 552.728 290.479 552.843 291.169 552.843C291.843 552.843 292.365 552.728 292.733 552.498C293.116 552.253 293.331 551.823 293.377 551.21H294.803ZM288.11 564.412L294.274 555.971H296.206V568H293.722V559.743L287.673 568H285.626V555.971H288.11V564.412ZM307.63 568H305.146V563.446C304.793 563.569 304.433 563.661 304.065 563.722C303.697 563.768 303.183 563.791 302.524 563.791C301.818 563.791 301.22 563.676 300.73 563.446C300.239 563.216 299.833 562.909 299.511 562.526C299.204 562.143 298.974 561.698 298.821 561.192C298.683 560.686 298.614 560.157 298.614 559.605V555.971H301.075V559.168C301.075 560.119 301.251 560.778 301.604 561.146C301.972 561.514 302.478 561.698 303.122 561.698C303.658 561.698 304.08 561.652 304.387 561.56C304.709 561.468 304.962 561.345 305.146 561.192V555.971H307.63V568ZM313.91 568.23C313.328 568.23 312.783 568.138 312.277 567.954C311.787 567.755 311.357 567.486 310.989 567.149C310.637 566.812 310.353 566.413 310.138 565.953C309.939 565.493 309.839 564.995 309.839 564.458C309.839 563.891 309.962 563.377 310.207 562.917C310.453 562.457 310.798 562.058 311.242 561.721C311.702 561.384 312.239 561.123 312.852 560.939C313.481 560.755 314.171 560.663 314.922 560.663C315.49 560.663 316.049 560.717 316.601 560.824C317.153 560.916 317.652 561.046 318.096 561.215V560.387C318.096 559.498 317.843 558.808 317.337 558.317C316.831 557.811 316.103 557.558 315.152 557.558C314.508 557.558 313.872 557.681 313.243 557.926C312.63 558.156 311.994 558.493 311.334 558.938L310.552 557.328C312.101 556.285 313.711 555.764 315.382 555.764C317.038 555.764 318.326 556.186 319.246 557.029C320.166 557.872 320.626 559.084 320.626 560.663V565.01C320.626 565.547 320.849 565.823 321.293 565.838V568C321.048 568.046 320.833 568.077 320.649 568.092C320.481 568.107 320.312 568.115 320.143 568.115C319.653 568.115 319.269 567.992 318.993 567.747C318.733 567.502 318.572 567.187 318.51 566.804L318.441 566.045C317.905 566.75 317.238 567.295 316.44 567.678C315.658 568.046 314.815 568.23 313.91 568.23ZM314.6 566.367C315.214 566.367 315.789 566.26 316.325 566.045C316.877 565.815 317.307 565.501 317.613 565.102C317.935 564.826 318.096 564.535 318.096 564.228V562.641C317.667 562.472 317.207 562.342 316.716 562.25C316.241 562.158 315.773 562.112 315.313 562.112C314.409 562.112 313.665 562.311 313.082 562.71C312.515 563.093 312.231 563.607 312.231 564.251C312.231 564.849 312.454 565.355 312.898 565.769C313.343 566.168 313.91 566.367 314.6 566.367ZM322.936 561.974C322.936 561.131 323.082 560.333 323.373 559.582C323.665 558.831 324.079 558.171 324.615 557.604C325.167 557.037 325.827 556.592 326.593 556.27C327.36 555.933 328.219 555.764 329.169 555.764C330.411 555.764 331.477 556.04 332.366 556.592C333.271 557.129 333.946 557.849 334.39 558.754L331.929 559.536C331.638 559.03 331.247 558.639 330.756 558.363C330.266 558.072 329.721 557.926 329.123 557.926C328.617 557.926 328.142 558.026 327.697 558.225C327.268 558.424 326.892 558.708 326.57 559.076C326.248 559.429 325.995 559.85 325.811 560.341C325.627 560.832 325.535 561.376 325.535 561.974C325.535 562.557 325.627 563.101 325.811 563.607C326.011 564.098 326.271 564.527 326.593 564.895C326.931 565.263 327.314 565.554 327.743 565.769C328.188 565.968 328.656 566.068 329.146 566.068C329.453 566.068 329.76 566.03 330.066 565.953C330.373 565.861 330.649 565.738 330.894 565.585C331.155 565.432 331.377 565.255 331.561 565.056C331.761 564.857 331.906 564.642 331.998 564.412L334.482 565.148C334.084 566.053 333.417 566.796 332.481 567.379C331.546 567.946 330.442 568.23 329.169 568.23C328.234 568.23 327.383 568.061 326.616 567.724C325.85 567.387 325.19 566.934 324.638 566.367C324.102 565.784 323.68 565.117 323.373 564.366C323.082 563.615 322.936 562.817 322.936 561.974Z" fill="white"/>
<path d="M70.7952 131.901L84.2877 152.728L95.5293 130.605L115.662 129.55L94.7496 165.253L118.462 197.657L98.3296 198.712L85.6543 178.804L75.1294 199.928L54.9011 200.988L75.0965 166.283L50.567 132.962L70.7952 131.901ZM140.372 197.085C135.195 197.357 130.445 196.612 126.123 194.852C121.801 193.092 118.055 190.693 114.883 187.654C111.709 184.552 109.182 180.968 107.302 176.9C105.423 172.833 104.367 168.595 104.136 164.185C103.902 159.711 104.539 155.352 106.046 151.107C107.554 146.862 109.76 143.093 112.664 139.801C115.628 136.441 119.171 133.724 123.292 131.65C127.473 129.508 132.089 128.305 137.138 128.04C142.315 127.769 147.064 128.513 151.386 130.273C155.708 132.034 159.457 134.465 162.631 137.567C165.806 140.669 168.301 144.255 170.117 148.326C171.996 152.393 173.05 156.6 173.277 160.946C173.512 165.42 172.875 169.779 171.367 174.024C169.856 178.204 167.65 181.973 164.75 185.329C161.846 188.622 158.304 191.339 154.122 193.481C150.004 195.619 145.421 196.821 140.372 197.085ZM123.128 163.382C123.249 165.682 123.686 167.903 124.439 170.042C125.188 172.118 126.246 173.953 127.611 175.548C128.976 177.142 130.645 178.401 132.616 179.323C134.65 180.242 137.01 180.631 139.694 180.49C142.379 180.349 144.685 179.716 146.612 178.589C148.537 177.399 150.062 175.941 151.19 174.216C152.378 172.423 153.202 170.425 153.663 168.222C154.189 166.016 154.393 163.794 154.275 161.557C154.155 159.256 153.72 157.068 152.97 154.992C152.217 152.853 151.128 151.019 149.702 149.492C148.336 147.897 146.638 146.672 144.606 145.817C142.635 144.895 140.34 144.503 137.719 144.64C135.035 144.781 132.729 145.415 130.801 146.541C128.938 147.664 127.412 149.122 126.224 150.915C125.033 152.643 124.175 154.611 123.649 156.817C123.185 158.957 123.011 161.145 123.128 163.382ZM208.45 124.687L226.665 123.733L230.233 191.799L212.018 192.754L210.761 168.787C209.015 169.711 207.1 170.453 205.014 171.011C202.989 171.501 200.283 171.835 196.895 172.013C192.869 172.224 189.419 171.828 186.547 170.825C183.735 169.754 181.411 168.21 179.575 166.191C177.739 164.173 176.363 161.777 175.449 159.005C174.531 156.17 173.986 153.09 173.811 149.766L172.596 126.566L190.811 125.612L191.705 142.676C191.913 146.639 192.84 149.666 194.488 151.759C196.196 153.784 198.968 154.697 202.803 154.496C205.615 154.348 207.988 153.775 209.922 152.777L208.45 124.687ZM285.575 172.556L286.429 188.854L237.919 191.396L234.352 123.33L281.999 120.833L282.853 137.13L253.9 138.648L254.403 148.235L279.137 146.938L279.931 162.085L255.197 163.382L255.759 174.119L285.575 172.556ZM374.664 115.976L378.231 184.043L291.662 188.58L288.095 120.513L306.789 119.534L309.502 171.302L324.745 170.504L322.032 118.735L340.726 117.755L343.439 169.524L358.682 168.725L355.969 116.956L374.664 115.976ZM381.394 115.624L400.088 114.644L401.269 137.173L412.39 136.59C416.224 136.389 419.671 136.721 422.728 137.586C425.849 138.448 428.517 139.815 430.73 141.685C433.003 143.489 434.787 145.735 436.081 148.422C437.376 151.11 438.114 154.18 438.294 157.631C438.673 164.853 436.862 170.652 432.861 175.027C428.858 179.339 423.149 181.689 415.735 182.077L384.961 183.69L381.394 115.624ZM402.832 166.988L412.227 166.496C414.655 166.368 416.442 165.602 417.586 164.196C418.79 162.723 419.331 160.804 419.207 158.439C419.099 156.394 418.368 154.67 417.013 153.267C415.718 151.797 413.856 151.125 411.428 151.253L402.033 151.745L402.832 166.988Z" fill="#BD39C9"/>
<path d="M434.721 189.616L43.0463 210L74.148 336.402L423.649 294.652L434.721 189.616Z" fill="#2A1432"/>
<g filter="url(#filter0_d_579_2289)">
<path d="M468.135 197.958L20.7568 227.642L43.8063 317.419L457.846 276.998L468.135 197.958Z" fill="#BD39C9"/>
</g>
<path d="M58.199 257.004L78.0246 255.404L79.9662 279.466L75.3233 279.841L73.7125 259.88L63.1728 260.73L64.7835 280.691L60.1406 281.066L58.199 257.004ZM95.7805 278.361C94.0182 278.503 92.3867 278.293 90.8861 277.732C89.4062 277.147 88.101 276.331 86.9706 275.285C85.8609 274.215 84.9644 272.968 84.2811 271.545C83.5977 270.122 83.1941 268.643 83.0701 267.106C82.9406 265.502 83.1104 263.942 83.5793 262.426C84.0708 260.908 84.7906 259.543 85.7388 258.329C86.7095 257.114 87.8914 256.12 89.2845 255.348C90.6758 254.554 92.2187 254.088 93.9132 253.952C95.6528 253.811 97.2635 254.045 98.7452 254.653C100.248 255.237 101.554 256.064 102.663 257.134C103.773 258.204 104.67 259.451 105.353 260.874C106.036 262.297 106.439 263.765 106.561 265.279C106.691 266.883 106.521 268.443 106.052 269.959C105.581 271.452 104.872 272.806 103.924 274.019C102.974 275.21 101.803 276.203 100.412 276.998C99.0188 277.769 97.475 278.224 95.7805 278.361ZM87.8147 266.724C87.8985 267.763 88.1378 268.755 88.5325 269.701C88.9272 270.647 89.4484 271.469 90.0959 272.168C90.7661 272.864 91.5487 273.403 92.4437 273.786C93.3613 274.167 94.3737 274.313 95.4807 274.223C96.6104 274.132 97.5863 273.826 98.4083 273.305C99.2512 272.759 99.9353 272.079 100.461 271.263C101.009 270.446 101.391 269.551 101.609 268.578C101.846 267.581 101.925 266.585 101.845 265.591C101.761 264.552 101.511 263.56 101.093 262.616C100.699 261.67 100.166 260.849 99.496 260.153C98.8484 259.454 98.0667 258.926 97.151 258.568C96.256 258.186 95.2662 258.038 94.1817 258.126C93.0521 258.217 92.0658 258.535 91.223 259.081C90.3783 259.604 89.6932 260.273 89.1678 261.088C88.6405 261.881 88.258 262.776 88.0201 263.773C87.8029 264.746 87.7345 265.729 87.8147 266.724ZM130.033 269.184C130.115 270.2 129.983 271.109 129.639 271.91C129.294 272.711 128.781 273.401 128.1 273.979C127.442 274.555 126.649 275.017 125.722 275.365C124.817 275.71 123.834 275.926 122.772 276.012L111.148 276.95L109.206 252.888L122.085 251.849C122.92 251.781 123.692 251.901 124.399 252.208C125.106 252.515 125.72 252.943 126.242 253.492C126.762 254.018 127.177 254.644 127.485 255.37C127.815 256.071 128.009 256.794 128.07 257.54C128.164 258.715 127.96 259.846 127.457 260.932C126.951 261.996 126.154 262.823 125.064 263.411C126.475 263.706 127.619 264.353 128.495 265.351C129.393 266.325 129.905 267.602 130.033 269.184ZM125.251 268.683C125.216 268.254 125.104 267.853 124.915 267.482C124.747 267.086 124.526 266.751 124.254 266.478C123.982 266.204 123.67 266.002 123.318 265.871C122.965 265.718 122.585 265.657 122.178 265.69L114.993 266.27L115.505 272.607L122.452 272.047C122.882 272.012 123.271 271.901 123.619 271.714C123.991 271.525 124.301 271.284 124.55 270.991C124.798 270.675 124.985 270.319 125.112 269.922C125.239 269.525 125.285 269.112 125.251 268.683ZM114.206 256.51L114.695 262.576L120.931 262.073C121.722 262.009 122.367 261.684 122.865 261.098C123.386 260.51 123.608 259.742 123.532 258.793C123.457 257.867 123.138 257.153 122.575 256.653C122.034 256.151 121.391 255.93 120.645 255.99L114.206 256.51ZM133.019 250.967L137.662 250.592L138.345 259.064L142.954 258.692C144.174 258.594 145.306 258.673 146.35 258.93C147.417 259.185 148.35 259.61 149.148 260.205C149.947 260.8 150.588 261.567 151.073 262.506C151.557 263.422 151.848 264.501 151.949 265.744C152.051 267.009 151.938 268.144 151.609 269.148C151.281 270.153 150.772 271.024 150.081 271.762C149.411 272.475 148.582 273.054 147.594 273.497C146.627 273.916 145.557 274.173 144.382 274.268L134.96 275.028L133.019 250.967ZM155.498 273.371L153.559 249.343L158.236 248.966L160.174 272.994L155.498 273.371ZM139.283 270.689L143.621 270.339C144.932 270.233 145.886 269.803 146.485 269.05C147.084 268.297 147.334 267.31 147.235 266.09C147.142 264.938 146.728 264.028 145.992 263.359C145.254 262.668 144.252 262.374 142.987 262.476L138.649 262.826L139.283 270.689ZM163.204 260.47C163.085 259.001 163.228 257.534 163.633 256.069C164.059 254.579 164.734 253.228 165.66 252.017C166.585 250.805 167.754 249.79 169.166 248.971C170.578 248.152 172.222 247.667 174.097 247.515C176.311 247.337 178.26 247.668 179.942 248.51C181.647 249.351 182.958 250.518 183.875 252.014L180.482 254.777C180.111 254.125 179.681 253.591 179.193 253.176C178.703 252.738 178.187 252.404 177.645 252.175C177.104 251.946 176.546 251.798 175.972 251.73C175.396 251.64 174.837 251.617 174.295 251.661C173.12 251.756 172.112 252.076 171.269 252.621C170.448 253.165 169.776 253.845 169.25 254.66C168.745 255.452 168.385 256.345 168.17 257.34C167.953 258.313 167.883 259.273 167.959 260.222C168.045 261.284 168.297 262.298 168.716 263.265C169.134 264.209 169.678 265.03 170.348 265.726C171.04 266.42 171.834 266.959 172.729 267.342C173.647 267.722 174.625 267.871 175.665 267.787C176.207 267.743 176.766 267.63 177.343 267.447C177.919 267.264 178.455 267.005 178.951 266.669C179.47 266.332 179.937 265.919 180.352 265.43C180.766 264.919 181.082 264.325 181.3 263.648L185.307 265.542C184.996 266.477 184.507 267.324 183.841 268.082C183.195 268.817 182.44 269.457 181.574 270.005C180.731 270.55 179.812 270.988 178.815 271.319C177.818 271.65 176.834 271.854 175.863 271.932C174.146 272.071 172.546 271.836 171.065 271.228C169.583 270.62 168.276 269.782 167.144 268.713C166.032 267.621 165.123 266.364 164.417 264.942C163.732 263.497 163.328 262.006 163.204 260.47ZM193.382 263.083L204.289 245.216L207.847 244.928L209.789 268.99L205.146 269.365L203.814 252.86L193.047 270.341L189.319 270.642L187.378 246.58L192.02 246.206L193.382 263.083ZM231.623 247.137L223.93 247.758L225.541 267.719L220.898 268.094L219.287 248.133L211.594 248.753L211.264 244.653L231.292 243.037L231.623 247.137ZM234.72 242.76L239.363 242.385L240.047 250.858L244.656 250.486C245.876 250.387 247.008 250.467 248.052 250.723C249.118 250.978 250.051 251.403 250.849 251.999C251.648 252.594 252.29 253.36 252.775 254.299C253.258 255.215 253.55 256.295 253.65 257.537C253.752 258.802 253.639 259.937 253.311 260.942C252.982 261.946 252.473 262.817 251.782 263.555C251.112 264.269 250.283 264.847 249.295 265.291C248.329 265.71 247.258 265.967 246.083 266.061L236.662 266.822L234.72 242.76ZM240.985 262.482L245.323 262.132C246.633 262.026 247.587 261.597 248.186 260.843C248.785 260.09 249.035 259.103 248.937 257.883C248.844 256.731 248.429 255.821 247.693 255.153C246.955 254.462 245.953 254.167 244.688 254.269L240.35 254.619L240.985 262.482ZM264.588 240.35L284.414 238.75L286.355 262.812L281.712 263.186L280.102 243.225L269.562 244.076L271.173 264.037L266.53 264.412L264.588 240.35ZM291.955 262.36L290.013 238.298L300.214 237.475C301.321 237.386 302.357 237.541 303.322 237.94C304.307 238.316 305.17 238.86 305.91 239.574C306.647 240.265 307.248 241.08 307.71 242.021C308.171 242.939 308.44 243.883 308.519 244.855C308.601 245.872 308.5 246.88 308.217 247.881C307.932 248.859 307.492 249.747 306.897 250.546C306.302 251.344 305.56 252.007 304.67 252.533C303.78 253.06 302.782 253.368 301.675 253.457L295.981 253.917L296.632 261.982L291.955 262.36ZM295.65 249.816L301.072 249.378C301.931 249.309 302.614 248.902 303.123 248.156C303.654 247.408 303.871 246.435 303.774 245.238C303.725 244.628 303.591 244.093 303.372 243.633C303.151 243.15 302.88 242.752 302.559 242.436C302.238 242.121 301.868 241.901 301.448 241.776C301.05 241.626 300.647 241.567 300.24 241.6L295.021 242.021L295.65 249.816ZM323.723 259.967C321.96 260.109 320.329 259.9 318.828 259.339C317.348 258.753 316.043 257.937 314.913 256.892C313.803 255.821 312.907 254.575 312.223 253.152C311.54 251.729 311.136 250.249 311.012 248.713C310.883 247.109 311.053 245.549 311.522 244.033C312.013 242.515 312.733 241.149 313.681 239.936C314.652 238.72 315.834 237.727 317.227 236.955C318.618 236.16 320.161 235.695 321.855 235.558C323.595 235.418 325.206 235.652 326.688 236.26C328.19 236.843 329.496 237.67 330.606 238.741C331.715 239.811 332.612 241.057 333.295 242.48C333.979 243.903 334.381 245.372 334.503 246.885C334.633 248.49 334.463 250.05 333.994 251.566C333.524 253.059 332.814 254.412 331.866 255.626C330.916 256.817 329.745 257.81 328.354 258.604C326.961 259.376 325.417 259.83 323.723 259.967ZM315.757 248.33C315.841 249.369 316.08 250.362 316.475 251.308C316.869 252.254 317.391 253.076 318.038 253.774C318.708 254.47 319.491 255.01 320.386 255.393C321.304 255.773 322.316 255.919 323.423 255.83C324.553 255.739 325.529 255.432 326.351 254.911C327.193 254.366 327.878 253.685 328.403 252.87C328.951 252.052 329.334 251.157 329.551 250.184C329.789 249.187 329.868 248.192 329.787 247.198C329.703 246.159 329.453 245.167 329.036 244.223C328.641 243.277 328.108 242.455 327.438 241.759C326.791 241.061 326.009 240.533 325.093 240.175C324.198 239.792 323.208 239.644 322.124 239.732C320.994 239.823 320.008 240.142 319.165 240.687C318.321 241.21 317.636 241.879 317.11 242.695C316.583 243.488 316.2 244.383 315.962 245.38C315.745 246.353 315.677 247.336 315.757 248.33ZM336.04 254.675L336.887 254.607C337.54 254.531 338.101 254.293 338.569 253.891C339.037 253.49 339.424 252.788 339.729 251.785C340.035 250.783 340.266 249.422 340.423 247.704C340.578 245.963 340.672 243.738 340.703 241.03L340.766 234.203L355.339 233.027L356.95 252.988L360.508 252.701L361.323 262.8L356.951 263.153L356.467 257.154L340.776 258.42L341.26 264.419L336.855 264.774L336.04 254.675ZM352.273 253.365L350.993 237.505L345.334 237.961L345.29 241.649C345.272 244.811 345.094 247.395 344.756 249.401C344.44 251.405 343.941 252.969 343.258 254.093L352.273 253.365ZM369.194 231.909L373.329 231.575L384.421 254.898L379.609 255.287L376.888 249.469L368.483 250.147L366.764 256.323L361.952 256.712L369.194 231.909ZM375.775 246.25L371.691 237.063L368.997 246.797L375.775 246.25ZM392.258 241.747L383.424 230.76L388.677 230.337L395.982 239.707L398.456 239.508L397.658 229.612L402.504 229.221L403.302 239.117L405.742 238.92L411.451 228.499L416.738 228.072L409.779 240.334L419.459 252.071L414.206 252.495L406.624 243.078L403.642 243.319L404.446 253.283L399.599 253.674L398.795 243.71L395.813 243.951L389.805 254.464L384.586 254.885L392.258 241.747ZM426.123 244.302L437.03 226.435L440.588 226.148L442.53 250.209L437.887 250.584L436.555 234.08L425.788 251.56L422.06 251.861L420.119 227.799L424.762 227.425L426.123 244.302Z" fill="white"/>
<path d="M80.5046 359.34L388.898 340.575C406.973 339.475 421.895 354.518 420.649 372.584L413.926 470.064C412.842 485.794 399.765 498 383.998 498L100.78 498C86.8495 498 74.7517 488.41 71.5721 474.847L53.1186 396.132C48.8752 378.031 61.9479 360.469 80.5046 359.34Z" fill="#2A1432"/>
<path d="M92.3695 390.409C92.8449 389.732 93.414 389.221 94.077 388.875C94.7547 388.528 95.5992 388.338 96.6106 388.302C98.0617 388.252 99.194 388.528 100.008 389.13C100.836 389.732 101.271 390.634 101.313 391.836C101.344 392.73 101.151 393.508 100.734 394.168C100.316 394.814 99.7148 395.245 98.9299 395.464C99.9014 395.547 100.692 395.908 101.301 396.548C101.911 397.187 102.234 398.034 102.27 399.089C102.295 399.793 102.179 400.45 101.921 401.061C101.678 401.656 101.322 402.182 100.853 402.639C100.385 403.081 99.8248 403.438 99.1739 403.71C98.5224 403.968 97.8083 404.11 97.0315 404.137C95.9908 404.173 95.0599 403.993 94.2389 403.596C93.4179 403.199 92.7812 402.62 92.329 401.858L93.8714 400.637C94.228 401.183 94.6611 401.608 95.1707 401.913C95.6803 402.218 96.3089 402.357 97.0564 402.331C97.5401 402.314 97.9773 402.226 98.368 402.065C98.7733 401.904 99.1181 401.694 99.4026 401.435C99.6865 401.161 99.903 400.845 100.052 400.488C100.215 400.115 100.289 399.716 100.274 399.291C100.242 398.368 99.8429 397.655 99.077 397.154C98.3252 396.637 97.2896 396.401 95.9704 396.447L94.7832 396.489L94.7217 394.73L95.909 394.689C97.0084 394.65 97.8655 394.4 98.4804 393.938C99.0953 393.477 99.389 392.85 99.3613 392.058C99.3363 391.34 99.0684 390.814 98.5577 390.48C98.0618 390.145 97.44 389.99 96.6924 390.016C96.0328 390.039 95.4438 390.192 94.9253 390.474C94.4064 390.742 94.0085 391.115 93.7317 391.595L92.3695 390.409ZM107.843 403.87C107.301 403.889 106.792 403.818 106.317 403.659C105.841 403.485 105.422 403.242 105.058 402.932C104.71 402.622 104.426 402.257 104.206 401.839C104 401.406 103.888 400.933 103.87 400.42C103.852 399.893 103.952 399.412 104.172 398.979C104.391 398.531 104.708 398.146 105.122 397.823C105.551 397.5 106.056 397.24 106.636 397.044C107.231 396.847 107.88 396.736 108.584 396.711C109.141 396.692 109.707 396.724 110.282 396.806C110.857 396.889 111.368 397.01 111.814 397.171L111.781 396.248C111.749 395.309 111.459 394.586 110.913 394.077C110.366 393.553 109.609 393.308 108.642 393.341C107.484 393.382 106.283 393.871 105.039 394.81L104.358 393.579C105.803 392.531 107.274 391.98 108.769 391.928C110.278 391.875 111.465 392.238 112.329 393.015C113.207 393.791 113.672 394.912 113.723 396.378L113.887 401.061C113.902 401.515 114.116 401.743 114.527 401.743L114.585 403.414C114.381 403.451 114.213 403.478 114.082 403.498C113.95 403.517 113.811 403.529 113.665 403.534C113.284 403.548 112.972 403.448 112.73 403.237C112.502 403.01 112.36 402.736 112.305 402.415L112.232 401.603C111.744 402.31 111.11 402.86 110.331 403.254C109.566 403.633 108.737 403.838 107.843 403.87ZM108.298 402.401C108.987 402.377 109.62 402.23 110.198 401.96C110.789 401.676 111.232 401.315 111.525 400.879C111.794 400.591 111.923 400.3 111.913 400.007L111.853 398.314C110.903 397.981 109.921 397.831 108.91 397.867C107.943 397.901 107.158 398.133 106.557 398.565C105.97 398.997 105.689 399.542 105.712 400.202C105.723 400.524 105.792 400.823 105.919 401.097C106.061 401.371 106.245 401.607 106.472 401.804C106.714 402.001 106.99 402.153 107.302 402.26C107.614 402.366 107.946 402.413 108.298 402.401ZM123.566 391.609L125.72 391.534L121.408 397.276L126.429 403.001L124.296 403.075L120.185 398.177L118.844 398.224L119.02 403.259L117.129 403.325L116.728 391.848L118.619 391.782L118.793 396.773L119.914 396.734L123.566 391.609ZM130.839 403.067C130.296 403.086 129.788 403.015 129.312 402.856C128.837 402.682 128.417 402.439 128.054 402.129C127.706 401.819 127.422 401.454 127.202 401.036C126.996 400.603 126.884 400.13 126.866 399.617C126.847 399.09 126.948 398.609 127.168 398.176C127.387 397.728 127.704 397.343 128.118 397.02C128.547 396.697 129.052 396.437 129.632 396.241C130.227 396.044 130.876 395.933 131.579 395.908C132.136 395.889 132.702 395.921 133.278 396.003C133.853 396.086 134.363 396.207 134.809 396.368L134.777 395.445C134.744 394.506 134.455 393.783 133.909 393.274C133.362 392.75 132.605 392.505 131.638 392.538C130.48 392.579 129.279 393.068 128.035 394.007L127.353 392.776C128.799 391.728 130.269 391.177 131.764 391.125C133.274 391.072 134.461 391.434 135.325 392.211C136.203 392.988 136.668 394.109 136.719 395.575L136.882 400.258C136.898 400.712 137.112 400.94 137.523 400.94L137.581 402.611C137.377 402.648 137.209 402.675 137.077 402.695C136.946 402.714 136.807 402.726 136.661 402.731C136.279 402.745 135.968 402.645 135.726 402.434C135.497 402.207 135.356 401.933 135.301 401.612L135.228 400.8C134.739 401.507 134.105 402.057 133.327 402.451C132.562 402.83 131.733 403.035 130.839 403.067ZM131.294 401.598C131.983 401.574 132.616 401.427 133.193 401.157C133.785 400.872 134.228 400.512 134.521 400.076C134.789 399.788 134.919 399.497 134.908 399.204L134.849 397.511C133.898 397.178 132.917 397.028 131.906 397.064C130.938 397.098 130.154 397.33 129.553 397.762C128.966 398.194 128.684 398.739 128.707 399.399C128.719 399.721 128.788 400.02 128.915 400.294C129.056 400.568 129.241 400.804 129.468 401.001C129.709 401.198 129.986 401.35 130.298 401.457C130.61 401.563 130.942 401.61 131.294 401.598ZM139.084 392.256C139.901 391.303 140.977 390.803 142.311 390.757C143.323 390.721 144.145 390.95 144.779 391.441C145.412 391.918 145.743 392.581 145.773 393.432C145.796 394.106 145.633 394.684 145.283 395.166C144.947 395.632 144.472 395.913 143.859 396.008C144.698 396.081 145.362 396.381 145.85 396.907C146.352 397.418 146.618 398.091 146.647 398.926C146.665 399.454 146.58 399.941 146.39 400.388C146.215 400.835 145.949 401.226 145.594 401.561C145.239 401.881 144.807 402.139 144.3 402.332C143.808 402.526 143.254 402.633 142.639 402.655C141.173 402.706 139.973 402.19 139.04 401.107L140.027 399.73C140.38 400.187 140.766 400.519 141.184 400.724C141.602 400.915 142.089 401.001 142.646 400.981C143.35 400.957 143.886 400.777 144.256 400.441C144.626 400.09 144.8 399.607 144.778 398.992C144.753 398.288 144.486 397.762 143.974 397.413C143.463 397.049 142.731 396.884 141.778 396.917L141.008 396.944L140.957 395.471L141.726 395.444C142.445 395.419 143.004 395.245 143.403 394.923C143.818 394.601 144.016 394.175 143.997 393.648C143.982 393.208 143.816 392.869 143.499 392.63C143.182 392.377 142.76 392.26 142.232 392.278C141.47 392.305 140.748 392.653 140.067 393.323L139.084 392.256ZM148.742 390.73L150.632 390.664L150.771 394.622L152.947 394.546C153.446 394.528 153.932 394.592 154.407 394.737C154.896 394.867 155.329 395.086 155.707 395.396C156.099 395.691 156.42 396.076 156.672 396.551C156.922 397.012 157.059 397.565 157.082 398.21C157.104 398.855 157.006 399.416 156.788 399.893C156.57 400.37 156.276 400.77 155.906 401.091C155.549 401.397 155.132 401.631 154.653 401.795C154.175 401.958 153.686 402.049 153.188 402.066L149.142 402.207L148.742 390.73ZM157.932 390.409L159.823 390.343L160.224 401.82L158.333 401.886L157.932 390.409ZM153.131 400.439C153.761 400.417 154.261 400.231 154.631 399.88C155.014 399.515 155.193 398.98 155.169 398.277C155.144 397.558 154.912 397.023 154.474 396.672C154.051 396.32 153.561 396.153 153.004 396.173L150.827 396.249L150.976 400.514L153.131 400.439ZM168.868 390.028C169.278 390.013 169.662 390.073 170.019 390.207C170.375 390.327 170.69 390.507 170.962 390.747C171.235 390.987 171.451 391.28 171.609 391.627C171.768 391.959 171.854 392.33 171.868 392.74C171.877 392.99 171.857 393.247 171.807 393.513C171.757 393.764 171.671 394.017 171.548 394.271C171.439 394.509 171.285 394.735 171.087 394.947C170.889 395.159 170.645 395.329 170.356 395.457C170.993 395.611 171.503 395.923 171.886 396.394C172.269 396.85 172.473 397.438 172.498 398.156C172.515 398.639 172.442 399.09 172.281 399.506C172.119 399.908 171.881 400.254 171.569 400.544C171.27 400.833 170.904 401.066 170.47 401.242C170.05 401.404 169.577 401.494 169.049 401.512L163.486 401.706L163.085 390.229L168.868 390.028ZM168.27 394.957C168.827 394.938 169.254 394.769 169.551 394.45C169.862 394.117 170.008 393.671 169.988 393.114C169.972 392.645 169.834 392.254 169.573 391.94C169.312 391.612 168.889 391.458 168.302 391.478L165.026 391.593L165.148 395.066L168.27 394.957ZM168.779 400.091C169.365 400.07 169.821 399.871 170.145 399.493C170.484 399.099 170.644 398.646 170.626 398.133C170.609 397.649 170.433 397.23 170.098 396.875C169.762 396.52 169.294 396.352 168.693 396.373L165.197 396.496L165.327 400.211L168.779 400.091ZM177.947 401.422C177.404 401.441 176.896 401.37 176.42 401.211C175.945 401.037 175.525 400.794 175.162 400.484C174.814 400.174 174.53 399.809 174.31 399.391C174.104 398.958 173.992 398.485 173.974 397.972C173.955 397.444 174.056 396.964 174.276 396.531C174.495 396.083 174.812 395.698 175.226 395.375C175.655 395.052 176.16 394.792 176.74 394.596C177.335 394.399 177.984 394.288 178.687 394.263C179.244 394.244 179.81 394.276 180.386 394.358C180.961 394.441 181.471 394.562 181.917 394.723L181.885 393.8C181.852 392.861 181.563 392.138 181.017 391.628C180.47 391.105 179.713 390.86 178.746 390.893C177.588 390.934 176.387 391.423 175.143 392.362L174.461 391.131C175.907 390.083 177.377 389.532 178.872 389.48C180.382 389.427 181.569 389.789 182.433 390.566C183.311 391.343 183.776 392.464 183.827 393.93L183.99 398.613C184.006 399.067 184.22 399.295 184.631 399.295L184.689 400.966C184.485 401.003 184.317 401.03 184.185 401.05C184.054 401.069 183.915 401.081 183.769 401.086C183.387 401.1 183.076 401 182.834 400.789C182.606 400.562 182.464 400.288 182.409 399.967L182.336 399.155C181.847 399.862 181.213 400.412 180.435 400.806C179.67 401.185 178.841 401.39 177.947 401.422ZM178.402 399.953C179.091 399.929 179.724 399.782 180.301 399.512C180.893 399.227 181.336 398.867 181.629 398.431C181.897 398.143 182.027 397.852 182.016 397.559L181.957 395.866C181.006 395.533 180.025 395.383 179.014 395.419C178.046 395.452 177.262 395.685 176.661 396.117C176.074 396.549 175.792 397.094 175.815 397.754C175.827 398.076 175.896 398.375 176.023 398.649C176.164 398.923 176.349 399.159 176.576 399.356C176.817 399.553 177.094 399.705 177.406 399.811C177.718 399.918 178.05 399.965 178.402 399.953ZM195.137 384.531C195.107 385.354 194.799 385.981 194.212 386.413C193.625 386.83 192.84 387.055 191.858 387.089C190.876 387.124 190.078 386.953 189.463 386.579C188.847 386.189 188.496 385.585 188.409 384.766L189.574 384.726C189.624 385.326 189.844 385.721 190.232 385.913C190.634 386.09 191.165 386.167 191.825 386.144C192.485 386.121 193.002 386.007 193.376 385.804C193.765 385.585 193.963 385.174 193.972 384.572L195.137 384.531ZM189.028 398.085L194.967 389.116L196.528 389.062L196.929 400.539L195.038 400.605L194.738 392.03L188.903 400.819L187.232 400.877L186.832 389.4L188.723 389.334L189.028 398.085ZM204.43 398.604L205.09 398.581C205.438 398.48 205.726 398.309 205.952 398.066C206.193 397.823 206.393 397.456 206.552 396.967C206.711 396.462 206.842 395.804 206.946 394.994C207.049 394.168 207.145 393.138 207.234 391.902L207.474 388.679L214.619 388.43L214.962 398.236L216.325 398.188L216.509 403.465L214.838 403.523L214.712 399.918L206.094 400.219L206.219 403.824L204.614 403.88L204.43 398.604ZM213.071 398.302L212.781 390.013L209.308 390.134L209.065 392.63C208.915 394.22 208.724 395.482 208.492 396.415C208.275 397.332 207.991 398.024 207.64 398.492L213.071 398.302ZM220.505 396.986L226.444 388.017L228.005 387.962L228.405 399.439L226.515 399.505L226.215 390.931L220.38 399.72L218.709 399.778L218.309 388.301L220.199 388.235L220.505 396.986ZM230.594 389.061C231.412 388.108 232.488 387.608 233.822 387.561C234.833 387.526 235.656 387.754 236.289 388.245C236.922 388.722 237.254 389.386 237.283 390.236C237.307 390.91 237.144 391.488 236.793 391.97C236.458 392.437 235.983 392.718 235.37 392.812C236.209 392.886 236.873 393.185 237.361 393.711C237.863 394.222 238.128 394.895 238.158 395.731C238.176 396.258 238.09 396.746 237.9 397.193C237.725 397.639 237.46 398.03 237.105 398.365C236.749 398.686 236.318 398.943 235.811 399.137C235.319 399.33 234.765 399.437 234.149 399.459C232.683 399.51 231.484 398.994 230.551 397.912L231.538 396.534C231.891 396.992 232.277 397.323 232.695 397.529C233.113 397.719 233.6 397.805 234.157 397.786C234.86 397.761 235.397 397.581 235.767 397.245C236.136 396.895 236.31 396.412 236.289 395.796C236.264 395.092 235.996 394.566 235.485 394.217C234.973 393.853 234.241 393.688 233.288 393.722L232.519 393.748L232.467 392.275L233.237 392.248C233.955 392.223 234.514 392.05 234.914 391.728C235.328 391.405 235.526 390.98 235.508 390.452C235.492 390.012 235.326 389.673 235.01 389.435C234.693 389.182 234.271 389.064 233.743 389.083C232.981 389.109 232.259 389.458 231.578 390.127L230.594 389.061ZM243.563 399.13C243.021 399.149 242.512 399.079 242.037 398.919C241.561 398.745 241.142 398.503 240.779 398.193C240.43 397.882 240.146 397.518 239.926 397.1C239.72 396.667 239.608 396.194 239.59 395.681C239.572 395.153 239.672 394.673 239.892 394.239C240.111 393.791 240.428 393.406 240.842 393.083C241.271 392.76 241.776 392.501 242.356 392.304C242.951 392.107 243.6 391.997 244.304 391.972C244.861 391.953 245.427 391.984 246.002 392.067C246.577 392.149 247.088 392.271 247.534 392.432L247.501 391.508C247.469 390.57 247.179 389.846 246.633 389.337C246.086 388.813 245.329 388.568 244.362 388.602C243.204 388.642 242.003 389.132 240.759 390.071L240.078 388.84C241.523 387.791 242.994 387.241 244.489 387.189C245.998 387.136 247.185 387.498 248.049 388.275C248.927 389.052 249.392 390.173 249.443 391.638L249.607 396.322C249.622 396.776 249.836 397.003 250.247 397.004L250.305 398.675C250.101 398.711 249.933 398.739 249.802 398.758C249.67 398.778 249.531 398.79 249.385 398.795C249.004 398.808 248.692 398.709 248.45 398.497C248.222 398.27 248.08 397.997 248.025 397.676L247.952 396.864C247.464 397.57 246.83 398.121 246.051 398.515C245.286 398.894 244.457 399.099 243.563 399.13ZM244.018 397.661C244.707 397.637 245.34 397.491 245.918 397.221C246.509 396.936 246.952 396.576 247.245 396.14C247.514 395.852 247.643 395.561 247.633 395.268L247.573 393.575C246.623 393.241 245.641 393.092 244.63 393.127C243.663 393.161 242.878 393.394 242.277 393.826C241.69 394.257 241.409 394.803 241.432 395.462C241.443 395.785 241.512 396.083 241.639 396.358C241.781 396.632 241.965 396.867 242.192 397.065C242.434 397.262 242.71 397.414 243.022 397.52C243.334 397.627 243.666 397.674 244.018 397.661ZM260.753 382.24C260.723 383.063 260.415 383.69 259.828 384.121C259.241 384.538 258.456 384.764 257.474 384.798C256.492 384.832 255.694 384.662 255.079 384.287C254.464 383.898 254.112 383.294 254.025 382.475L255.19 382.434C255.241 383.034 255.46 383.43 255.848 383.622C256.251 383.799 256.782 383.876 257.441 383.853C258.101 383.83 258.618 383.716 258.992 383.512C259.381 383.293 259.579 382.883 259.588 382.281L260.753 382.24ZM254.644 395.793L260.583 386.825L262.144 386.77L262.545 398.247L260.654 398.313L260.355 389.738L254.52 398.527L252.849 398.586L252.448 387.109L254.339 387.043L254.644 395.793ZM267.41 391.363L273.214 391.161L273.047 386.389L274.938 386.323L275.339 397.8L273.448 397.866L273.27 392.766L267.466 392.968L267.644 398.069L265.753 398.135L265.352 386.658L267.243 386.592L267.41 391.363ZM283.096 391.762C283.068 390.956 283.181 390.189 283.434 389.461C283.688 388.733 284.062 388.096 284.556 387.551C285.05 386.99 285.644 386.544 286.337 386.212C287.043 385.864 287.837 385.675 288.716 385.644C289.859 385.604 290.85 385.826 291.689 386.311C292.542 386.78 293.196 387.432 293.651 388.268L291.781 388.927C291.469 388.395 291.044 387.992 290.506 387.717C289.967 387.428 289.375 387.294 288.731 387.317C288.203 387.335 287.708 387.462 287.247 387.699C286.785 387.92 286.392 388.228 286.068 388.62C285.745 389.013 285.489 389.47 285.302 389.99C285.129 390.51 285.054 391.077 285.075 391.693C285.096 392.294 285.218 392.855 285.442 393.375C285.666 393.896 285.953 394.348 286.304 394.732C286.669 395.101 287.083 395.387 287.545 395.591C288.021 395.795 288.524 395.887 289.051 395.869C289.388 395.857 289.717 395.801 290.036 395.702C290.37 395.588 290.665 395.445 290.924 395.275C291.196 395.104 291.432 394.912 291.63 394.7C291.828 394.473 291.966 394.233 292.045 393.981L293.956 394.487C293.795 394.918 293.559 395.315 293.249 395.678C292.954 396.041 292.598 396.354 292.181 396.618C291.765 396.882 291.295 397.096 290.773 397.261C290.265 397.426 289.725 397.518 289.154 397.538C288.289 397.568 287.492 397.435 286.762 397.137C286.033 396.84 285.402 396.429 284.87 395.905C284.338 395.38 283.913 394.764 283.595 394.056C283.291 393.333 283.124 392.568 283.096 391.762ZM301.22 397.117C300.356 397.147 299.559 397.021 298.83 396.738C298.1 396.441 297.469 396.03 296.938 395.505C296.406 394.981 295.98 394.365 295.662 393.657C295.358 392.933 295.192 392.169 295.164 391.363C295.136 390.556 295.248 389.789 295.502 389.061C295.77 388.333 296.151 387.689 296.645 387.128C297.154 386.568 297.762 386.121 298.469 385.788C299.176 385.44 299.962 385.251 300.827 385.221C301.692 385.191 302.482 385.325 303.196 385.623C303.926 385.92 304.549 386.331 305.067 386.856C305.583 387.367 305.986 387.976 306.275 388.685C306.578 389.379 306.743 390.107 306.77 390.869C306.775 391.031 306.773 391.177 306.763 391.31C306.768 391.442 306.764 391.545 306.752 391.618L297.232 391.951C297.296 392.521 297.446 393.037 297.682 393.498C297.918 393.959 298.218 394.353 298.582 394.677C298.945 395.002 299.35 395.252 299.797 395.427C300.258 395.602 300.737 395.681 301.236 395.663C301.587 395.651 301.93 395.595 302.264 395.495C302.598 395.381 302.909 395.238 303.196 395.067C303.484 394.895 303.733 394.688 303.945 394.446C304.171 394.203 304.338 393.933 304.445 393.636L306.132 394.04C305.956 394.471 305.706 394.869 305.381 395.232C305.071 395.595 304.701 395.917 304.27 396.196C303.854 396.46 303.384 396.674 302.862 396.839C302.339 397.004 301.792 397.097 301.22 397.117ZM304.921 390.251C304.858 389.711 304.701 389.217 304.451 388.771C304.215 388.31 303.915 387.924 303.552 387.614C303.204 387.303 302.799 387.068 302.339 386.908C301.878 386.733 301.391 386.654 300.878 386.672C300.365 386.69 299.884 386.802 299.437 387.009C298.988 387.201 298.594 387.471 298.254 387.821C297.928 388.155 297.663 388.553 297.459 389.015C297.27 389.477 297.163 389.979 297.138 390.523L304.921 390.251ZM317.072 380.273C317.042 381.096 316.734 381.723 316.147 382.155C315.56 382.571 314.776 382.797 313.794 382.831C312.811 382.866 312.013 382.695 311.398 382.321C310.783 381.931 310.432 381.327 310.344 380.508L311.51 380.468C311.56 381.067 311.779 381.463 312.167 381.655C312.57 381.832 313.101 381.909 313.761 381.886C314.42 381.863 314.937 381.749 315.312 381.546C315.7 381.326 315.899 380.916 315.907 380.314L317.072 380.273ZM310.964 393.827L316.902 384.858L318.463 384.804L318.864 396.281L316.973 396.347L316.674 387.772L310.839 396.561L309.168 396.619L308.767 385.142L310.658 385.076L310.964 393.827ZM329.482 395.91L327.569 395.977L327.409 391.403C327.249 391.453 327.09 391.503 326.93 391.552C326.785 391.601 326.61 391.644 326.406 391.681C326.216 391.702 325.989 391.724 325.726 391.748C325.477 391.772 325.177 391.789 324.825 391.802C324.137 391.826 323.554 391.736 323.077 391.533C322.6 391.329 322.216 391.049 321.925 390.692C321.633 390.321 321.42 389.903 321.287 389.438C321.153 388.958 321.076 388.455 321.058 387.927L320.946 384.717L322.859 384.65L322.958 387.486C322.993 388.498 323.208 389.195 323.603 389.577C323.997 389.945 324.524 390.117 325.184 390.094C325.8 390.073 326.274 390.005 326.608 389.89C326.941 389.776 327.186 389.635 327.342 389.469L327.168 384.5L329.081 384.433L329.482 395.91ZM335.61 395.916C335.068 395.935 334.559 395.865 334.084 395.705C333.608 395.531 333.189 395.289 332.826 394.978C332.478 394.668 332.193 394.303 331.973 393.886C331.767 393.452 331.655 392.979 331.638 392.466C331.619 391.939 331.72 391.458 331.939 391.025C332.159 390.577 332.475 390.192 332.89 389.869C333.319 389.546 333.823 389.286 334.403 389.09C334.998 388.893 335.647 388.782 336.351 388.758C336.908 388.738 337.474 388.77 338.049 388.852C338.625 388.935 339.135 389.057 339.581 389.217L339.549 388.294C339.516 387.356 339.227 386.632 338.68 386.123C338.134 385.599 337.377 385.354 336.409 385.388C335.251 385.428 334.05 385.918 332.806 386.856L332.125 385.625C333.571 384.577 335.041 384.026 336.536 383.974C338.046 383.922 339.233 384.284 340.096 385.061C340.975 385.837 341.439 386.958 341.49 388.424L341.654 393.107C341.67 393.562 341.883 393.789 342.294 393.789L342.353 395.46C342.148 395.497 341.981 395.525 341.849 395.544C341.718 395.563 341.579 395.575 341.432 395.58C341.051 395.594 340.739 395.495 340.497 395.283C340.269 395.056 340.128 394.782 340.072 394.461L340 393.649C339.511 394.356 338.877 394.907 338.098 395.301C337.334 395.68 336.504 395.885 335.61 395.916ZM336.065 394.447C336.754 394.423 337.388 394.276 337.965 394.007C338.557 393.722 338.999 393.361 339.292 392.926C339.561 392.637 339.69 392.347 339.68 392.053L339.621 390.361C338.67 390.027 337.689 389.878 336.677 389.913C335.71 389.947 334.926 390.18 334.324 390.612C333.738 391.043 333.456 391.588 333.479 392.248C333.49 392.57 333.559 392.869 333.686 393.143C333.828 393.417 334.012 393.653 334.239 393.85C334.481 394.047 334.758 394.199 335.07 394.306C335.382 394.412 335.714 394.459 336.065 394.447ZM343.881 389.639C343.853 388.833 343.966 388.066 344.219 387.338C344.473 386.61 344.847 385.973 345.341 385.428C345.835 384.868 346.429 384.421 347.122 384.089C347.829 383.741 348.622 383.552 349.501 383.522C350.645 383.482 351.636 383.704 352.474 384.188C353.327 384.657 353.981 385.31 354.436 386.145L352.566 386.805C352.254 386.272 351.829 385.869 351.291 385.594C350.752 385.305 350.161 385.172 349.516 385.194C348.988 385.212 348.494 385.34 348.032 385.576C347.57 385.798 347.177 386.105 346.854 386.498C346.53 386.891 346.274 387.347 346.087 387.867C345.914 388.387 345.839 388.955 345.86 389.57C345.881 390.171 346.004 390.732 346.227 391.253C346.451 391.773 346.738 392.225 347.089 392.609C347.454 392.978 347.868 393.264 348.33 393.468C348.807 393.672 349.309 393.764 349.836 393.746C350.174 393.734 350.502 393.679 350.821 393.58C351.155 393.465 351.451 393.323 351.709 393.152C351.982 392.981 352.217 392.79 352.415 392.577C352.613 392.35 352.751 392.111 352.83 391.858L354.741 392.364C354.58 392.795 354.345 393.192 354.034 393.555C353.739 393.918 353.383 394.231 352.966 394.495C352.55 394.759 352.081 394.974 351.558 395.139C351.05 395.303 350.51 395.396 349.939 395.416C349.074 395.446 348.277 395.312 347.547 395.015C346.818 394.717 346.187 394.306 345.655 393.782C345.123 393.258 344.698 392.641 344.38 391.933C344.076 391.21 343.91 390.446 343.881 389.639Z" fill="white"/>
<path d="M357.418 396.717L357.728 394.857L357.222 394.875L357.149 392.786L358.6 392.736L358.673 394.824L358.188 396.69L357.418 396.717ZM93.5951 427.397C93.567 426.591 93.6796 425.824 93.933 425.096C94.1864 424.368 94.5531 423.732 95.033 423.187C95.5271 422.626 96.1206 422.18 96.8134 421.848C97.5062 421.515 98.2777 421.334 99.1279 421.304C100.213 421.267 101.167 421.483 101.99 421.953C102.813 422.409 103.445 423.047 103.884 423.868L102.449 424.38C102.106 423.805 101.636 423.367 101.038 423.065C100.455 422.748 99.8115 422.601 99.108 422.626C98.5217 422.646 97.9761 422.783 97.4713 423.035C96.9811 423.287 96.5526 423.625 96.1858 424.049C95.8332 424.457 95.5567 424.944 95.3563 425.509C95.1705 426.073 95.0892 426.685 95.1122 427.344C95.1347 427.989 95.2659 428.594 95.5057 429.158C95.7456 429.722 96.0634 430.209 96.4594 430.621C96.8548 431.018 97.3061 431.333 97.8131 431.565C98.3343 431.781 98.8808 431.88 99.4524 431.86C99.8189 431.847 100.176 431.783 100.524 431.668C100.887 431.553 101.22 431.402 101.521 431.215C101.822 431.014 102.079 430.792 102.29 430.55C102.502 430.308 102.647 430.053 102.726 429.786L104.215 430.174C104.068 430.59 103.846 430.98 103.551 431.342C103.255 431.69 102.899 432.003 102.483 432.282C102.081 432.546 101.626 432.752 101.118 432.902C100.625 433.066 100.107 433.158 99.5645 433.176C98.729 433.206 97.9541 433.079 97.2397 432.795C96.5249 432.497 95.9015 432.086 95.3696 431.562C94.8371 431.023 94.4117 430.399 94.0935 429.691C93.7899 428.983 93.6238 428.218 93.5951 427.397ZM113.888 432.456L112.393 432.508L112.227 427.737C111.851 427.897 111.459 428.021 111.051 428.108C110.657 428.181 110.123 428.229 109.449 428.252C108.76 428.277 108.177 428.194 107.701 428.005C107.24 427.816 106.856 427.551 106.551 427.209C106.245 426.867 106.018 426.457 105.869 425.978C105.735 425.484 105.657 424.951 105.637 424.379L105.529 421.279L107.002 421.228L107.101 424.064C107.139 425.149 107.379 425.911 107.819 426.35C108.26 426.775 108.876 426.974 109.667 426.946C110.283 426.925 110.801 426.848 111.222 426.716C111.643 426.569 111.96 426.404 112.174 426.22L111.993 421.053L113.488 421.001L113.888 432.456ZM118.64 430.177L125.151 420.594L126.361 420.552L126.761 432.007L125.288 432.058L124.967 422.89L118.582 432.292L117.241 432.339L116.841 420.884L118.314 420.833L118.64 430.177ZM134.389 431.74L132.938 431.791L132.583 421.633L128.559 421.774L128.514 420.476L138.012 420.145L138.058 421.442L134.034 421.582L134.389 431.74ZM143.188 431.653C142.646 431.672 142.137 431.602 141.662 431.442C141.201 431.268 140.789 431.025 140.426 430.715C140.077 430.404 139.8 430.04 139.595 429.621C139.389 429.188 139.277 428.722 139.26 428.224C139.243 427.726 139.344 427.26 139.563 426.827C139.783 426.393 140.1 426.015 140.514 425.693C140.929 425.37 141.426 425.118 142.007 424.936C142.587 424.74 143.229 424.629 143.933 424.605C144.519 424.584 145.114 424.615 145.719 424.697C146.323 424.778 146.864 424.906 147.339 425.08L147.303 424.047C147.268 423.035 146.954 422.247 146.362 421.68C145.769 421.099 144.967 420.826 143.956 420.862C143.37 420.882 142.773 421.02 142.165 421.276C141.558 421.532 140.947 421.891 140.332 422.353L139.77 421.382C141.215 420.334 142.634 419.785 144.027 419.737C145.463 419.686 146.606 420.05 147.455 420.828C148.304 421.605 148.753 422.705 148.803 424.127L148.983 429.293C148.998 429.704 149.188 429.903 149.554 429.89L149.601 431.209C149.353 431.262 149.163 431.29 149.031 431.295C148.65 431.308 148.346 431.223 148.12 431.041C147.908 430.857 147.789 430.597 147.762 430.261L147.687 429.361C147.183 430.068 146.535 430.619 145.741 431.014C144.963 431.408 144.112 431.621 143.188 431.653ZM143.5 430.497C144.277 430.47 144.983 430.299 145.617 429.983C146.267 429.667 146.751 429.261 147.072 428.766C147.199 428.629 147.289 428.487 147.343 428.338C147.411 428.174 147.442 428.026 147.438 427.894L147.372 426.026C146.867 425.852 146.342 425.724 145.796 425.64C145.265 425.556 144.72 425.524 144.163 425.543C143.108 425.58 142.258 425.83 141.614 426.293C140.97 426.756 140.66 427.346 140.685 428.064C140.698 428.416 140.775 428.744 140.918 429.047C141.075 429.349 141.275 429.614 141.518 429.84C141.775 430.051 142.074 430.217 142.416 430.337C142.757 430.457 143.119 430.511 143.5 430.497ZM159.756 415.093C159.751 415.783 159.483 416.32 158.954 416.706C158.438 417.076 157.712 417.277 156.774 417.31C155.821 417.343 155.074 417.193 154.535 416.86C153.994 416.512 153.69 415.994 153.622 415.307L154.567 415.274C154.614 415.771 154.817 416.116 155.176 416.309C155.534 416.488 156.058 416.565 156.747 416.541C157.436 416.517 157.945 416.403 158.276 416.201C158.621 415.998 158.807 415.64 158.833 415.125L159.756 415.093ZM153.724 428.952L160.236 419.369L161.445 419.326L161.845 430.781L160.372 430.833L160.052 421.664L153.666 431.067L152.325 431.114L151.925 419.659L153.398 419.607L153.724 428.952ZM179.804 430.154L178.353 430.205L177.999 420.047L171.908 420.26L172.263 430.418L170.79 430.469L170.39 419.014L179.404 418.699L179.804 430.154ZM189.035 430.052C188.068 430.086 187.202 429.874 186.437 429.416C185.687 428.944 185.072 428.341 184.591 427.61L184.837 434.667L183.342 434.72L182.779 418.581L184.12 418.535L184.198 420.755C184.642 420.021 185.23 419.42 185.962 418.955C186.693 418.474 187.499 418.218 188.379 418.188C189.17 418.16 189.901 418.303 190.573 418.617C191.244 418.917 191.831 419.337 192.334 419.877C192.837 420.402 193.232 421.019 193.521 421.728C193.825 422.437 193.99 423.172 194.017 423.934C194.045 424.741 193.947 425.507 193.723 426.234C193.498 426.961 193.161 427.604 192.711 428.163C192.276 428.721 191.741 429.172 191.108 429.517C190.488 429.847 189.797 430.025 189.035 430.052ZM188.571 428.747C189.187 428.726 189.739 428.575 190.228 428.293C190.732 428.012 191.153 427.652 191.489 427.215C191.841 426.762 192.102 426.261 192.273 425.712C192.445 425.149 192.52 424.574 192.499 423.987C192.478 423.372 192.348 422.789 192.108 422.24C191.869 421.691 191.551 421.21 191.155 420.798C190.759 420.387 190.293 420.065 189.757 419.835C189.235 419.603 188.674 419.498 188.073 419.519C187.692 419.533 187.291 419.627 186.872 419.803C186.467 419.964 186.085 420.183 185.728 420.46C185.385 420.721 185.088 421.032 184.836 421.393C184.599 421.739 184.457 422.104 184.412 422.487L184.535 426.005C184.725 426.409 184.958 426.782 185.235 427.125C185.525 427.467 185.844 427.764 186.19 428.016C186.551 428.253 186.931 428.438 187.332 428.571C187.733 428.703 188.146 428.762 188.571 428.747ZM198.191 427.399L204.703 417.816L205.912 417.774L206.312 429.229L204.839 429.28L204.519 420.112L198.133 429.514L196.792 429.561L196.392 418.106L197.865 418.055L198.191 427.399ZM214.764 414.735C213.484 415.073 212.479 415.695 211.747 416.601C211.03 417.492 210.604 418.74 210.469 420.344C210.899 419.625 211.444 419.063 212.105 418.658C212.766 418.253 213.536 418.036 214.416 418.005C215.163 417.979 215.85 418.094 216.475 418.351C217.1 418.608 217.642 418.978 218.099 419.461C218.57 419.929 218.935 420.503 219.194 421.184C219.467 421.864 219.618 422.615 219.646 423.436C219.675 424.257 219.577 425.016 219.352 425.713C219.126 426.396 218.787 426.988 218.335 427.488C217.883 427.988 217.325 428.389 216.66 428.691C216.01 428.978 215.267 429.136 214.431 429.165C212.746 429.224 211.442 428.675 210.521 427.519C209.6 426.362 209.102 424.692 209.026 422.508C208.979 421.174 209.07 419.997 209.298 418.976C209.542 417.955 209.9 417.077 210.373 416.341C210.861 415.59 211.463 414.982 212.181 414.517C212.898 414.037 213.714 413.671 214.63 413.419L218.032 412.507L218.362 413.751L214.764 414.735ZM210.608 423.685C210.629 424.301 210.737 424.877 210.932 425.413C211.126 425.935 211.392 426.388 211.728 426.772C212.078 427.141 212.485 427.428 212.947 427.632C213.424 427.836 213.948 427.927 214.519 427.907C215.091 427.887 215.6 427.767 216.048 427.546C216.509 427.31 216.894 426.995 217.203 426.603C217.527 426.21 217.768 425.754 217.926 425.235C218.084 424.701 218.152 424.126 218.13 423.511C218.085 422.206 217.704 421.185 216.988 420.447C216.273 419.709 215.329 419.36 214.156 419.401C213.614 419.42 213.119 419.532 212.671 419.739C212.223 419.945 211.845 420.237 211.535 420.615C211.225 420.978 210.983 421.419 210.811 421.939C210.653 422.458 210.585 423.04 210.608 423.685ZM222.05 417.21L223.523 417.159L223.665 421.226L226.149 421.139C226.677 421.121 227.178 421.184 227.653 421.329C228.128 421.474 228.546 421.694 228.909 421.99C229.271 422.285 229.563 422.664 229.785 423.126C230.006 423.573 230.127 424.097 230.148 424.698C230.169 425.299 230.085 425.838 229.896 426.314C229.707 426.775 229.442 427.166 229.101 427.486C228.76 427.806 228.357 428.055 227.894 428.233C227.431 428.41 226.935 428.508 226.407 428.527L222.45 428.665L222.05 417.21ZM231.306 416.887L232.757 416.836L233.157 428.291L231.706 428.342L231.306 416.887ZM226.363 427.252C227.125 427.225 227.704 426.992 228.1 426.553C228.509 426.098 228.701 425.497 228.675 424.749C228.649 424.002 228.416 423.423 227.976 423.013C227.536 422.588 226.942 422.388 226.194 422.415L223.71 422.501L223.878 427.338L226.363 427.252ZM234.909 426.975C235.319 426.932 235.674 426.809 235.975 426.608C236.276 426.392 236.527 426.023 236.729 425.503C236.945 424.967 237.118 424.242 237.247 423.327C237.392 422.412 237.519 421.227 237.629 419.77L237.851 416.658L244.579 416.423L244.979 427.878L243.506 427.93L243.147 417.662L239.278 417.797L239.059 420.358C238.922 421.889 238.753 423.157 238.553 424.162C238.353 425.153 238.102 425.954 237.801 426.566C237.513 427.163 237.154 427.594 236.723 427.858C236.292 428.108 235.783 428.258 235.198 428.308L234.909 426.975ZM247.923 416.307L249.396 416.255L249.538 420.323L252.022 420.236C252.55 420.217 253.051 420.281 253.526 420.426C254.001 420.57 254.419 420.791 254.782 421.086C255.144 421.382 255.436 421.76 255.658 422.222C255.879 422.669 256 423.194 256.021 423.794C256.042 424.395 255.958 424.934 255.769 425.41C255.58 425.872 255.315 426.263 254.974 426.583C254.633 426.903 254.23 427.152 253.767 427.329C253.304 427.507 252.808 427.605 252.28 427.623L248.323 427.762L247.923 416.307ZM252.236 426.348C252.998 426.322 253.577 426.089 253.972 425.649C254.382 425.195 254.574 424.593 254.548 423.846C254.522 423.098 254.289 422.519 253.849 422.109C253.408 421.684 252.814 421.485 252.067 421.511L249.582 421.598L249.751 426.435L252.236 426.348ZM265.461 425.05L271.972 415.467L273.181 415.424L273.581 426.88L272.108 426.931L271.788 417.763L265.402 427.165L264.061 427.212L263.661 415.757L265.134 415.705L265.461 425.05ZM291.562 426.252L290.111 426.302L289.757 416.144L283.666 416.357L284.021 426.515L282.548 426.566L282.148 415.111L291.162 414.797L291.562 426.252ZM299.804 426.184C298.968 426.213 298.201 426.086 297.501 425.802C296.801 425.504 296.185 425.092 295.653 424.568C295.135 424.043 294.725 423.426 294.421 422.718C294.118 422.009 293.952 421.259 293.925 420.468C293.896 419.661 294.009 418.894 294.262 418.166C294.531 417.438 294.904 416.794 295.384 416.234C295.878 415.674 296.464 415.22 297.141 414.874C297.819 414.527 298.568 414.34 299.389 414.311C300.21 414.283 300.97 414.417 301.671 414.716C302.385 415.014 303.001 415.425 303.519 415.95C304.051 416.474 304.468 417.091 304.772 417.799C305.09 418.507 305.263 419.265 305.292 420.071C305.319 420.862 305.206 421.622 304.953 422.35C304.7 423.078 304.326 423.722 303.832 424.282C303.352 424.842 302.766 425.295 302.074 425.642C301.396 425.974 300.639 426.155 299.804 426.184ZM295.442 420.437C295.465 421.082 295.596 421.679 295.835 422.228C296.074 422.763 296.384 423.236 296.765 423.648C297.161 424.046 297.612 424.353 298.118 424.57C298.639 424.786 299.186 424.885 299.758 424.865C300.329 424.845 300.86 424.709 301.35 424.457C301.855 424.19 302.29 423.844 302.657 423.421C303.023 422.982 303.307 422.481 303.507 421.916C303.707 421.351 303.796 420.747 303.774 420.102C303.752 419.471 303.621 418.882 303.382 418.332C303.142 417.768 302.824 417.288 302.429 416.891C302.033 416.479 301.574 416.165 301.053 415.948C300.546 415.716 300.007 415.61 299.435 415.63C298.863 415.65 298.333 415.794 297.843 416.06C297.353 416.312 296.925 416.657 296.558 417.096C296.192 417.534 295.909 418.043 295.709 418.622C295.509 419.187 295.42 419.792 295.442 420.437ZM306.151 424.487C306.56 424.444 306.916 424.321 307.217 424.12C307.517 423.904 307.769 423.536 307.971 423.015C308.187 422.479 308.36 421.754 308.489 420.84C308.633 419.925 308.761 418.739 308.871 417.282L309.093 414.17L315.821 413.935L316.221 425.391L314.748 425.442L314.389 415.174L310.519 415.309L310.301 417.871C310.163 419.402 309.995 420.67 309.795 421.674C309.595 422.665 309.344 423.466 309.042 424.078C308.755 424.675 308.396 425.106 307.965 425.371C307.533 425.621 307.025 425.77 306.44 425.82L306.151 424.487ZM319.648 428.309C319.875 428.506 320.1 428.638 320.323 428.703C320.545 428.769 320.781 428.797 321.03 428.789C321.221 428.782 321.402 428.717 321.574 428.594C321.761 428.484 321.937 428.287 322.103 428.003C322.285 427.732 322.463 427.367 322.637 426.905C322.812 426.444 323.004 425.858 323.214 425.146L317.823 413.866L319.362 413.812L323.957 423.733L327.541 413.526L328.97 413.476L324.094 427.009C323.894 427.588 323.683 428.072 323.462 428.462C323.256 428.85 323.032 429.166 322.791 429.41C322.564 429.652 322.314 429.823 322.038 429.92C321.778 430.032 321.487 430.094 321.164 430.105C320.504 430.128 319.993 429.97 319.629 429.63L319.648 428.309ZM338.693 424.606L337.198 424.658L337.031 419.887C336.655 420.047 336.263 420.171 335.855 420.258C335.461 420.331 334.928 420.379 334.253 420.402C333.564 420.426 332.982 420.344 332.506 420.155C332.044 419.966 331.661 419.7 331.355 419.359C331.05 419.017 330.822 418.607 330.674 418.128C330.539 417.633 330.462 417.1 330.442 416.529L330.333 413.429L331.807 413.377L331.906 416.214C331.944 417.298 332.183 418.06 332.624 418.5C333.064 418.925 333.68 419.123 334.472 419.096C335.087 419.074 335.606 418.997 336.027 418.865C336.447 418.719 336.764 418.553 336.978 418.37L336.798 413.203L338.293 413.151L338.693 424.606ZM344.911 424.609C344.369 424.628 343.86 424.557 343.385 424.398C342.924 424.223 342.511 423.981 342.148 423.671C341.8 423.36 341.523 422.995 341.318 422.577C341.112 422.144 341 421.678 340.983 421.18C340.965 420.681 341.067 420.216 341.286 419.782C341.506 419.349 341.823 418.971 342.237 418.648C342.652 418.326 343.149 418.074 343.73 417.892C344.31 417.696 344.952 417.585 345.655 417.56C346.242 417.54 346.837 417.571 347.442 417.652C348.046 417.734 348.586 417.862 349.062 418.036L349.026 417.003C348.991 415.991 348.677 415.202 348.085 414.636C347.492 414.055 346.69 413.782 345.679 413.817C345.092 413.838 344.496 413.976 343.888 414.232C343.281 414.488 342.669 414.847 342.055 415.309L341.492 414.338C342.938 413.289 344.357 412.741 345.749 412.692C347.186 412.642 348.329 413.006 349.178 413.783C350.027 414.561 350.476 415.66 350.526 417.082L350.706 422.249C350.72 422.659 350.911 422.858 351.277 422.846L351.323 424.165C351.076 424.217 350.886 424.246 350.754 424.251C350.373 424.264 350.069 424.179 349.842 423.996C349.631 423.813 349.511 423.553 349.485 423.216L349.41 422.316C348.906 423.024 348.257 423.575 347.464 423.969C346.685 424.363 345.834 424.577 344.911 424.609ZM345.223 423.453C346 423.426 346.705 423.255 347.34 422.939C347.989 422.623 348.474 422.217 348.794 421.721C348.922 421.585 349.012 421.442 349.066 421.294C349.133 421.13 349.165 420.982 349.16 420.85L349.095 418.981C348.59 418.808 348.065 418.68 347.519 418.596C346.987 418.512 346.443 418.48 345.886 418.499C344.831 418.536 343.981 418.786 343.337 419.248C342.693 419.711 342.383 420.302 342.408 421.02C342.42 421.372 342.498 421.699 342.641 422.002C342.798 422.305 342.998 422.57 343.241 422.796C343.497 423.007 343.797 423.173 344.138 423.293C344.48 423.413 344.842 423.466 345.223 423.453ZM361.479 408.048C361.474 408.738 361.206 409.276 360.677 409.661C360.161 410.032 359.434 410.233 358.496 410.266C357.544 410.299 356.797 410.149 356.257 409.816C355.717 409.468 355.413 408.95 355.345 408.263L356.29 408.23C356.337 408.727 356.539 409.072 356.898 409.265C357.257 409.443 357.781 409.52 358.469 409.496C359.158 409.472 359.668 409.359 359.999 409.157C360.344 408.954 360.529 408.595 360.555 408.081L361.479 408.048ZM355.447 421.907L361.958 412.324L363.168 412.282L363.568 423.737L362.094 423.789L361.774 414.62L355.389 424.023L354.047 424.07L353.647 412.615L355.12 412.563L355.447 421.907ZM104.636 461.797L103.185 461.848L102.831 451.69L96.7403 451.902L97.095 462.06L95.6219 462.112L95.2219 450.657L104.236 450.342L104.636 461.797ZM112.878 461.729C112.042 461.758 111.274 461.631 110.575 461.347C109.875 461.049 109.259 460.638 108.727 460.113C108.209 459.588 107.799 458.971 107.495 458.263C107.192 457.554 107.026 456.804 106.998 456.013C106.97 455.207 107.083 454.44 107.336 453.712C107.604 452.983 107.978 452.339 108.458 451.779C108.952 451.219 109.538 450.766 110.215 450.419C110.893 450.073 111.642 449.885 112.463 449.856C113.284 449.828 114.044 449.963 114.744 450.261C115.459 450.559 116.075 450.97 116.593 451.495C117.125 452.02 117.542 452.636 117.846 453.345C118.164 454.053 118.337 454.81 118.366 455.616C118.393 456.407 118.28 457.167 118.027 457.895C117.773 458.623 117.4 459.267 116.906 459.827C116.426 460.387 115.84 460.841 115.148 461.188C114.47 461.52 113.713 461.7 112.878 461.729ZM108.516 455.982C108.539 456.627 108.67 457.224 108.909 457.773C109.148 458.308 109.458 458.781 109.839 459.194C110.235 459.591 110.686 459.898 111.192 460.115C111.713 460.332 112.26 460.43 112.831 460.41C113.403 460.39 113.934 460.254 114.424 460.002C114.929 459.735 115.364 459.39 115.731 458.966C116.097 458.528 116.38 458.026 116.581 457.461C116.781 456.897 116.87 456.292 116.848 455.647C116.826 455.017 116.695 454.427 116.456 453.878C116.216 453.314 115.898 452.833 115.503 452.436C115.107 452.024 114.648 451.71 114.127 451.493C113.62 451.262 113.081 451.156 112.509 451.176C111.937 451.196 111.407 451.339 110.917 451.605C110.427 451.857 109.999 452.203 109.632 452.641C109.266 453.079 108.983 453.588 108.783 454.168C108.583 454.732 108.494 455.337 108.516 455.982ZM126.337 449.57C126.748 449.556 127.124 449.616 127.466 449.751C127.823 449.885 128.131 450.08 128.389 450.335C128.662 450.575 128.87 450.861 129.014 451.194C129.172 451.526 129.258 451.89 129.272 452.285C129.281 452.549 129.254 452.814 129.19 453.081C129.14 453.347 129.054 453.606 128.931 453.86C128.807 454.099 128.646 454.325 128.448 454.537C128.249 454.735 128.013 454.898 127.739 455.024C128.39 455.178 128.907 455.497 129.291 455.983C129.675 456.468 129.879 457.063 129.904 457.767C129.92 458.236 129.847 458.664 129.684 459.051C129.536 459.438 129.313 459.776 129.015 460.065C128.732 460.354 128.388 460.586 127.983 460.761C127.578 460.922 127.133 461.011 126.649 461.028L121.131 461.221L120.731 449.766L126.337 449.57ZM125.92 454.648C126.521 454.627 126.991 454.42 127.329 454.026C127.668 453.633 127.827 453.143 127.806 452.557C127.789 452.044 127.626 451.602 127.32 451.231C127.013 450.86 126.552 450.685 125.937 450.707L122.221 450.837L122.358 454.772L125.92 454.648ZM126.456 459.912C126.764 459.901 127.041 459.833 127.286 459.707C127.545 459.581 127.76 459.419 127.929 459.222C128.098 459.011 128.229 458.779 128.323 458.526C128.417 458.273 128.459 458.008 128.449 457.729C128.431 457.202 128.231 456.739 127.851 456.341C127.484 455.943 126.986 455.755 126.356 455.777L122.398 455.915L122.543 460.049L126.456 459.912ZM132.195 449.366L133.669 449.314L133.811 453.382L136.295 453.295C136.823 453.276 137.324 453.34 137.799 453.484C138.273 453.629 138.692 453.85 139.054 454.145C139.417 454.441 139.709 454.819 139.931 455.281C140.152 455.728 140.273 456.252 140.294 456.853C140.315 457.454 140.231 457.993 140.042 458.469C139.853 458.931 139.587 459.322 139.246 459.642C138.905 459.962 138.503 460.211 138.04 460.388C137.576 460.566 137.081 460.664 136.553 460.682L132.595 460.821L132.195 449.366ZM141.452 449.042L142.903 448.992L143.303 460.447L141.852 460.497L141.452 449.042ZM136.508 459.407C137.271 459.38 137.85 459.147 138.245 458.708C138.655 458.253 138.847 457.652 138.821 456.905C138.794 456.157 138.561 455.578 138.122 455.168C137.681 454.743 137.087 454.544 136.34 454.57L133.855 454.657L134.024 459.494L136.508 459.407ZM146.638 460.33L146.238 448.875L147.711 448.824L148.065 458.982L152.375 458.831L152.02 448.673L153.493 448.622L153.848 458.78L158.157 458.629L157.803 448.471L159.276 448.42L159.676 459.875L146.638 460.33ZM167.953 459.806C167.117 459.835 166.343 459.708 165.628 459.425C164.928 459.126 164.312 458.715 163.78 458.191C163.248 457.652 162.822 457.028 162.504 456.32C162.2 455.611 162.034 454.847 162.006 454.026C161.977 453.22 162.09 452.46 162.344 451.747C162.612 451.018 162.986 450.382 163.466 449.836C163.96 449.276 164.554 448.83 165.247 448.498C165.939 448.15 166.696 447.963 167.516 447.934C168.352 447.905 169.12 448.039 169.82 448.338C170.534 448.621 171.15 449.025 171.667 449.55C172.185 450.075 172.595 450.684 172.898 451.378C173.201 452.072 173.366 452.815 173.394 453.606C173.398 453.724 173.402 453.841 173.406 453.958C173.41 454.075 173.406 454.156 173.393 454.201L163.587 454.543C163.652 455.157 163.811 455.724 164.064 456.243C164.331 456.748 164.662 457.184 165.056 457.552C165.451 457.919 165.894 458.205 166.385 458.408C166.891 458.596 167.422 458.68 167.979 458.66C168.345 458.648 168.71 458.583 169.073 458.468C169.436 458.353 169.768 458.202 170.07 458.015C170.371 457.828 170.642 457.606 170.883 457.348C171.123 457.076 171.303 456.783 171.425 456.471L172.734 456.777C172.573 457.208 172.337 457.606 172.027 457.969C171.717 458.317 171.353 458.631 170.937 458.909C170.521 459.173 170.059 459.38 169.55 459.53C169.042 459.695 168.51 459.786 167.953 459.806ZM171.946 453.107C171.88 452.492 171.714 451.941 171.447 451.451C171.195 450.946 170.872 450.517 170.478 450.164C170.099 449.81 169.656 449.54 169.151 449.352C168.66 449.163 168.136 449.079 167.579 449.098C167.022 449.118 166.498 449.239 166.007 449.462C165.516 449.684 165.086 449.985 164.717 450.365C164.364 450.744 164.079 451.195 163.862 451.716C163.66 452.236 163.548 452.798 163.525 453.401L171.946 453.107ZM177.17 452.748L183.59 452.524L183.418 447.577L184.891 447.525L185.291 458.98L183.818 459.032L183.634 453.777L177.214 454.001L177.398 459.256L175.924 459.307L175.524 447.852L176.998 447.801L177.17 452.748ZM189.881 452.304L196.301 452.08L196.129 447.133L197.602 447.081L198.002 458.536L196.529 458.588L196.345 453.333L189.925 453.557L190.109 458.812L188.636 458.864L188.235 447.409L189.709 447.357L189.881 452.304ZM200.946 446.965L202.42 446.913L202.562 450.981L205.046 450.894C205.574 450.876 206.075 450.939 206.55 451.084C207.024 451.228 207.443 451.449 207.805 451.744C208.168 452.04 208.46 452.418 208.682 452.88C208.903 453.328 209.024 453.852 209.045 454.453C209.066 455.054 208.982 455.592 208.793 456.068C208.604 456.53 208.338 456.921 207.997 457.241C207.656 457.561 207.254 457.81 206.791 457.987C206.327 458.165 205.832 458.263 205.304 458.281L201.347 458.42L200.946 446.965ZM210.203 446.641L211.654 446.591L212.054 458.046L210.603 458.096L210.203 446.641ZM205.26 457.006C206.022 456.98 206.601 456.747 206.996 456.307C207.406 455.853 207.598 455.252 207.572 454.504C207.546 453.757 207.313 453.178 206.873 452.767C206.432 452.342 205.838 452.143 205.091 452.169L202.606 452.256L202.775 457.093L205.26 457.006ZM222.82 441.908C222.815 442.598 222.547 443.136 222.018 443.521C221.503 443.891 220.776 444.093 219.838 444.126C218.885 444.159 218.139 444.009 217.599 443.676C217.058 443.327 216.754 442.81 216.686 442.122L217.631 442.089C217.678 442.587 217.881 442.932 218.24 443.125C218.598 443.303 219.122 443.38 219.811 443.356C220.5 443.332 221.009 443.219 221.34 443.017C221.685 442.814 221.871 442.455 221.897 441.94L222.82 441.908ZM216.788 455.767L223.3 446.184L224.509 446.142L224.909 457.597L223.436 457.648L223.116 448.48L216.73 457.882L215.389 457.929L214.989 446.474L216.462 446.423L216.788 455.767ZM239.71 457.3C238.743 457.334 237.877 457.122 237.112 456.664C236.362 456.192 235.747 455.589 235.266 454.858L235.513 461.915L234.018 461.968L233.454 445.829L234.795 445.783L234.873 448.003C235.317 447.269 235.905 446.668 236.637 446.203C237.369 445.722 238.174 445.467 239.054 445.436C239.845 445.408 240.577 445.551 241.248 445.865C241.919 446.165 242.506 446.585 243.009 447.125C243.512 447.65 243.907 448.267 244.196 448.976C244.5 449.685 244.665 450.42 244.692 451.183C244.72 451.989 244.622 452.755 244.398 453.482C244.174 454.209 243.837 454.852 243.386 455.411C242.951 455.969 242.416 456.42 241.783 456.765C241.163 457.095 240.472 457.274 239.71 457.3ZM239.246 455.996C239.862 455.974 240.414 455.823 240.903 455.541C241.407 455.26 241.828 454.9 242.165 454.463C242.516 454.01 242.777 453.509 242.949 452.96C243.12 452.397 243.195 451.822 243.175 451.236C243.153 450.62 243.023 450.037 242.783 449.488C242.544 448.939 242.226 448.458 241.83 448.046C241.435 447.635 240.968 447.313 240.432 447.083C239.91 446.851 239.349 446.746 238.748 446.767C238.367 446.781 237.967 446.875 237.547 447.051C237.142 447.212 236.761 447.431 236.403 447.708C236.06 447.969 235.763 448.28 235.511 448.641C235.274 448.987 235.133 449.352 235.087 449.735L235.21 453.253C235.4 453.657 235.634 454.03 235.91 454.373C236.2 454.715 236.519 455.012 236.865 455.264C237.226 455.501 237.607 455.686 238.007 455.819C238.408 455.951 238.821 456.01 239.246 455.996ZM252.4 456.857C251.564 456.886 250.789 456.759 250.075 456.476C249.375 456.177 248.759 455.766 248.227 455.242C247.694 454.703 247.269 454.079 246.951 453.371C246.647 452.663 246.481 451.898 246.452 451.077C246.424 450.271 246.537 449.511 246.791 448.798C247.059 448.069 247.433 447.433 247.913 446.888C248.407 446.327 249 445.881 249.693 445.549C250.386 445.202 251.142 445.014 251.963 444.985C252.798 444.956 253.566 445.09 254.266 445.389C254.981 445.672 255.597 446.076 256.114 446.601C256.631 447.126 257.041 447.735 257.344 448.429C257.647 449.123 257.813 449.866 257.84 450.657C257.845 450.775 257.849 450.892 257.853 451.009C257.857 451.126 257.852 451.207 257.839 451.252L248.033 451.594C248.099 452.208 248.258 452.775 248.511 453.295C248.778 453.799 249.109 454.235 249.503 454.603C249.897 454.971 250.34 455.256 250.832 455.459C251.337 455.647 251.869 455.731 252.426 455.711C252.792 455.699 253.157 455.635 253.519 455.519C253.882 455.404 254.215 455.253 254.516 455.066C254.818 454.879 255.089 454.657 255.33 454.399C255.569 454.127 255.75 453.834 255.871 453.522L257.181 453.828C257.02 454.26 256.784 454.657 256.474 455.02C256.163 455.368 255.8 455.682 255.384 455.96C254.968 456.224 254.505 456.431 253.997 456.581C253.489 456.746 252.957 456.838 252.4 456.857ZM256.392 450.158C256.327 449.543 256.161 448.992 255.894 448.502C255.642 447.997 255.318 447.568 254.925 447.215C254.545 446.861 254.103 446.591 253.597 446.403C253.107 446.215 252.583 446.13 252.026 446.15C251.469 446.169 250.945 446.29 250.453 446.513C249.962 446.735 249.532 447.036 249.164 447.416C248.81 447.795 248.525 448.246 248.309 448.767C248.107 449.288 247.994 449.849 247.971 450.452L256.392 450.158ZM259.182 446.142C259.576 445.658 260.04 445.29 260.574 445.037C261.123 444.783 261.72 444.644 262.365 444.622C263.376 444.586 264.184 444.808 264.787 445.286C265.391 445.764 265.708 446.42 265.737 447.256C265.76 447.93 265.597 448.501 265.246 448.968C264.91 449.435 264.436 449.73 263.824 449.854C264.649 449.943 265.306 450.257 265.794 450.798C266.282 451.324 266.541 451.997 266.569 452.818C266.588 453.346 266.509 453.833 266.334 454.279C266.159 454.711 265.9 455.087 265.559 455.407C265.218 455.727 264.801 455.984 264.309 456.177C263.817 456.37 263.27 456.477 262.669 456.498C261.878 456.526 261.199 456.41 260.632 456.151C260.065 455.878 259.559 455.477 259.115 454.949L259.915 453.887C260.268 454.344 260.662 454.683 261.095 454.902C261.542 455.107 262.074 455.198 262.689 455.177C263.496 455.149 264.104 454.929 264.516 454.519C264.941 454.093 265.142 453.536 265.118 452.847C265.091 452.085 264.807 451.507 264.265 451.115C263.723 450.723 262.961 450.545 261.978 450.579L261.209 450.606L261.168 449.44L261.938 449.414C262.715 449.386 263.317 449.204 263.746 448.866C264.174 448.514 264.377 448.03 264.355 447.414C264.338 446.901 264.148 446.504 263.786 446.223C263.424 445.942 262.935 445.813 262.319 445.834C261.879 445.849 261.464 445.945 261.074 446.12C260.699 446.294 260.327 446.579 259.959 446.973L259.182 446.142ZM269.001 459.095C269.228 459.293 269.452 459.424 269.675 459.49C269.897 459.555 270.133 459.584 270.382 459.575C270.573 459.568 270.754 459.503 270.926 459.38C271.113 459.271 271.289 459.074 271.455 458.789C271.637 458.519 271.815 458.153 271.989 457.692C272.164 457.231 272.356 456.644 272.566 455.933L267.175 444.652L268.715 444.598L273.31 454.52L276.894 444.313L278.323 444.263L273.446 457.795C273.246 458.374 273.035 458.859 272.814 459.248C272.608 459.637 272.384 459.953 272.143 460.196C271.917 460.439 271.666 460.609 271.39 460.707C271.13 460.818 270.839 460.88 270.516 460.891C269.857 460.914 269.345 460.756 268.981 460.417L269.001 459.095ZM278.413 454.474C278.822 454.43 279.178 454.308 279.479 454.106C279.779 453.89 280.031 453.522 280.233 453.001C280.449 452.465 280.622 451.74 280.751 450.826C280.895 449.911 281.023 448.725 281.133 447.268L281.355 444.157L288.083 443.922L288.483 455.377L287.01 455.428L286.651 445.161L282.781 445.296L282.563 447.857C282.425 449.388 282.257 450.656 282.057 451.661C281.857 452.651 281.606 453.452 281.304 454.065C281.017 454.662 280.658 455.092 280.227 455.357C279.795 455.607 279.287 455.757 278.702 455.806L278.413 454.474ZM291.426 443.805L292.9 443.754L293.042 447.821L295.526 447.734C296.054 447.716 296.555 447.779 297.03 447.924C297.504 448.069 297.923 448.289 298.285 448.585C298.648 448.88 298.94 449.259 299.162 449.721C299.383 450.168 299.504 450.692 299.525 451.293C299.546 451.894 299.462 452.433 299.273 452.909C299.084 453.37 298.818 453.761 298.477 454.081C298.136 454.401 297.734 454.65 297.271 454.828C296.807 455.005 296.312 455.103 295.784 455.122L291.827 455.26L291.426 443.805ZM295.74 453.847C296.502 453.82 297.081 453.587 297.476 453.148C297.886 452.693 298.078 452.092 298.052 451.344C298.026 450.597 297.793 450.018 297.353 449.608C296.912 449.183 296.318 448.983 295.571 449.01L293.086 449.096L293.255 453.933L295.74 453.847ZM304.938 454.802L303.487 454.853L303.132 444.695L299.109 444.836L299.063 443.538L308.562 443.207L308.607 444.504L304.583 444.644L304.938 454.802ZM313.737 454.715C313.195 454.734 312.686 454.664 312.211 454.504C311.75 454.329 311.338 454.087 310.975 453.777C310.627 453.466 310.35 453.102 310.144 452.683C309.938 452.25 309.827 451.784 309.809 451.286C309.792 450.788 309.893 450.322 310.113 449.889C310.333 449.455 310.65 449.077 311.064 448.755C311.478 448.432 311.976 448.18 312.556 447.998C313.137 447.802 313.778 447.691 314.482 447.667C315.068 447.646 315.664 447.677 316.268 447.758C316.873 447.84 317.413 447.968 317.889 448.142L317.853 447.109C317.817 446.097 317.503 445.309 316.911 444.742C316.319 444.161 315.517 443.888 314.505 443.924C313.919 443.944 313.322 444.082 312.715 444.338C312.107 444.594 311.496 444.953 310.881 445.415L310.319 444.444C311.765 443.396 313.184 442.847 314.576 442.799C316.013 442.748 317.155 443.112 318.004 443.89C318.853 444.667 319.303 445.767 319.352 447.189L319.533 452.355C319.547 452.766 319.737 452.965 320.104 452.952L320.15 454.271C319.902 454.324 319.712 454.352 319.581 454.357C319.199 454.37 318.896 454.285 318.669 454.103C318.457 453.919 318.338 453.659 318.312 453.323L318.236 452.423C317.733 453.13 317.084 453.681 316.291 454.076C315.512 454.47 314.661 454.683 313.737 454.715ZM314.049 453.559C314.826 453.532 315.532 453.361 316.167 453.045C316.816 452.729 317.301 452.323 317.621 451.828C317.748 451.691 317.839 451.549 317.892 451.4C317.96 451.236 317.992 451.088 317.987 450.956L317.922 449.088C317.417 448.914 316.891 448.786 316.345 448.702C315.814 448.618 315.27 448.586 314.713 448.605C313.657 448.642 312.808 448.892 312.163 449.355C311.519 449.817 311.21 450.408 311.235 451.126C311.247 451.478 311.324 451.805 311.467 452.109C311.624 452.411 311.824 452.676 312.067 452.902C312.324 453.113 312.623 453.279 312.965 453.399C313.307 453.519 313.668 453.573 314.049 453.559ZM326.817 454.038L325.366 454.089L325.011 443.931L320.988 444.072L320.943 442.774L330.441 442.443L330.486 443.74L326.463 443.88L326.817 454.038Z" fill="#C1C5CF"/>
<circle cx="112.766" cy="105.894" r="5.29695" stroke="#DBDBDB" stroke-width="1.90147"/>
<circle cx="459.248" cy="391.248" r="5.29695" stroke="#DBDBDB" stroke-width="1.90147"/>
<path d="M447.88 525.268L420 536.621L443.495 546.001L447.88 525.268Z" fill="#CB11AB"/>
<path d="M423.794 523.868L433.322 500L446.6 507.895L423.794 523.868Z" fill="#EDEDED"/>
<path d="M16.2114 151.616L16.2114 160.42" stroke="white" stroke-width="1.13594" stroke-linecap="round"/>
<path d="M16.2114 167.235L16.2114 175.187" stroke="white" stroke-width="1.13594" stroke-linecap="round"/>
<path d="M12.8035 163.827L3.99991 163.827" stroke="white" stroke-width="1.13594" stroke-linecap="round"/>
<path d="M28.1387 163.827H19.6191" stroke="white" stroke-width="1.13594" stroke-linecap="round"/>
<path d="M57.2114 573L57.2114 581.804" stroke="white" stroke-width="1.13594" stroke-linecap="round"/>
<path d="M57.2114 588.619L57.2114 596.571" stroke="white" stroke-width="1.13594" stroke-linecap="round"/>
<path d="M53.8035 585.212L44.9999 585.212" stroke="white" stroke-width="1.13594" stroke-linecap="round"/>
<path d="M69.1387 585.212H60.6191" stroke="white" stroke-width="1.13594" stroke-linecap="round"/>
<path d="M566.151 58.6338L566.151 63.6891" stroke="white" stroke-width="0.652294" stroke-linecap="round"/>
<path d="M566.151 67.6028L566.151 72.1688" stroke="white" stroke-width="0.652294" stroke-linecap="round"/>
<path d="M564.194 65.646L559.139 65.646" stroke="white" stroke-width="0.652294" stroke-linecap="round"/>
<path d="M573 65.646H568.108" stroke="white" stroke-width="0.652294" stroke-linecap="round"/>
<path d="M447.232 225.321C448.473 217.015 451.969 209.563 457.718 202.966C463.7 196.197 469.86 191.008 476.199 187.399C482.568 183.587 488.49 179.294 493.967 174.52C499.677 169.574 502.91 164.569 503.667 159.504C505.12 149.78 499.87 144.025 487.918 142.239C475.56 140.392 464.64 146.942 455.158 161.886L412.919 128.547C422.056 113.136 434.148 102.206 449.196 95.7555C464.446 89.3357 480.681 87.4123 497.901 89.9855C517.349 92.8917 533.043 100.829 544.981 113.797C556.95 126.562 561.542 142.264 558.757 160.902C557.486 169.411 554.583 177.054 550.049 183.833C545.748 190.439 540.905 195.825 535.519 199.991C530.133 204.157 524.792 208.018 519.497 211.577C514.232 214.932 509.575 218.378 505.525 221.915C501.678 225.483 499.467 229.191 498.892 233.04L447.232 225.321ZM484.393 305.123C477.407 310.292 469.558 312.226 460.847 310.925C452.136 309.623 445.094 305.464 439.722 298.448C434.553 291.462 432.634 283.512 433.966 274.598C435.268 265.887 439.412 258.947 446.397 253.777C453.616 248.436 461.581 246.416 470.292 247.717C479.003 249.019 485.929 253.264 491.068 260.452C496.44 267.469 498.475 275.332 497.173 284.043C495.841 292.957 491.581 299.984 484.393 305.123Z" fill="#BD39C9" fill-opacity="0.15"/>
<path d="M471.104 100.785L430.421 125.625L469.527 134.303L471.104 100.785Z" fill="#BD39C9"/>
<path d="M433.104 104.727L441.921 65L464.682 73.9591L433.104 104.727Z" fill="#EDEDED"/>
<defs>
<filter id="filter0_d_579_2289" x="0.756836" y="181.958" width="487.378" height="159.461" filterUnits="userSpaceOnUse" color-interpolation-filters="sRGB">
<feFlood flood-opacity="0" result="BackgroundImageFix"/>
<feColorMatrix in="SourceAlpha" type="matrix" values="0 0 0 0 0 0 0 0 0 0 0 0 0 0 0 0 0 0 127 0" result="hardAlpha"/>
<feOffset dy="4"/>
<feGaussianBlur stdDeviation="10"/>
<feComposite in2="hardAlpha" operator="out"/>
<feColorMatrix type="matrix" values="0 0 0 0 0 0 0 0 0 0 0 0 0 0 0 0 0 0 0.25 0"/>
<feBlend mode="normal" in2="BackgroundImageFix" result="effect1_dropShadow_579_2289"/>
<feBlend mode="normal" in="SourceGraphic" in2="effect1_dropShadow_579_2289" result="shape"/>
</filter>
</defs>
</svg>
