<svg width="670" height="670" viewBox="0 0 670 670" fill="none" xmlns="http://www.w3.org/2000/svg">
<g opacity="0.1" clip-path="url(#clip0_579_2219)">
<path d="M335.26 670C520.132 670 670 520.132 670 335.26C670 150.388 520.132 0.52002 335.26 0.52002C150.388 0.52002 0.52002 150.388 0.52002 335.26C0.52002 520.132 150.388 670 335.26 670Z" fill="#F4F7FA" fill-opacity="0.05"/>
<path d="M455.696 564.188C446.668 558.248 468.539 504.827 488.259 469.502C504.455 440.491 523.511 415.961 529.014 418.797C533.226 420.966 527.948 438.37 531.772 439.758C536.891 441.617 547.659 410.844 558.124 411.876C564.571 412.515 570.144 425.151 570.351 436.764C570.727 457.718 553.576 471.595 516.277 507.998C468.47 554.619 460.342 567.235 455.696 564.188Z" fill="url(#paint0_linear_579_2219)"/>
<g style="mix-blend-mode:soft-light" opacity="0.3">
<path d="M471.087 529.655C476.115 514.586 475.683 504.972 484.828 495.229C492.818 486.726 497.752 489.148 507.173 479.311C517.844 468.169 514.113 462.337 523.054 453.706C535.462 441.725 547.411 448.386 557.931 437.621C561.256 434.218 564.686 428.818 566.361 419.769C568.705 424.516 570.24 430.769 570.346 436.757C570.723 457.711 553.572 471.588 516.272 507.991C468.477 554.638 460.342 567.246 455.696 564.188C454.988 563.728 454.474 562.967 454.129 561.954C463.187 549.621 468.16 538.426 471.087 529.655Z" fill="white"/>
</g>
<path d="M438.423 591.514C457.709 548.415 479.555 517.601 495.968 497.531C532.87 452.364 550.832 450.939 558.714 451.542C569.215 452.343 582.702 458.339 584.774 468.399C588.655 487.221 550.871 511.946 554.996 519.053C557.131 522.73 567.57 516.663 571.784 521.479C577.547 528.063 566.371 548.946 563.363 553.981C540.124 592.89 463.217 592.401 438.423 591.514Z" fill="url(#paint1_linear_579_2219)"/>
<g style="mix-blend-mode:soft-light" opacity="0.5">
<path d="M475.609 558.569C492.91 547.478 498.078 548.587 507.368 538.325C524.497 519.402 518.223 503.133 534.097 491.005C545.414 482.358 551.995 488.036 567.876 478.895C573.884 475.395 579.311 470.981 583.961 465.811C584.319 466.643 584.592 467.508 584.777 468.394C588.658 487.216 550.874 511.941 554.999 519.048C557.133 522.725 567.573 516.659 571.787 521.475C577.55 528.058 566.373 548.941 563.365 553.976C540.127 592.89 463.219 592.401 438.425 591.514C438.777 590.728 439.131 589.954 439.485 589.177C453.306 574.22 466.069 564.686 475.609 558.569Z" fill="white"/>
</g>
<path d="M306.353 328.295C297.57 330.561 287.664 327.771 281.421 320.522L193.385 218.296C185.37 208.988 186.436 195.134 195.807 187.275C205.242 179.363 223.857 178.947 232.026 188.332L321.762 291.431C330.223 301.151 328.886 315.243 318.823 322.838C316.337 324.701 309.25 327.548 306.353 328.295Z" fill="url(#paint2_linear_579_2219)"/>
<path style="mix-blend-mode:multiply" opacity="0.3" d="M195.807 187.275C205.242 179.363 223.857 178.947 232.026 188.332L314.06 282.595C305.675 283.14 296.575 286.318 285.261 281.488C266.418 273.445 268.238 254.646 251.843 243.803C244.349 238.841 232.23 235.006 211.566 239.437L193.376 218.312C185.37 208.988 186.436 195.134 195.807 187.275Z" fill="url(#paint3_linear_579_2219)"/>
<path d="M158.45 173.502C158.873 173.365 159.303 173.257 159.74 173.178L190.094 162.869L216.026 242.072L186.48 251.301C185.79 251.741 185.047 252.093 184.269 252.348C173.83 255.768 159.586 240.889 152.458 219.114C145.33 197.34 148.011 176.921 158.45 173.502Z" fill="url(#paint4_linear_579_2219)"/>
<path d="M190.094 162.869C187.19 193.02 195.795 219.3 216.026 242.072L466.468 240.726L396.016 17.6624L190.094 162.869Z" fill="url(#paint5_linear_579_2219)"/>
<path style="mix-blend-mode:multiply" opacity="0.3" d="M383.904 195.412C359.689 194.304 342.772 165.241 317.403 172.38C297.506 177.982 297.835 198.973 277.93 203.215C257.558 207.558 247.311 187.417 222.809 187.155C211.671 187.036 201.393 191.099 192.156 197.305C195.947 213.504 203.904 228.426 216.026 242.072L466.468 240.726L428.349 169.643C410.274 189.986 395.646 195.949 383.904 195.412Z" fill="url(#paint6_linear_579_2219)"/>
<path d="M478.41 240.064C508.85 230.097 516.675 170.551 495.887 107.064C475.1 43.5778 433.572 0.191736 403.132 10.1587C372.692 20.1257 364.867 79.6715 385.654 143.158C406.441 206.644 447.969 250.031 478.41 240.064Z" fill="url(#paint7_linear_579_2219)"/>
<path d="M477.135 236.153C483.597 234.037 489.061 229.246 493.372 221.906C497.759 214.452 500.766 204.753 502.292 193.082C505.509 168.559 501.856 138.459 491.989 108.325C482.122 78.1906 467.268 51.7582 450.167 33.8899C442.031 25.3878 433.873 19.3467 425.923 15.9252C418.11 12.5634 410.871 11.9315 404.41 14.0478C397.948 16.1641 392.484 20.9529 388.173 28.2946C383.786 35.7558 380.785 45.4551 379.253 57.1214C377.906 67.3745 377.761 78.6042 378.77 90.4037C380.176 106.822 395.754 119.341 401.496 136.874C407.602 155.519 403.675 177.75 412.951 192.409C418.666 201.444 424.859 209.5 431.38 216.306C439.517 224.808 447.674 230.85 455.625 234.271C463.435 237.637 470.664 238.269 477.135 236.153Z" fill="url(#paint8_linear_579_2219)"/>
<path d="M445.801 125.125C455.338 154.248 443.625 183.686 419.98 190.784C396.701 197.763 370.576 180.391 361.304 152.079C352.032 123.767 362.913 94.5904 385.933 86.819C409.311 78.8937 436.265 96.0013 445.801 125.125Z" fill="url(#paint9_linear_579_2219)"/>
<path style="mix-blend-mode:multiply" opacity="0.3" d="M441.941 125.864C449.023 147.49 445.25 167.738 433.669 171.043C422.278 174.294 407.59 159.852 400.706 138.827C393.821 117.801 397.19 97.681 408.387 93.832C419.769 89.9211 434.859 104.237 441.941 125.864Z" fill="url(#paint10_linear_579_2219)"/>
<path opacity="0.3" d="M459.01 121.618L531.057 101.247C536.933 99.5883 543.006 102.029 544.541 106.721C546.078 111.415 542.473 116.482 536.551 118.022L464.001 136.88C459.175 138.135 454.198 135.764 452.835 131.595C451.479 127.436 454.214 122.974 459.01 121.618Z" fill="url(#paint11_linear_579_2219)"/>
<path d="M442.198 80.0263L524.232 51.6499C531.105 49.2693 538.385 52.2244 540.37 58.2862C542.356 64.3503 538.24 71.0577 531.298 73.2223L448.467 99.1699C443.101 100.85 437.437 97.9704 435.73 92.7634C434.025 87.5564 436.886 81.8646 442.198 80.0263Z" fill="url(#paint12_linear_579_2219)"/>
<path d="M480.219 103.12L548.206 83.1285C553.732 81.5039 559.482 83.8661 560.975 88.4251C562.469 92.9841 559.109 97.9199 553.542 99.4296L485.086 117.985C480.518 119.223 475.779 116.926 474.451 112.868C473.123 108.814 475.681 104.455 480.219 103.12Z" fill="url(#paint13_linear_579_2219)"/>
<path d="M460.221 143.117L547.289 121.866C554.601 120.083 562.267 123.603 564.293 129.764C566.311 135.922 561.858 142.214 554.477 143.781L466.574 162.52C460.894 163.731 454.954 160.42 453.226 155.141C451.498 149.866 454.591 144.491 460.221 143.117Z" fill="url(#paint14_linear_579_2219)"/>
<g style="mix-blend-mode:soft-light">
<path d="M541.253 135.118C542.765 139.739 548.482 142.515 554.096 141.299C559.792 140.065 563.213 135.203 561.658 130.456C560.102 125.708 554.197 122.978 548.542 124.336C542.969 125.676 539.738 130.495 541.253 135.118Z" fill="#F4F7FA"/>
</g>
<path d="M651.601 593.028L25.5784 587.575V603.711C25.5784 608.091 28.3082 611.813 32.0124 612.477L209.033 644.243C211.128 644.62 213.264 644.721 215.385 644.542L644.797 608.318C648.63 607.994 651.601 604.26 651.601 599.761V593.028Z" fill="url(#paint15_linear_579_2219)"/>
<path d="M450.075 566.876L32.4603 596.388C24.9876 596.916 18.9028 591.305 18.9028 583.853V285.314C18.912 281.727 20.3453 278.29 22.8877 275.76C25.4301 273.23 28.8733 271.813 32.4603 271.821H450.075C456.231 271.821 461.208 277.28 461.208 284.018V553.893C461.208 560.628 456.231 566.442 450.075 566.876Z" fill="url(#paint16_linear_579_2219)"/>
<path d="M456.734 566.876L39.1241 596.388C31.6514 596.916 25.5667 591.305 25.5667 583.853V285.314C25.5758 281.727 27.0091 278.29 29.5515 275.76C32.0939 273.23 35.5371 271.813 39.1241 271.821H456.734C462.89 271.821 467.868 277.28 467.868 284.018V553.893C467.868 560.628 462.89 566.442 456.734 566.876Z" fill="url(#paint17_linear_579_2219)"/>
<path d="M443.724 547.85L54.7659 573.485C48.6857 573.885 43.7361 569.28 43.7361 563.197V301.824C43.7409 298.897 44.9036 296.091 46.9702 294.019C49.0367 291.947 51.8393 290.777 54.7659 290.764L443.724 289.156C448.802 289.135 452.916 293.609 452.916 299.151V537.211C452.911 542.753 448.802 547.514 443.724 547.85Z" fill="white"/>
<path d="M262.679 279.987C262.679 282.761 260.529 285.015 257.875 285.024C255.221 285.033 253.049 282.784 253.049 280.003C253.049 277.223 255.207 274.969 257.875 274.966C260.542 274.964 262.679 277.211 262.679 279.987Z" fill="white"/>
<path d="M446.307 565.537L25.5667 596.602L209.015 629.523C211.11 629.899 213.245 629.999 215.366 629.822L651.589 593.028L452.996 565.748C450.78 565.445 448.538 565.374 446.307 565.537V565.537Z" fill="url(#paint18_linear_579_2219)"/>
<path style="mix-blend-mode:multiply" opacity="0.3" d="M86.9705 597.383L437.246 571.136L545.653 585.907L198.394 613.964L86.9705 597.383Z" fill="url(#paint19_linear_579_2219)"/>
<path d="M444.824 348.434L35.5481 353.524V307.288C35.5481 304.799 36.5371 302.411 38.2974 300.651C40.0578 298.891 42.4454 297.902 44.9349 297.902H435.426C437.915 297.902 440.303 298.891 442.063 300.651C443.824 302.411 444.813 304.799 444.813 307.288L444.824 348.434Z" fill="url(#paint20_linear_579_2219)"/>
<path d="M300.28 463.553L68.8909 473.112V363.811L300.28 359.93V463.553Z" fill="#D8DEE8"/>
<path d="M431.934 458.111L313.927 462.987V359.703L431.934 357.722V458.111Z" fill="#D8DEE8"/>
<path d="M431.934 532.629L68.8909 554.243V487.386L431.934 471.22V532.629Z" fill="#D8DEE8"/>
<path d="M73.0386 314.993C73.0386 317.902 70.5109 320.278 67.3743 320.301C64.2377 320.324 61.6963 317.976 61.6963 315.06C61.6963 312.144 64.24 309.775 67.3743 309.749C70.5086 309.724 73.0386 312.082 73.0386 314.993Z" fill="url(#paint21_linear_579_2219)"/>
<path d="M93.524 314.869C93.524 317.714 91.0125 320.037 87.9126 320.058C84.8128 320.078 82.2852 317.785 82.2852 314.933C82.2852 312.082 84.8128 309.758 87.9126 309.745C91.0125 309.731 93.524 312.029 93.524 314.869Z" fill="url(#paint22_linear_579_2219)"/>
<path d="M113.821 314.756C113.821 317.587 111.332 319.899 108.26 319.922C105.188 319.945 102.686 317.658 102.686 314.82C102.686 311.983 105.183 309.669 108.26 309.655C111.337 309.641 113.821 311.925 113.821 314.756Z" fill="url(#paint23_linear_579_2219)"/>
<g style="mix-blend-mode:soft-light" opacity="0.48">
<path d="M356.118 484.996C323.925 467.675 298.611 489.624 274.18 467.969C259.371 454.839 266.641 445.048 248.417 425.429C228.232 403.698 215.098 411.003 194.805 391.443C169.156 366.713 181.983 347.473 159.877 329.72C133.075 308.18 104.17 328.111 78.6546 307.458C67.6501 298.549 61.6113 285.596 58.4586 271.821H33.506C31.4045 271.82 29.3887 272.654 27.9021 274.139C26.4154 275.625 25.5796 277.64 25.5784 279.741V589.202C25.5784 593.568 29.1309 596.87 33.506 596.556L459.115 566.345C461.204 566.196 463.056 564.967 464.244 563.209C433.09 562.074 413.948 551.63 401.714 540.832C377.778 519.715 381.93 498.885 356.118 484.996Z" fill="white"/>
</g>
<path d="M621.876 331.041L575.291 407.257L433.179 405.649L370.151 527.587L207.432 533.281L122.996 663.396C122.254 664.539 121.261 665.498 120.091 666.198C118.922 666.898 117.608 667.321 116.25 667.436L105.22 668.355C100.215 669.143 89.5257 667.62 91.1572 662.824L148.347 533.44L195.379 512.408L353.576 506.357L413.436 386.477L558.804 384.869L607.519 310.859L621.876 331.041Z" fill="url(#paint24_linear_579_2219)"/>
<path d="M535.219 336.165L509.099 324.157L538.21 318.228L535.219 336.165Z" fill="url(#paint25_linear_579_2219)"/>
<path d="M634.73 310.864L648.395 331.041H618.073L607.824 318.228L634.73 310.864Z" fill="url(#paint26_linear_579_2219)"/>
<path d="M651.601 240.919L638.933 231.532L633.448 307.552L638.933 317.323L648.395 331.041L651.601 240.919Z" fill="url(#paint27_linear_579_2219)"/>
<path d="M295.59 497.57L361.203 515.498L424.231 393.559L358.618 375.629L295.59 497.57Z" fill="url(#paint28_linear_579_2219)"/>
<path d="M44.0669 654.211L93.1839 667.633C95.7151 668.325 98.4006 668.193 100.852 667.259C103.304 666.324 105.395 664.634 106.824 662.433L198.484 521.192L132.87 503.269L40.6798 645.325C40.1751 646.103 39.8609 646.988 39.763 647.91C39.665 648.831 39.786 649.763 40.1161 650.629C40.4462 651.495 40.976 652.271 41.6625 652.893C42.3491 653.516 43.1729 653.967 44.0669 654.211V654.211Z" fill="url(#paint29_linear_579_2219)"/>
<path d="M132.87 503.264L198.481 521.192L361.203 515.498L295.589 497.57L132.87 503.264Z" fill="url(#paint30_linear_579_2219)"/>
<path d="M358.618 375.629L424.231 393.559L566.343 395.161L500.73 377.233L358.618 375.629Z" fill="url(#paint31_linear_579_2219)"/>
<path d="M509.099 324.157L533.971 322.847L500.73 377.233L566.343 395.161L613.086 318.683L638.933 317.323V231.532L509.099 324.157Z" fill="url(#paint32_linear_579_2219)"/>
<g style="mix-blend-mode:multiply" opacity="0.3">
<path d="M318.49 493.149C337.347 478.013 354.454 487.223 366.516 474.853C376.829 464.283 366.155 455.659 377.95 429.585C387.555 408.344 401.639 398.564 404.476 396.655C407.735 394.469 411.178 392.572 414.766 390.983L358.62 375.643L295.59 497.57L310.225 501.568C312.643 498.45 315.417 495.624 318.49 493.149V493.149Z" fill="url(#paint33_linear_579_2219)"/>
</g>
<path style="mix-blend-mode:multiply" opacity="0.3" d="M432.375 378.805C420.375 379.625 418.222 380.078 418.197 380.643C418.119 382.325 437.387 385.618 457.072 386.13C474.591 386.59 477.652 384.455 496.407 385.671C508.611 386.464 516.789 387.98 516.989 387.049C517.231 385.926 505.881 381.78 493.664 379.274C477.023 375.852 461.914 376.79 432.375 378.805Z" fill="url(#paint34_linear_579_2219)"/>
<path style="mix-blend-mode:multiply" opacity="0.3" d="M98.9492 593.313C109.099 576.769 112.842 559.889 130.508 551.692C144.038 545.417 153.243 550.021 165.268 542.087C174.632 535.91 179.706 526.087 182.585 516.849L132.877 503.264L44.3403 639.694C74.8997 624.872 90.3943 607.271 98.9492 593.313Z" fill="url(#paint35_linear_579_2219)"/>
<path d="M255.285 399.789C260.848 398.164 268.286 408.381 274.467 416.874C283.716 429.579 294.521 444.425 291.61 462.252C288.746 479.789 273.709 493.448 269.426 491.495C265.749 489.824 272.806 478.027 267.408 462.252C263.042 449.522 255.834 449.517 250.995 437.035C244.988 421.545 248.439 401.788 255.285 399.789Z" fill="url(#paint36_linear_579_2219)"/>
<path d="M258.038 480.571C286.694 487.529 305.571 498.696 316.594 506.596C322.569 510.879 325.326 513.55 326.82 517.44C335.308 539.621 291.695 573.159 287.046 576.67L280.957 562.469C285.463 537.732 292.965 529.972 299.245 527.665C301.001 527.02 303.949 526.328 303.892 525.496C303.756 523.532 287.191 526.333 271.361 520.54C255.574 514.763 239.715 500.148 242.548 490.486C243.065 488.723 245.229 483.624 258.038 480.571Z" fill="url(#paint37_linear_579_2219)"/>
<path d="M285.826 642.697C285.826 642.697 283.158 643.646 283.158 645.762C283.158 647.878 285.86 657.166 288.806 660.469C291.752 663.771 292.023 658.844 291.833 655.671C291.642 652.497 290.879 645.394 290.151 644.02C289.422 642.646 285.826 642.697 285.826 642.697Z" fill="url(#paint38_linear_579_2219)"/>
<path style="mix-blend-mode:multiply" opacity="0.3" d="M294.392 513C299.597 512.897 311.799 511.927 315.046 517.957C317.757 522.989 313.01 530.616 310.089 535.308C302.152 548.061 294.447 549.367 289.02 557.202C286.92 560.235 285.017 564.47 284.41 570.53L280.964 562.474C285.47 537.737 292.972 529.977 299.252 527.67C301.008 527.024 303.956 526.333 303.899 525.501C303.763 523.536 287.198 526.337 271.368 520.544C256.978 515.278 242.575 502.678 242.277 493.172C265.055 509.51 282.207 513.239 294.392 513Z" fill="url(#paint39_linear_579_2219)"/>
<path d="M284.284 633.733C284.443 636.984 284.718 639.707 284.974 641.72C285.525 646.185 286.031 647.952 286.725 649.561C287.329 650.965 288.839 654.023 289.56 653.812C290.282 653.6 289.539 650.206 288.97 640.781C288.885 639.402 288.634 635.056 288.634 635.056L284.284 633.733Z" fill="url(#paint40_linear_579_2219)"/>
<path d="M241.514 482.432C254.252 490.069 265.572 499.852 274.975 511.348C282.329 520.372 293.522 534.097 297.573 554.562C299.733 565.47 298.669 575.257 296.456 594.382C294.711 609.525 292.102 624.556 288.643 639.402L284.836 640.932C281.435 634.684 276.986 624.792 275.391 612.144C272.781 591.45 280.523 584.875 276.807 570.199C273.59 557.487 264.263 549.69 245.609 534.102C230.284 521.293 216.152 513.692 210.911 497.715C210.022 495.003 209.263 491.674 210.716 488.627C213.838 482.06 225.813 479.769 241.514 482.432Z" fill="url(#paint41_linear_579_2219)"/>
<path d="M228.333 400.972C232.621 400.053 239.669 400.235 246.388 394.943C248.41 393.35 255.579 387.707 254.706 379.632C253.941 372.525 247.203 368.703 246.376 368.248C241.606 365.624 236.851 366.208 231.58 366.929C224.742 367.865 222.469 369.73 217.719 371.013C205.963 374.181 201.988 367.566 190.145 368.127C175.018 368.839 173.71 380.011 160.983 380.289C146.697 380.602 143.958 366.619 129.853 364.25C110.273 360.962 80.649 382.04 81.2442 406.338C81.5889 420.371 92.0442 436.454 105.388 441.284C113.168 444.096 121.563 443.203 123.959 448.262C125.664 451.863 121.831 454.637 122.192 460.901C122.652 468.989 129.621 474.665 130.747 475.582C141.184 484.084 164.586 479.792 180.567 467.753C209.396 446.052 205.03 405.986 228.333 400.972Z" fill="url(#paint42_linear_579_2219)"/>
<path d="M195.232 398.089C206.297 396.723 217.427 395.964 228.575 395.814C254.862 395.455 258.624 398.801 259.596 401.257C261.393 405.853 258.316 408.151 260.055 416.193C261.101 420.989 260.113 423.174 262.123 428.326C264.09 433.347 262.546 436.047 260.807 447.821C258.582 462.879 257.558 470.531 261.77 476.6C264.697 480.819 267.974 481.175 267.661 483.179C266.995 487.446 252.238 485.093 233.556 493.289C228.147 495.661 223.168 498.574 218.992 501.033C209.217 506.778 207.409 508.968 202.882 511.569C188.566 519.791 167.061 520.583 155.79 510.65C151.587 506.943 148.524 501.493 149.902 499.496C151.78 496.78 160.172 502.943 167.872 499.186C172.973 496.693 172.008 492.66 177.902 487.905C185 482.186 189.936 485.182 194.768 481.471C202.305 475.665 198.877 461.765 196.761 438.458C195.553 425.037 195.043 411.562 195.232 398.089V398.089Z" fill="url(#paint43_linear_579_2219)"/>
<path d="M223.68 392.672C220.095 394.897 214.3 397.803 213.661 398.594C213.023 399.384 231.219 402.5 242.541 396.783C242.541 396.783 244.297 395.809 237.47 394.444C236.017 394.152 236.3 391.323 236.495 388.398L235.13 385.871C235.13 385.871 227.265 390.448 223.68 392.672Z" fill="url(#paint44_linear_579_2219)"/>
<path d="M232.725 384.141C232.725 384.141 231.318 390.115 236.573 393.056C241.277 395.697 249.237 384.871 247.75 380.85C247.256 379.508 245.485 377.782 243.633 377.203C242.33 376.797 237.403 376.953 235.291 381.11C234.74 379.896 233.749 379.271 233.085 379.46C232.24 379.71 232.116 381.248 232.088 381.595C232.03 382.489 232.252 383.379 232.725 384.141V384.141Z" fill="url(#paint45_linear_579_2219)"/>
<path style="mix-blend-mode:multiply" opacity="0.3" d="M240.877 479.782C235.464 482.025 234.733 486.874 227.249 489.624C220.109 492.248 217.712 488.96 210.591 491.139C199.895 494.411 195.805 504.733 194.187 503.758C192.702 502.867 194.125 492.993 201 486.596C208.896 479.243 217.4 482.614 222.453 474.987C224.42 472.02 225.934 467.278 224.22 463.631C221.897 458.686 215.826 460.4 212.611 456.31C206.832 448.957 220.355 435.712 216.649 424.51C215.169 420.04 210.46 414.436 195.278 410.686C195.485 421.915 196.131 431.297 196.779 438.423C198.895 461.73 202.324 475.63 194.787 481.437C189.961 485.157 185.018 482.161 177.92 487.871C172.024 492.625 172.991 496.658 167.89 499.151C160.19 502.915 151.805 496.745 149.921 499.461C148.542 501.458 151.605 506.907 155.808 510.615C167.067 520.561 188.585 519.768 202.9 511.535C207.427 508.933 209.236 506.739 219.011 500.999C223.186 498.549 228.165 495.626 233.575 493.255C246.686 487.51 257.856 486.947 263.587 485.651C252.197 478.087 245.266 477.96 240.877 479.782Z" fill="url(#paint46_linear_579_2219)"/>
<path d="M293.119 487.397L224.443 490.739C223.979 490.763 223.528 490.899 223.128 491.135C222.728 491.371 222.391 491.7 222.145 492.094L220.245 495.144C220.031 495.488 219.915 495.883 219.909 496.288C219.903 496.693 220.007 497.092 220.211 497.442C220.414 497.793 220.708 498.081 221.063 498.277C221.418 498.473 221.819 498.568 222.223 498.554L294.967 495.782L293.119 487.397Z" fill="url(#paint47_linear_579_2219)"/>
<path d="M356.166 449.457L285.215 450.836C284.183 450.857 283.175 451.145 282.289 451.673C281.403 452.2 280.669 452.949 280.159 453.846L255.584 497.067L330.517 494.08C331.529 494.039 332.516 493.747 333.387 493.23C334.258 492.713 334.986 491.987 335.506 491.118L358.271 453.088C358.49 452.72 358.607 452.301 358.61 451.873C358.612 451.445 358.501 451.024 358.286 450.654C358.071 450.284 357.762 449.978 357.389 449.767C357.016 449.557 356.594 449.45 356.166 449.457V449.457Z" fill="url(#paint48_linear_579_2219)"/>
<path style="mix-blend-mode:multiply" opacity="0.3" d="M280.155 453.842C280.665 452.945 281.399 452.197 282.285 451.669C283.171 451.141 284.179 450.853 285.21 450.832L286.766 450.802C286.995 453.1 287.701 455.186 289.1 456.877C293.466 462.162 300.746 458.902 306.162 464.49C312.114 470.628 306.622 477.937 311.937 483.65C317.536 489.663 326.592 484.767 337.004 488.616L335.504 491.12C334.984 491.989 334.255 492.716 333.384 493.233C332.513 493.75 331.527 494.042 330.515 494.082L255.581 497.069L280.155 453.842Z" fill="url(#paint49_linear_579_2219)"/>
<path d="M235.693 487.439L238.016 481.306C229.464 478.962 217.634 475.497 205.502 471.163C202.514 470.09 201.404 468.707 200.605 467.643C194.382 459.393 210.214 444.839 209.93 425.952C209.734 412.855 201.797 397.889 194.805 397.719C180.588 397.374 149.247 457.693 175.645 483.429C188.745 496.205 213.225 497.687 235.693 487.439Z" fill="url(#paint50_linear_579_2219)"/>
<path d="M238.016 481.301C243.384 478.45 249.811 481.375 250.227 481.57C251.956 482.392 253.524 483.517 254.857 484.891C255.055 485.16 257.385 488.386 256.535 489.42C255.846 490.249 253.221 489.562 250.055 487.593C248.177 487.329 246.275 487.282 244.386 487.453C240.041 487.855 238.051 489.227 236.472 488.043C235.323 487.175 234.923 485.341 235.339 483.976C235.785 482.512 237.106 481.786 238.016 481.301Z" fill="url(#paint51_linear_579_2219)"/>
</g>
<defs>
<linearGradient id="paint0_linear_579_2219" x1="530.835" y1="406.011" x2="474.8" y2="626.191" gradientUnits="userSpaceOnUse">
<stop stop-color="#AA80F9"/>
<stop offset="1" stop-color="#6165D7"/>
</linearGradient>
<linearGradient id="paint1_linear_579_2219" x1="507.03" y1="546.232" x2="640.307" y2="423.169" gradientUnits="userSpaceOnUse">
<stop stop-color="#E38DDD"/>
<stop offset="1" stop-color="#9571F6"/>
</linearGradient>
<linearGradient id="paint2_linear_579_2219" x1="277.98" y1="204.992" x2="237.089" y2="305.366" gradientUnits="userSpaceOnUse">
<stop stop-color="#FFC444"/>
<stop offset="1" stop-color="#F36F56"/>
</linearGradient>
<linearGradient id="paint3_linear_579_2219" x1="267.497" y1="200.721" x2="226.606" y2="301.095" gradientUnits="userSpaceOnUse">
<stop stop-color="#FFC444"/>
<stop offset="1" stop-color="#F36F56"/>
</linearGradient>
<linearGradient id="paint4_linear_579_2219" x1="147.625" y1="185.996" x2="222.058" y2="231.844" gradientUnits="userSpaceOnUse">
<stop stop-color="#E38DDD"/>
<stop offset="1" stop-color="#9571F6"/>
</linearGradient>
<linearGradient id="paint5_linear_579_2219" x1="261.542" y1="50.773" x2="434.352" y2="370.674" gradientUnits="userSpaceOnUse">
<stop stop-color="#AA80F9"/>
<stop offset="1" stop-color="#6165D7"/>
</linearGradient>
<linearGradient id="paint6_linear_579_2219" x1="240.707" y1="58.2766" x2="415.675" y2="382.169" gradientUnits="userSpaceOnUse">
<stop stop-color="#AA80F9"/>
<stop offset="1" stop-color="#6165D7"/>
</linearGradient>
<linearGradient id="paint7_linear_579_2219" x1="355.919" y1="72.9627" x2="525.662" y2="177.285" gradientUnits="userSpaceOnUse">
<stop stop-color="#E38DDD"/>
<stop offset="1" stop-color="#9571F6"/>
</linearGradient>
<linearGradient id="paint8_linear_579_2219" x1="369.994" y1="146.612" x2="488.98" y2="111.111" gradientUnits="userSpaceOnUse">
<stop stop-color="#311944"/>
<stop offset="1" stop-color="#893976"/>
</linearGradient>
<linearGradient id="paint9_linear_579_2219" x1="347.353" y1="34.5696" x2="460.185" y2="243.44" gradientUnits="userSpaceOnUse">
<stop stop-color="#FFC444"/>
<stop offset="1" stop-color="#F36F56"/>
</linearGradient>
<linearGradient id="paint10_linear_579_2219" x1="379.864" y1="55.5919" x2="463.115" y2="209.706" gradientUnits="userSpaceOnUse">
<stop stop-color="#FFC444"/>
<stop offset="1" stop-color="#F36F56"/>
</linearGradient>
<linearGradient id="paint11_linear_579_2219" x1="516.778" y1="87.849" x2="451.96" y2="198.023" gradientUnits="userSpaceOnUse">
<stop stop-color="#E38DDD"/>
<stop offset="1" stop-color="#9571F6"/>
</linearGradient>
<linearGradient id="paint12_linear_579_2219" x1="535.354" y1="27.2903" x2="472.977" y2="90.6999" gradientUnits="userSpaceOnUse">
<stop stop-color="#FF9085"/>
<stop offset="1" stop-color="#FB6FBB"/>
</linearGradient>
<linearGradient id="paint13_linear_579_2219" x1="535.029" y1="70.6928" x2="472.964" y2="176.186" gradientUnits="userSpaceOnUse">
<stop stop-color="#E38DDD"/>
<stop offset="1" stop-color="#9571F6"/>
</linearGradient>
<linearGradient id="paint14_linear_579_2219" x1="529.854" y1="106.012" x2="454.372" y2="234.312" gradientUnits="userSpaceOnUse">
<stop stop-color="#AA80F9"/>
<stop offset="1" stop-color="#6165D7"/>
</linearGradient>
<linearGradient id="paint15_linear_579_2219" x1="290.008" y1="617.092" x2="246.031" y2="635.562" gradientUnits="userSpaceOnUse">
<stop stop-color="#40447E"/>
<stop offset="1" stop-color="#3C3B6B"/>
</linearGradient>
<linearGradient id="paint16_linear_579_2219" x1="231.286" y1="423.271" x2="183.559" y2="443.315" gradientUnits="userSpaceOnUse">
<stop stop-color="#40447E"/>
<stop offset="1" stop-color="#3C3B6B"/>
</linearGradient>
<linearGradient id="paint17_linear_579_2219" x1="25.5781" y1="434.121" x2="467.868" y2="434.121" gradientUnits="userSpaceOnUse">
<stop stop-color="#40447E"/>
<stop offset="1" stop-color="#3C3B6B"/>
</linearGradient>
<linearGradient id="paint18_linear_579_2219" x1="25.5781" y1="597.679" x2="651.601" y2="597.679" gradientUnits="userSpaceOnUse">
<stop stop-color="#40447E"/>
<stop offset="1" stop-color="#3C3B6B"/>
</linearGradient>
<linearGradient id="paint19_linear_579_2219" x1="86.9705" y1="592.55" x2="545.653" y2="592.55" gradientUnits="userSpaceOnUse">
<stop stop-color="#40447E"/>
<stop offset="1" stop-color="#3C3B6B"/>
</linearGradient>
<linearGradient id="paint20_linear_579_2219" x1="343.824" y1="214.815" x2="109.025" y2="466.735" gradientUnits="userSpaceOnUse">
<stop stop-color="#AA80F9"/>
<stop offset="1" stop-color="#6165D7"/>
</linearGradient>
<linearGradient id="paint21_linear_579_2219" x1="61.6963" y1="315.025" x2="73.0386" y2="315.025" gradientUnits="userSpaceOnUse">
<stop stop-color="#444B8C"/>
<stop offset="1" stop-color="#26264F"/>
</linearGradient>
<linearGradient id="paint22_linear_579_2219" x1="82.2852" y1="314.906" x2="93.524" y2="314.906" gradientUnits="userSpaceOnUse">
<stop stop-color="#444B8C"/>
<stop offset="1" stop-color="#26264F"/>
</linearGradient>
<linearGradient id="paint23_linear_579_2219" x1="102.686" y1="314.788" x2="113.821" y2="314.788" gradientUnits="userSpaceOnUse">
<stop stop-color="#444B8C"/>
<stop offset="1" stop-color="#26264F"/>
</linearGradient>
<linearGradient id="paint24_linear_579_2219" x1="425.971" y1="363.301" x2="230.275" y2="693.537" gradientUnits="userSpaceOnUse">
<stop stop-color="#AB316D"/>
<stop offset="1" stop-color="#792D3D"/>
</linearGradient>
<linearGradient id="paint25_linear_579_2219" x1="501.897" y1="364.609" x2="507.993" y2="354.243" gradientUnits="userSpaceOnUse">
<stop stop-color="#AB316D"/>
<stop offset="1" stop-color="#792D3D"/>
</linearGradient>
<linearGradient id="paint26_linear_579_2219" x1="636.598" y1="251.062" x2="629.282" y2="314.483" gradientUnits="userSpaceOnUse">
<stop stop-color="#AB316D"/>
<stop offset="1" stop-color="#792D3D"/>
</linearGradient>
<linearGradient id="paint27_linear_579_2219" x1="639.958" y1="308.458" x2="654.595" y2="201.129" gradientUnits="userSpaceOnUse">
<stop stop-color="#AB316D"/>
<stop offset="1" stop-color="#792D3D"/>
</linearGradient>
<linearGradient id="paint28_linear_579_2219" x1="396.441" y1="378.435" x2="325.09" y2="509.549" gradientUnits="userSpaceOnUse">
<stop stop-color="#FF9085"/>
<stop offset="1" stop-color="#FB6FBB"/>
</linearGradient>
<linearGradient id="paint29_linear_579_2219" x1="175.232" y1="497.32" x2="42.2332" y2="702.701" gradientUnits="userSpaceOnUse">
<stop stop-color="#FF9085"/>
<stop offset="1" stop-color="#FB6FBB"/>
</linearGradient>
<linearGradient id="paint30_linear_579_2219" x1="342.774" y1="492.432" x2="63.7757" y2="541.827" gradientUnits="userSpaceOnUse">
<stop stop-color="#FF9085"/>
<stop offset="1" stop-color="#FB6FBB"/>
</linearGradient>
<linearGradient id="paint31_linear_579_2219" x1="465.347" y1="357.352" x2="459.86" y2="411.016" gradientUnits="userSpaceOnUse">
<stop stop-color="#FF9085"/>
<stop offset="1" stop-color="#FB6FBB"/>
</linearGradient>
<linearGradient id="paint32_linear_579_2219" x1="537.583" y1="367.056" x2="652.231" y2="221.306" gradientUnits="userSpaceOnUse">
<stop stop-color="#FF9085"/>
<stop offset="1" stop-color="#FB6FBB"/>
</linearGradient>
<linearGradient id="paint33_linear_579_2219" x1="390.96" y1="375.454" x2="319.612" y2="506.566" gradientUnits="userSpaceOnUse">
<stop stop-color="#FF9085"/>
<stop offset="1" stop-color="#FB6FBB"/>
</linearGradient>
<linearGradient id="paint34_linear_579_2219" x1="477.983" y1="364.726" x2="458.017" y2="401.42" gradientUnits="userSpaceOnUse">
<stop stop-color="#FF9085"/>
<stop offset="1" stop-color="#FB6FBB"/>
</linearGradient>
<linearGradient id="paint35_linear_579_2219" x1="169.593" y1="493.668" x2="36.5919" y2="699.05" gradientUnits="userSpaceOnUse">
<stop stop-color="#FF9085"/>
<stop offset="1" stop-color="#FB6FBB"/>
</linearGradient>
<linearGradient id="paint36_linear_579_2219" x1="292.092" y1="445.65" x2="247.902" y2="445.65" gradientUnits="userSpaceOnUse">
<stop stop-color="#FFC444"/>
<stop offset="1" stop-color="#F36F56"/>
</linearGradient>
<linearGradient id="paint37_linear_579_2219" x1="368.195" y1="528.621" x2="282.499" y2="528.621" gradientUnits="userSpaceOnUse">
<stop stop-color="#AA80F9"/>
<stop offset="1" stop-color="#6165D7"/>
</linearGradient>
<linearGradient id="paint38_linear_579_2219" x1="297.411" y1="624.469" x2="281.631" y2="689.551" gradientUnits="userSpaceOnUse">
<stop stop-color="#E38DDD"/>
<stop offset="1" stop-color="#9571F6"/>
</linearGradient>
<linearGradient id="paint39_linear_579_2219" x1="327.911" y1="531.845" x2="242.217" y2="531.845" gradientUnits="userSpaceOnUse">
<stop stop-color="#AA80F9"/>
<stop offset="1" stop-color="#6165D7"/>
</linearGradient>
<linearGradient id="paint40_linear_579_2219" x1="289.857" y1="643.777" x2="284.284" y2="643.777" gradientUnits="userSpaceOnUse">
<stop stop-color="#311944"/>
<stop offset="1" stop-color="#A03976"/>
</linearGradient>
<linearGradient id="paint41_linear_579_2219" x1="322.436" y1="475.414" x2="245.599" y2="568.774" gradientUnits="userSpaceOnUse">
<stop stop-color="#AA80F9"/>
<stop offset="1" stop-color="#6165D7"/>
</linearGradient>
<linearGradient id="paint42_linear_579_2219" x1="108.052" y1="347.609" x2="205.42" y2="437.789" gradientUnits="userSpaceOnUse">
<stop stop-color="#444B8C"/>
<stop offset="1" stop-color="#26264F"/>
</linearGradient>
<linearGradient id="paint43_linear_579_2219" x1="189.986" y1="478.181" x2="272.517" y2="403.98" gradientUnits="userSpaceOnUse">
<stop stop-color="#FFC444"/>
<stop offset="1" stop-color="#F36F56"/>
</linearGradient>
<linearGradient id="paint44_linear_579_2219" x1="242.743" y1="393.005" x2="213.645" y2="393.005" gradientUnits="userSpaceOnUse">
<stop stop-color="#311944"/>
<stop offset="1" stop-color="#A03976"/>
</linearGradient>
<linearGradient id="paint45_linear_579_2219" x1="239.057" y1="468.426" x2="239.687" y2="411" gradientUnits="userSpaceOnUse">
<stop stop-color="#311944"/>
<stop offset="1" stop-color="#A03976"/>
</linearGradient>
<linearGradient id="paint46_linear_579_2219" x1="192.698" y1="481.196" x2="275.228" y2="406.995" gradientUnits="userSpaceOnUse">
<stop stop-color="#FFC444"/>
<stop offset="1" stop-color="#F36F56"/>
</linearGradient>
<linearGradient id="paint47_linear_579_2219" x1="219.896" y1="492.977" x2="294.96" y2="492.977" gradientUnits="userSpaceOnUse">
<stop stop-color="#444B8C"/>
<stop offset="1" stop-color="#26264F"/>
</linearGradient>
<linearGradient id="paint48_linear_579_2219" x1="255.588" y1="473.261" x2="358.618" y2="473.261" gradientUnits="userSpaceOnUse">
<stop stop-color="#444B8C"/>
<stop offset="1" stop-color="#26264F"/>
</linearGradient>
<linearGradient id="paint49_linear_579_2219" x1="334.577" y1="445.928" x2="285.364" y2="494.749" gradientUnits="userSpaceOnUse">
<stop stop-color="#444B8C"/>
<stop offset="1" stop-color="#26264F"/>
</linearGradient>
<linearGradient id="paint50_linear_579_2219" x1="224.186" y1="477.627" x2="161.162" y2="415.61" gradientUnits="userSpaceOnUse">
<stop stop-color="#FFC444"/>
<stop offset="1" stop-color="#F36F56"/>
</linearGradient>
<linearGradient id="paint51_linear_579_2219" x1="222.529" y1="470.097" x2="242.911" y2="484.364" gradientUnits="userSpaceOnUse">
<stop stop-color="#311944"/>
<stop offset="1" stop-color="#A03976"/>
</linearGradient>
<clipPath id="clip0_579_2219">
<rect width="669.48" height="669.48" fill="white" transform="translate(0.52002 0.52002)"/>
</clipPath>
</defs>
</svg>
